<svg width="1125" height="375" viewBox="0 0 1125 375" fill="none" xmlns="http://www.w3.org/2000/svg">
<path d="M403.527 318.747V215.617C405.494 215.012 407.46 214.559 409.578 214.559C418.804 214.559 426.367 221.212 427.729 230.134C428.485 229.832 429.393 229.68 430.3 229.68C434.233 229.68 437.56 232.553 438.468 236.183C438.619 236.183 438.922 236.183 439.073 236.183C447.241 236.183 454.199 240.719 457.829 247.524C460.4 243.441 464.938 240.719 470.232 240.719C471.896 240.719 473.409 241.022 474.921 241.475C476.736 233.158 484.148 226.958 492.921 226.958C493.829 226.958 494.736 227.11 495.644 227.261V227.11C495.644 218.339 502.753 211.081 511.526 211.081C518.03 211.081 523.475 215.012 526.047 220.607C528.467 219.398 531.189 218.641 534.215 218.641C544.349 218.641 552.668 226.958 552.668 237.241C552.668 238.602 552.517 240.114 552.214 241.324C556.752 242.383 560.534 244.953 563.256 248.582C567.34 243.592 573.391 240.568 580.197 240.568C591.39 240.568 600.617 249.036 601.978 259.924C603.491 259.168 605.155 258.714 606.819 258.714C612.869 258.714 617.861 263.704 617.861 269.753C617.861 269.904 617.861 270.206 617.861 270.358C618.919 268.846 620.735 267.787 622.701 267.787C625.575 267.787 627.844 269.753 628.449 272.324C628.751 272.021 628.902 271.87 629.205 271.567C630.415 264.763 636.314 259.621 643.575 259.621C649.474 259.621 654.616 263.251 656.885 268.392C657.339 263.855 660.969 260.226 665.658 259.773C664.599 257.807 664.146 255.538 664.146 253.119C664.146 245.104 670.499 238.602 678.364 238.3C677.91 236.636 677.759 234.973 677.759 233.158C677.759 220.91 687.591 210.929 699.843 210.929C710.582 210.929 719.506 218.793 721.473 229.075C722.531 228.924 723.741 228.773 724.952 228.773C726.918 228.773 728.733 229.075 730.548 229.529C734.178 225.749 739.321 223.329 744.918 223.329C755.96 223.329 764.884 232.402 764.884 243.441V318.596L403.527 318.747Z" fill="#E4F8EE"/>
<path d="M521.66 272.172C517.879 272.172 514.854 269.148 514.854 265.368V255.538C514.854 255.236 515.156 254.934 515.459 254.934C515.761 254.934 516.064 255.236 516.064 255.538V265.368C516.064 268.543 518.635 271.114 521.812 271.114C522.114 271.114 522.417 271.416 522.417 271.719C522.265 271.87 522.114 272.172 521.66 272.172Z" fill="#144F33"/>
<path d="M521.66 274.289C521.358 274.289 521.055 273.987 521.055 273.685C521.055 273.382 521.358 273.08 521.66 273.08C524.837 273.08 527.408 270.509 527.408 267.333V257.655C527.408 257.353 527.71 257.051 528.013 257.051C528.315 257.051 528.618 257.353 528.618 257.655V267.485C528.618 271.265 525.593 274.289 521.66 274.289Z" fill="#144F33"/>
<path d="M521.66 286.236C521.358 286.236 521.055 285.933 521.055 285.631V258.109C521.055 257.807 521.358 257.504 521.66 257.504C521.963 257.504 522.265 257.807 522.265 258.109V285.631C522.265 286.084 522.114 286.236 521.66 286.236Z" fill="#144F33"/>
<path d="M544.803 245.709C544.803 258.412 534.517 268.846 521.66 268.846C508.803 268.846 498.518 258.563 498.518 245.709C498.518 232.856 508.803 198.681 521.66 198.681C534.517 198.681 544.803 232.856 544.803 245.709Z" fill="#00B149"/>
<path d="M521.66 259.319C521.358 259.319 521.055 259.016 521.055 258.714V213.349C521.055 213.046 521.358 212.744 521.66 212.744C521.963 212.744 522.265 213.046 522.265 213.349V258.714C522.265 259.016 522.114 259.319 521.66 259.319Z" fill="#144F33"/>
<path d="M521.66 253.27C521.358 253.27 521.055 252.968 521.055 252.665C521.055 252.363 521.358 252.06 521.66 252.06C526.803 252.06 530.887 247.978 530.887 242.836C530.887 242.534 531.189 242.231 531.492 242.231C531.794 242.231 532.097 242.534 532.097 242.836C532.097 248.582 527.408 253.27 521.66 253.27Z" fill="#144F33"/>
<path d="M521.66 227.412C518.484 227.412 516.064 224.841 516.064 221.817C516.064 221.515 516.366 221.212 516.669 221.212C516.971 221.212 517.274 221.515 517.274 221.817C517.274 224.236 519.24 226.354 521.811 226.354C522.114 226.354 522.417 226.656 522.417 226.958C522.417 227.261 522.114 227.412 521.66 227.412Z" fill="#144F33"/>
<path d="M554.181 270.963C549.946 270.963 546.618 267.636 546.618 263.402V252.514C546.618 252.212 546.921 251.909 547.223 251.909C547.526 251.909 547.828 252.212 547.828 252.514V263.402C547.828 266.88 550.702 269.904 554.332 269.904C554.635 269.904 554.937 270.206 554.937 270.509C554.937 270.811 554.484 270.963 554.181 270.963Z" fill="#144F33"/>
<path d="M554.181 265.67C553.879 265.67 553.576 265.368 553.576 265.065C553.576 264.763 553.879 264.46 554.181 264.46C557.66 264.46 560.685 261.587 560.685 257.958V247.07C560.685 246.768 560.988 246.465 561.29 246.465C561.593 246.465 561.895 246.768 561.895 247.07V257.958C561.744 262.192 558.416 265.67 554.181 265.67Z" fill="#144F33"/>
<path d="M554.181 279.431C553.879 279.431 553.576 279.128 553.576 278.826V248.28C553.576 247.978 553.879 247.675 554.181 247.675C554.484 247.675 554.786 247.978 554.786 248.28V278.826C554.786 279.28 554.484 279.431 554.181 279.431Z" fill="#144F33"/>
<path d="M579.276 240.406C582.539 226.589 573.981 212.743 560.16 209.48C546.339 206.218 532.49 214.774 529.226 228.591C525.963 242.408 534.521 256.253 548.342 259.516C562.163 262.779 576.012 254.223 579.276 240.406Z" fill="#00C853"/>
<path d="M554.181 249.641C553.879 249.641 553.576 249.339 553.576 249.036V225.749C553.576 225.446 553.879 225.144 554.181 225.144C554.484 225.144 554.786 225.446 554.786 225.749V249.036C554.786 249.339 554.484 249.641 554.181 249.641Z" fill="#144F33"/>
<path d="M554.181 242.836C553.879 242.836 553.576 242.534 553.576 242.231C553.576 241.929 553.879 241.626 554.181 241.626C557.66 241.626 560.685 238.753 560.685 235.124C560.685 234.822 560.988 234.519 561.29 234.519C561.593 234.519 561.895 234.822 561.895 235.124C561.744 239.358 558.416 242.836 554.181 242.836Z" fill="#144F33"/>
<path d="M554.181 231.949C550.702 231.949 547.979 229.227 547.979 225.749C547.979 225.446 548.282 225.144 548.585 225.144C548.887 225.144 549.19 225.446 549.19 225.749C549.19 228.622 551.458 230.89 554.332 230.89C554.635 230.89 554.937 231.192 554.937 231.495C554.786 231.646 554.484 231.949 554.181 231.949Z" fill="#144F33"/>
<path d="M654.919 282.153C650.684 282.153 647.356 278.826 647.356 274.592V263.704C647.356 263.402 647.659 263.099 647.961 263.099C648.264 263.099 648.566 263.402 648.566 263.704V274.592C648.566 278.07 651.44 281.094 655.07 281.094C655.373 281.094 655.675 281.397 655.675 281.699C655.675 282.001 655.222 282.153 654.919 282.153Z" fill="#144F33"/>
<path d="M654.919 276.86C654.617 276.86 654.314 276.558 654.314 276.255C654.314 275.953 654.617 275.65 654.919 275.65C658.398 275.65 661.423 272.777 661.423 269.148V258.26C661.423 257.958 661.726 257.655 662.028 257.655C662.331 257.655 662.633 257.958 662.633 258.26V269.148C662.482 273.533 659.154 276.86 654.919 276.86Z" fill="#144F33"/>
<path d="M654.919 290.772C654.617 290.772 654.314 290.47 654.314 290.167V259.621C654.314 259.319 654.617 259.016 654.919 259.016C655.222 259.016 655.524 259.319 655.524 259.621V290.167C655.524 290.47 655.222 290.772 654.919 290.772Z" fill="#144F33"/>
<path d="M673.13 263.896C683.172 253.857 683.172 237.581 673.13 227.542C663.088 217.503 646.807 217.503 636.765 227.542C626.723 237.581 626.723 253.857 636.765 263.896C646.807 273.935 663.088 273.935 673.13 263.896Z" fill="#00C853"/>
<path d="M654.919 260.831C654.617 260.831 654.314 260.529 654.314 260.226V236.939C654.314 236.636 654.617 236.334 654.919 236.334C655.222 236.334 655.524 236.636 655.524 236.939V260.226C655.524 260.529 655.222 260.831 654.919 260.831Z" fill="#144F33"/>
<path d="M654.919 254.026C654.617 254.026 654.314 253.724 654.314 253.421C654.314 253.119 654.617 252.817 654.919 252.817C658.398 252.817 661.423 249.943 661.423 246.314C661.423 246.012 661.726 245.709 662.028 245.709C662.331 245.709 662.633 246.012 662.633 246.314C662.482 250.548 659.154 254.026 654.919 254.026Z" fill="#144F33"/>
<path d="M654.919 243.139C651.44 243.139 648.717 240.417 648.717 236.939C648.717 236.636 649.02 236.334 649.323 236.334C649.625 236.334 649.928 236.636 649.928 236.939C649.928 239.812 652.196 242.08 655.07 242.08C655.373 242.08 655.675 242.383 655.675 242.685C655.524 242.836 655.222 243.139 654.919 243.139Z" fill="#144F33"/>
<path d="M686.684 296.216C683.205 296.216 680.331 293.343 680.331 289.865V280.792C680.331 280.489 680.633 280.187 680.936 280.187C681.238 280.187 681.541 280.489 681.541 280.792V289.865C681.541 292.738 683.961 295.157 686.835 295.157C687.137 295.157 687.44 295.46 687.44 295.762C687.44 296.065 686.986 296.216 686.684 296.216Z" fill="#144F33"/>
<path d="M686.683 291.679C686.381 291.679 686.078 291.377 686.078 291.075C686.078 290.772 686.381 290.47 686.683 290.47C689.557 290.47 691.977 288.05 691.977 285.177V276.104C691.977 275.802 692.28 275.499 692.583 275.499C692.885 275.499 693.188 275.802 693.188 276.104V285.177C693.036 288.806 690.162 291.679 686.683 291.679Z" fill="#144F33"/>
<path d="M686.683 303.323C686.381 303.323 686.078 303.021 686.078 302.718V277.314C686.078 277.011 686.381 276.709 686.683 276.709C686.986 276.709 687.288 277.011 687.288 277.314V302.869C687.137 303.021 686.986 303.323 686.683 303.323Z" fill="#144F33"/>
<path d="M701.81 280.681C710.198 272.295 710.198 258.7 701.81 250.314C693.422 241.928 679.822 241.928 671.435 250.314C663.047 258.7 663.047 272.295 671.435 280.681C679.822 289.067 693.422 289.067 701.81 280.681Z" fill="#00B149"/>
<path d="M686.683 278.372C686.381 278.372 686.078 278.07 686.078 277.767V258.26C686.078 257.958 686.381 257.655 686.683 257.655C686.986 257.655 687.288 257.958 687.288 258.26V277.767C687.137 278.07 686.986 278.372 686.683 278.372Z" fill="#144F33"/>
<path d="M686.683 272.626C686.381 272.626 686.078 272.324 686.078 272.021C686.078 271.719 686.381 271.416 686.683 271.416C689.557 271.416 691.977 268.997 691.977 266.124C691.977 265.821 692.28 265.519 692.583 265.519C692.885 265.519 693.188 265.821 693.188 266.124C693.036 269.753 690.162 272.626 686.683 272.626Z" fill="#144F33"/>
<path d="M686.683 263.553C683.809 263.553 681.389 261.133 681.389 258.26C681.389 257.958 681.692 257.655 681.994 257.655C682.297 257.655 682.599 257.958 682.599 258.26C682.599 260.529 684.415 262.343 686.683 262.343C686.986 262.343 687.288 262.646 687.288 262.948C687.137 263.251 686.986 263.553 686.683 263.553Z" fill="#144F33"/>
<path d="M592.903 263.704C588.668 263.704 585.34 260.377 585.34 256.143V245.256C585.34 244.953 585.643 244.651 585.945 244.651C586.248 244.651 586.55 244.953 586.55 245.256V256.143C586.55 259.621 589.424 262.646 593.055 262.646C593.357 262.646 593.66 262.948 593.66 263.251C593.66 263.553 593.206 263.704 592.903 263.704Z" fill="#144F33"/>
<path d="M592.903 266.124C592.601 266.124 592.298 265.821 592.298 265.519C592.298 265.216 592.601 264.914 592.903 264.914C596.382 264.914 599.408 262.041 599.408 258.412V247.524C599.408 247.221 599.71 246.919 600.013 246.919C600.315 246.919 600.618 247.221 600.618 247.524V258.412C600.466 262.797 597.139 266.124 592.903 266.124Z" fill="#144F33"/>
<path d="M592.903 279.431C592.601 279.431 592.298 279.128 592.298 278.826V248.28C592.298 247.978 592.601 247.675 592.903 247.675C593.206 247.675 593.508 247.978 593.508 248.28V278.826C593.508 279.28 593.206 279.431 592.903 279.431Z" fill="#144F33"/>
<path d="M618.617 234.519C618.617 248.734 607.122 260.226 592.903 260.226C578.685 260.226 567.189 248.734 567.189 234.519C567.189 220.305 578.685 182.349 592.903 182.349C607.122 182.349 618.617 220.305 618.617 234.519Z" fill="#00B149"/>
<path d="M592.903 249.641C592.601 249.641 592.298 249.339 592.298 249.036V198.681C592.298 198.378 592.601 198.076 592.903 198.076C593.206 198.076 593.508 198.378 593.508 198.681V249.036C593.508 249.339 593.206 249.641 592.903 249.641Z" fill="#144F33"/>
<path d="M592.903 242.836C592.601 242.836 592.298 242.534 592.298 242.231C592.298 241.929 592.601 241.626 592.903 241.626C598.5 241.626 603.189 237.09 603.189 231.344C603.189 231.041 603.491 230.739 603.794 230.739C604.097 230.739 604.399 231.041 604.399 231.344C604.399 237.695 599.256 242.836 592.903 242.836Z" fill="#144F33"/>
<path d="M592.903 214.105C589.424 214.105 586.701 211.383 586.701 207.905C586.701 207.603 587.004 207.3 587.306 207.3C587.609 207.3 587.912 207.603 587.912 207.905C587.912 210.778 590.18 213.046 593.054 213.046C593.357 213.046 593.659 213.349 593.659 213.651C593.508 213.954 593.206 214.105 592.903 214.105Z" fill="#144F33"/>
<path d="M877.421 182.954L761.406 365.625H1014.76L898.748 182.954C893.454 174.637 882.715 174.637 877.421 182.954Z" fill="#00C853"/>
<path d="M946.697 322.376L890.58 308.011C886.344 306.952 884.076 301.811 885.588 297.123L893.302 274.441C895.117 268.997 892.697 262.948 887.857 261.285L865.168 253.421C861.689 252.212 859.723 247.978 860.631 243.744L885.134 177.057C882.109 177.813 879.387 179.779 877.269 182.954L761.254 365.625H1014.61L955.621 338.708C953.654 337.801 952.293 335.532 952.293 333.113V330.845C952.596 326.762 950.176 323.284 946.697 322.376Z" fill="#00B149"/>
<path d="M762.766 223.178L656.885 365.625H888.008L782.127 223.178C777.438 216.676 767.607 216.676 762.766 223.178Z" fill="#00E792"/>
<path d="M825.993 331.904L774.868 320.714C771.086 319.958 768.968 315.875 770.33 312.246L777.439 294.553C779.103 290.319 776.834 285.631 772.599 284.27L759.742 280.339C756.565 279.431 754.75 276.105 755.658 272.778L770.027 218.491C767.305 219.096 764.733 220.608 762.918 223.027L657.037 365.474H888.16L834.312 344.455C832.497 343.699 831.287 342.035 831.287 340.07V338.255C831.287 335.382 829.169 332.66 825.993 331.904Z" fill="#00C853"/>
<path d="M362.234 159.667L216.723 365.776H534.517L388.855 159.667C382.2 150.291 368.889 150.291 362.234 159.667Z" fill="#00C853"/>
<path d="M449.056 316.782L378.721 300.601C373.427 299.392 370.553 293.494 372.519 288.353L382.2 262.797C384.469 256.748 381.444 249.792 375.393 247.978L346.957 239.056C342.57 237.695 339.999 232.856 341.209 228.168L372.066 153.013C368.284 153.921 364.805 156.038 362.234 159.667L216.723 365.776H534.517L460.552 335.381C458.132 334.323 456.468 331.903 456.468 329.03V326.459C456.317 321.772 453.291 317.84 449.056 316.782Z" fill="#00B149"/>
<path d="M224.74 239.358L130.808 365.776H335.764L241.983 239.358C237.597 233.612 228.975 233.612 224.74 239.358Z" fill="#00C853"/>
<path d="M127.857 309.413L79.162 373.865H185.412L136.796 309.413C134.522 306.484 130.052 306.484 127.857 309.413Z" fill="#00C853"/>
<path d="M280.705 335.684L235.328 325.703C232 324.947 230.034 321.318 231.395 318.142L237.597 302.416C239.109 298.635 237.143 294.553 233.21 293.343L221.866 289.865C218.992 288.957 217.479 286.084 218.236 283.211L231.093 235.124C228.672 235.578 226.403 236.939 224.74 239.207L130.808 365.625H335.763L287.966 347.025C286.302 346.42 285.394 344.908 285.394 343.093V341.43C285.394 338.708 283.428 336.288 280.705 335.684Z" fill="#00B149"/>
<path d="M156.87 358.573L133.346 353.476C131.621 353.09 130.601 351.237 131.307 349.615L134.522 341.583C135.306 339.652 134.287 337.567 132.248 336.949L126.367 335.173C124.877 334.71 124.093 333.242 124.485 331.775L131.15 307.216C129.896 307.448 128.719 308.143 127.857 309.301L79.1622 373.865H185.412L160.634 364.365C159.771 364.057 159.301 363.284 159.301 362.358V361.508C159.301 360.118 158.281 358.882 156.87 358.573Z" fill="#00B149"/>
<path d="M807.236 365.776C807.236 365.776 672.465 274.894 579.29 274.894C486.114 274.894 384.166 365.776 384.166 365.776H807.236Z" fill="#00B149"/>
<path d="M585.794 355.947C587.609 352.317 590.483 348.991 593.508 346.269C599.558 340.976 606.667 337.196 613.172 332.659C620.583 327.518 627.692 320.864 629.205 311.489C630.566 302.416 626.029 293.796 619.524 287.748C615.441 283.967 605.76 278.07 601.827 276.406C594.113 275.348 586.701 274.894 579.441 274.894C578.533 274.894 577.777 274.894 576.87 274.894C580.349 275.953 583.676 277.162 587.004 278.675C592.903 281.397 598.802 284.875 603.189 289.713C606.516 293.494 608.936 298.333 608.331 303.474C607.878 307.86 605.155 311.489 601.827 314.362C597.895 317.689 593.206 320.108 588.516 322.225C583.374 324.493 578.231 326.157 572.937 327.82C568.55 329.181 564.013 330.391 559.626 331.903C554.03 333.718 548.584 336.44 543.441 339.313C537.391 342.64 531.643 346.722 527.106 352.166C523.778 356.249 521.358 360.937 519.996 365.927H582.92C583.374 362.449 584.281 359.122 585.794 355.947Z" fill="#F2B55A"/>
<path d="M153.951 365.776H148.052L148.657 227.714H153.346L153.951 365.776Z" fill="#19185E"/>
<path d="M149.262 224.237V187.944C149.262 187.34 149.867 186.735 150.472 186.735H151.228C151.984 186.735 152.438 187.188 152.741 187.793L158.489 211.081C158.942 212.895 158.489 215.012 157.278 216.373L153.346 220.91V223.329L149.262 224.237Z" fill="#F27512"/>
<path d="M153.497 224.539L186.32 239.056C186.925 239.358 187.228 239.963 186.925 240.568L186.623 241.173C186.32 241.778 185.715 242.08 184.959 242.08L161.363 237.997C159.396 237.695 157.884 236.485 156.976 234.67L154.405 229.227L151.833 228.017L153.497 224.539Z" fill="#F27512"/>
<path d="M150.169 228.622L119.918 246.617C119.313 246.919 118.556 246.768 118.254 246.163L117.951 245.558C117.649 244.953 117.649 244.197 118.254 243.744L135.346 226.807C136.707 225.446 138.674 224.841 140.64 225.144L146.69 226.202L148.959 224.841L150.169 228.622Z" fill="#F27512"/>
<path d="M154.707 225.295C154.707 227.11 153.195 228.773 151.228 228.773C149.262 228.773 147.749 227.261 147.749 225.295C147.749 223.48 149.262 221.817 151.228 221.817C153.195 221.817 154.707 223.48 154.707 225.295Z" fill="#19185E"/>
<path d="M153.043 225.295C153.043 226.203 152.287 226.959 151.38 226.959C150.472 226.959 149.716 226.203 149.716 225.295C149.716 224.388 150.472 223.632 151.38 223.632C152.287 223.632 153.043 224.388 153.043 225.295Z" fill="#E1E3F7"/>
<path d="M765.209 375H759.31L759.915 205.839H764.604L765.209 375Z" fill="#19185E"/>
<path d="M760.52 202.362V166.069C760.52 165.465 761.125 164.86 761.73 164.86H762.487C763.243 164.86 763.697 165.313 763.999 165.918L769.747 189.206C770.201 191.02 769.747 193.137 768.537 194.498L764.604 199.035V201.454L760.52 202.362Z" fill="#F27512"/>
<path d="M764.755 202.664L797.578 217.181C798.183 217.483 798.486 218.088 798.183 218.693L797.881 219.298C797.578 219.903 796.973 220.205 796.217 220.205L772.469 216.122C770.503 215.82 768.991 214.61 768.083 212.795L765.512 207.352L762.94 206.142L764.755 202.664Z" fill="#F27512"/>
<path d="M761.579 206.747L731.327 224.742C730.722 225.044 729.966 224.893 729.663 224.288L729.361 223.683C729.058 223.078 729.058 222.322 729.663 221.869L746.756 204.932C748.117 203.571 750.083 202.966 752.05 203.269L758.1 204.327L760.369 202.966L761.579 206.747Z" fill="#F27512"/>
<path d="M766.116 203.42C766.116 205.235 764.604 206.898 762.638 206.898C760.822 206.898 759.159 205.386 759.159 203.42C759.159 201.605 760.671 199.942 762.638 199.942C764.453 200.093 766.116 201.605 766.116 203.42Z" fill="#19185E"/>
<path d="M764.301 203.42C764.301 204.328 763.545 205.084 762.637 205.084C761.73 205.084 760.974 204.328 760.974 203.42C760.974 202.513 761.73 201.757 762.637 201.757C763.545 201.757 764.301 202.513 764.301 203.42Z" fill="#E1E3F7"/>
<path d="M821.454 365.776H816.009L816.614 236.939H820.849L821.454 365.776Z" fill="#19185E"/>
<path d="M817.068 233.612V199.891C817.068 199.286 817.522 198.832 818.127 198.832H818.883C819.488 198.832 820.093 199.286 820.245 199.891L825.69 221.666C826.144 223.48 825.69 225.295 824.48 226.656L820.85 230.89V233.158L817.068 233.612Z" fill="#F27512"/>
<path d="M821.152 233.914L851.857 247.524C852.462 247.826 852.614 248.431 852.462 249.036L852.16 249.641C851.857 250.246 851.252 250.548 850.647 250.397L828.564 246.465C826.748 246.163 825.236 244.953 824.48 243.29L822.059 238.148L819.639 237.09L821.152 233.914Z" fill="#F27512"/>
<path d="M817.976 237.695L789.842 254.48C789.388 254.782 788.631 254.631 788.329 254.026L788.026 253.421C787.724 252.817 787.724 252.212 788.178 251.758L804.06 235.88C805.27 234.67 807.236 234.066 808.9 234.368L814.497 235.275L816.614 234.066L817.976 237.695Z" fill="#F27512"/>
<path d="M819.034 237.846C820.789 237.846 822.211 236.424 822.211 234.67C822.211 232.917 820.789 231.495 819.034 231.495C817.28 231.495 815.858 232.917 815.858 234.67C815.858 236.424 817.28 237.846 819.034 237.846Z" fill="#19185E"/>
<path d="M820.698 234.671C820.698 235.578 819.942 236.184 819.186 236.184C818.43 236.184 817.673 235.427 817.673 234.671C817.673 233.915 818.43 233.158 819.186 233.158C819.942 233.158 820.698 233.763 820.698 234.671Z" fill="#E1E3F7"/>
<path d="M454.472 365.776H449.027L449.632 236.939H453.867L454.472 365.776Z" fill="#19185E"/>
<path d="M450.086 233.612V199.891C450.086 199.286 450.54 198.832 451.145 198.832H451.901C452.506 198.832 453.111 199.286 453.262 199.891L458.708 221.666C459.161 223.48 458.708 225.295 457.498 226.656L453.867 230.89V233.158L450.086 233.612Z" fill="#F27512"/>
<path d="M454.17 233.914L484.875 247.524C485.48 247.826 485.631 248.431 485.48 249.036L485.178 249.641C484.875 250.246 484.27 250.548 483.665 250.397L461.581 246.465C459.766 246.163 458.254 244.953 457.497 243.29L455.077 238.148L452.657 237.09L454.17 233.914Z" fill="#F27512"/>
<path d="M450.993 237.695L422.859 254.48C422.406 254.782 421.649 254.631 421.347 254.026L421.044 253.421C420.742 252.817 420.742 252.212 421.195 251.758L437.078 235.88C438.288 234.67 440.254 234.066 441.918 234.368L447.514 235.275L449.632 234.066L450.993 237.695Z" fill="#F27512"/>
<path d="M452.052 237.846C453.806 237.846 455.229 236.424 455.229 234.67C455.229 232.917 453.806 231.495 452.052 231.495C450.298 231.495 448.876 232.917 448.876 234.67C448.876 236.424 450.298 237.846 452.052 237.846Z" fill="#19185E"/>
<path d="M453.716 234.671C453.716 235.578 452.96 236.184 452.204 236.184C451.447 236.184 450.691 235.427 450.691 234.671C450.691 233.915 451.447 233.158 452.204 233.158C452.96 233.158 453.716 233.763 453.716 234.671Z" fill="#E1E3F7"/>
<path d="M788.934 365.776C765.338 357.61 743.708 361.844 718.145 356.551C694.095 351.259 679.574 347.327 658.247 347.327C625.575 347.327 611.205 353.981 584.433 365.776C584.281 365.776 782.43 365.927 788.934 365.776Z" fill="#00C853"/>
<path d="M347.108 365.776H290.083L293.26 284.421C293.26 283.362 294.167 282.455 295.226 282.455H341.814C342.872 282.455 343.78 283.362 343.78 284.421L347.108 365.776Z" fill="white"/>
<path d="M341.965 275.197H295.377V282.606H341.965V275.197Z" fill="#F4B856"/>
<path d="M345.142 275.651H292.201C290.84 275.651 290.386 273.836 291.596 273.231L317.613 259.622C318.369 259.319 319.125 259.319 319.73 259.622L345.747 273.231C346.957 273.836 346.503 275.651 345.142 275.651Z" fill="#DD5F0A"/>
<path d="M335.159 275.65H302.033L318.066 259.47C318.369 259.168 318.823 259.168 319.125 259.47L335.159 275.65Z" fill="#F27512"/>
<path d="M322.453 275.65C322.453 277.767 320.789 279.431 318.671 279.431C316.554 279.431 314.89 277.767 314.89 275.65C314.89 273.533 316.554 271.87 318.671 271.87C320.789 271.87 322.453 273.533 322.453 275.65Z" fill="#144F33"/>
<path d="M305.058 257.051L300.067 262.041C299.008 263.099 297.344 263.099 296.436 262.041L268 233.612C266.941 232.553 266.941 230.89 268 229.983L272.991 224.993C274.05 223.934 275.714 223.934 276.622 224.993L305.058 253.421C305.966 254.48 305.966 256.143 305.058 257.051Z" fill="#144F33"/>
<path d="M301.318 256.962L299.82 258.459L317.575 276.209L319.072 274.712L301.318 256.962Z" fill="#144F33"/>
<path d="M332.134 294.25L337.125 289.26C338.184 288.201 339.848 288.201 340.755 289.26L369.192 317.689C370.251 318.747 370.251 320.411 369.192 321.318L364.2 326.308C363.142 327.367 361.478 327.367 360.57 326.308L332.134 297.879C331.226 296.972 331.226 295.308 332.134 294.25Z" fill="#144F33"/>
<path d="M335.829 294.426L337.327 292.929L319.572 275.179L318.075 276.676L335.829 294.426Z" fill="#144F33"/>
<path d="M337.276 262.192L332.284 257.202C331.226 256.143 331.226 254.48 332.284 253.573L360.721 225.144C361.78 224.085 363.444 224.085 364.351 225.144L369.343 230.134C370.402 231.193 370.402 232.856 369.343 233.763L340.906 262.192C339.847 263.099 338.184 263.099 337.276 262.192Z" fill="#144F33"/>
<path d="M337.374 258.459L335.876 256.962L318.122 274.712L319.619 276.209L337.374 258.459Z" fill="#144F33"/>
<path d="M300.066 289.26L305.058 294.25C306.117 295.309 306.117 296.972 305.058 297.879L276.621 326.308C275.563 327.367 273.899 327.367 272.991 326.308L268 321.318C266.941 320.259 266.941 318.596 268 317.689L296.436 289.26C297.344 288.201 299.008 288.201 300.066 289.26Z" fill="#144F33"/>
<path d="M299.898 292.961L301.396 294.458L319.15 276.709L317.653 275.212L299.898 292.961Z" fill="#144F33"/>
<path d="M321.545 300.45V293.343C321.545 291.679 320.184 290.47 318.672 290.47C317.008 290.47 315.798 291.831 315.798 293.343V300.45H321.545Z" fill="#144F33"/>
<path d="M321.545 336.288V329.181C321.545 327.518 320.184 326.308 318.671 326.308C317.007 326.308 315.797 327.669 315.797 329.181V336.288H321.545Z" fill="#144F33"/>
<path d="M113.848 356.4H111.73V365.775H113.848V356.4Z" fill="#363B9D"/>
<path d="M131.847 360.332H98.2677C97.2089 360.332 95.9988 359.424 95.8476 358.366L89.646 334.171C89.3435 333.113 90.0998 332.205 91.1586 332.205H125.192C126.251 332.205 127.461 333.113 127.612 334.171L133.36 358.366C133.662 359.424 132.906 360.332 131.847 360.332Z" fill="#363B9D"/>
<path d="M133.057 360.332H99.4781C98.4193 360.332 97.2092 359.424 97.0579 358.366L90.8563 334.171C90.5538 333.113 91.3101 332.205 92.3689 332.205H126.251C127.31 332.205 128.52 333.113 128.671 334.171L134.419 358.366C134.873 359.424 134.116 360.332 133.057 360.332Z" fill="white"/>
<path d="M104.924 341.279H109.764C110.066 341.279 110.218 341.128 110.369 340.976L110.52 340.825C110.671 340.674 110.823 340.372 110.671 340.22L109.31 334.777C109.31 334.474 109.007 334.323 108.705 334.323H102.957C102.503 334.323 102.201 334.777 102.352 335.23L103.713 340.523C103.713 340.674 103.865 340.825 104.016 340.976C104.167 341.128 104.318 341.128 104.47 341.279C104.47 341.279 104.621 341.279 104.924 341.279Z" fill="#19185E"/>
<path d="M113.394 341.279H118.385C118.688 341.279 118.839 341.128 118.99 340.976C118.99 340.976 118.99 340.825 119.142 340.825C119.293 340.674 119.293 340.372 119.293 340.22L117.932 334.777C117.932 334.474 117.629 334.323 117.326 334.323H111.579C111.125 334.323 110.822 334.777 110.974 335.23L112.184 340.523C112.184 340.674 112.335 340.825 112.486 340.976C112.637 341.128 112.789 341.128 112.94 341.279C112.94 341.279 113.091 341.279 113.394 341.279Z" fill="#19185E"/>
<path d="M96.3015 341.279H101.142C101.444 341.279 101.596 341.128 101.747 340.977L101.898 340.826C102.049 340.675 102.201 340.372 102.049 340.221L100.688 334.777C100.537 334.475 100.386 334.323 100.083 334.323H94.3352C93.8814 334.323 93.5789 334.777 93.7301 335.231L95.0915 340.523C95.0915 340.675 95.2427 340.826 95.394 340.977C95.5452 341.128 95.6965 341.128 95.8478 341.279C95.999 341.279 96.1503 341.279 96.3015 341.279Z" fill="#19185E"/>
<path d="M101.596 342.639H96.9066C96.6041 342.639 96.4528 342.79 96.3016 343.093C96.3016 343.244 96.1503 343.244 96.1503 343.244C95.999 343.395 95.8478 343.698 95.9991 343.849L97.2091 348.537C97.2091 348.688 97.3604 348.839 97.5116 348.99C97.6629 349.141 97.8142 349.293 97.9654 349.444C98.1167 349.595 98.2679 349.746 98.4192 349.746H103.108C103.411 349.746 103.562 349.595 103.713 349.444C103.713 349.293 103.864 349.293 103.864 349.293C104.016 349.141 104.167 348.839 104.016 348.688L103.108 343.849C103.108 343.698 102.957 343.546 102.806 343.395C102.654 343.244 102.503 343.093 102.352 342.942C102.049 342.79 101.898 342.639 101.596 342.639Z" fill="#19185E"/>
<path d="M118.688 342.639H113.999C113.696 342.639 113.545 342.79 113.394 343.093L113.243 343.244C113.091 343.395 112.94 343.698 113.091 343.849L114.301 348.537C114.301 348.688 114.453 348.839 114.604 348.99C114.755 349.141 114.907 349.293 115.058 349.444C115.209 349.595 115.36 349.746 115.512 349.746H120.352C120.654 349.746 120.806 349.595 120.957 349.444L121.108 349.293C121.259 349.141 121.259 348.839 121.259 348.688L120.049 343.849C120.049 343.698 119.898 343.546 119.747 343.395C119.596 343.244 119.444 343.093 119.293 342.942C118.99 342.79 118.839 342.639 118.688 342.639Z" fill="#19185E"/>
<path d="M110.066 342.639H105.377C105.074 342.639 104.923 342.79 104.772 343.093L104.621 343.244C104.469 343.395 104.318 343.698 104.469 343.849L105.68 348.537C105.68 348.688 105.831 348.839 105.982 348.99C106.133 349.141 106.285 349.293 106.436 349.444C106.587 349.595 106.738 349.746 106.89 349.746H111.73C112.032 349.746 112.184 349.595 112.335 349.444C112.335 349.293 112.486 349.293 112.486 349.141C112.637 348.99 112.789 348.688 112.637 348.537L111.427 343.849C111.427 343.698 111.276 343.546 111.125 343.395C110.974 343.244 110.822 343.093 110.671 342.942C110.52 342.79 110.369 342.639 110.066 342.639Z" fill="#19185E"/>
<path d="M123.528 352.317L124.738 357.61C124.738 357.912 125.041 358.215 125.343 358.215H130.94C131.394 358.215 131.696 357.761 131.545 357.307L130.184 351.712C130.184 351.41 129.881 351.107 129.579 351.107H124.284C123.982 351.107 123.831 351.259 123.679 351.41C123.679 351.561 123.528 351.561 123.528 351.712C123.528 351.863 123.377 352.166 123.528 352.317Z" fill="#19185E"/>
<path d="M119.293 335.079L120.503 340.22C120.503 340.371 120.654 340.523 120.805 340.674C120.957 340.825 121.108 340.976 121.259 341.128C121.41 341.279 121.562 341.43 121.713 341.43H126.856C127.31 341.43 127.612 340.976 127.461 340.523L126.099 334.776C126.099 334.474 125.797 334.172 125.494 334.172H119.747C119.444 334.172 119.142 334.625 119.293 335.079Z" fill="#19185E"/>
<path d="M120.805 351.107H115.965C115.663 351.107 115.511 351.259 115.36 351.41C115.36 351.561 115.209 351.561 115.209 351.561C115.058 351.712 114.906 352.015 115.058 352.166L116.419 357.458C116.419 357.761 116.721 357.912 117.024 357.912H122.62C123.074 357.912 123.377 357.458 123.226 357.005L122.015 351.863C122.015 351.712 121.864 351.561 121.713 351.41C121.562 351.259 121.41 351.107 121.259 351.107C121.108 351.259 120.957 351.107 120.805 351.107Z" fill="#19185E"/>
<path d="M121.41 344L122.469 348.688C122.469 348.839 122.62 348.99 122.772 349.141C122.923 349.293 123.074 349.444 123.226 349.595C123.377 349.746 123.528 349.898 123.831 349.898H128.973C129.427 349.898 129.73 349.444 129.578 348.99L128.217 343.244C128.217 342.942 127.915 342.639 127.612 342.639H122.318C122.015 342.639 121.864 342.79 121.713 343.093C121.713 343.244 121.562 343.244 121.562 343.395C121.41 343.546 121.41 343.698 121.41 344Z" fill="#19185E"/>
<path d="M112.184 351.107H107.343C107.041 351.107 106.89 351.259 106.738 351.41C106.738 351.561 106.587 351.561 106.587 351.561C106.436 351.712 106.285 352.015 106.436 352.166L107.797 357.459C107.948 357.761 108.1 357.912 108.402 357.912H113.999C114.453 357.912 114.755 357.459 114.604 357.005L113.394 351.863C113.394 351.712 113.242 351.561 113.091 351.41C112.94 351.259 112.789 351.107 112.637 350.956C112.637 351.259 112.486 351.107 112.184 351.107Z" fill="#19185E"/>
<path d="M103.713 351.107H99.024C98.7215 351.107 98.5702 351.259 98.419 351.41C98.419 351.561 98.2677 351.561 98.2677 351.712C98.1165 351.863 97.9652 352.166 98.1165 352.317L99.4778 357.61C99.629 357.912 99.7803 358.063 100.083 358.063H105.679C106.133 358.063 106.436 357.61 106.284 357.156L105.074 352.015C105.074 351.863 104.923 351.712 104.772 351.561C104.621 351.41 104.469 351.259 104.318 351.107C104.167 351.259 104.016 351.107 103.713 351.107Z" fill="#19185E"/>
<path d="M122.923 364.717H102.654V365.624H122.923V364.717Z" fill="#363B9D"/>
<path d="M117.498 365.776C117.498 365.776 127.481 358.971 140.943 358.971C154.405 358.971 167.413 365.776 167.413 365.776H117.498Z" fill="#00C853"/>
<path d="M995.829 366.09C995.829 366.09 1005.81 359.285 1019.27 359.285C1032.74 359.285 1045.74 366.09 1045.74 366.09H995.829Z" fill="#00E792"/>
<path d="M186.623 358.064C182.388 358.064 179.06 354.737 179.06 350.503V339.615C179.06 339.313 179.362 339.01 179.665 339.01C179.967 339.01 180.27 339.313 180.27 339.615V350.503C180.27 353.981 183.144 357.005 186.774 357.005C187.077 357.005 187.379 357.308 187.379 357.61C187.228 357.912 186.925 358.064 186.623 358.064Z" fill="#144F33"/>
<path d="M186.623 352.771C186.32 352.771 186.018 352.469 186.018 352.166C186.018 351.864 186.32 351.561 186.623 351.561C190.102 351.561 193.127 348.688 193.127 345.059V334.171C193.127 333.869 193.429 333.566 193.732 333.566C194.034 333.566 194.337 333.869 194.337 334.171V345.059C194.186 349.444 190.707 352.771 186.623 352.771Z" fill="#144F33"/>
<path d="M186.623 366.532C186.32 366.532 186.018 366.229 186.018 365.927V335.381C186.018 335.079 186.32 334.776 186.623 334.776C186.925 334.776 187.228 335.079 187.228 335.381V365.927C187.228 366.381 186.925 366.532 186.623 366.532Z" fill="#144F33"/>
<path d="M208.552 335.051C215.999 322.961 212.234 307.126 200.141 299.68C188.049 292.235 172.209 296 164.761 308.089C157.314 320.178 161.08 336.014 173.172 343.459C185.265 350.904 201.105 347.14 208.552 335.051Z" fill="#00C853"/>
<path d="M186.623 336.742C186.32 336.742 186.018 336.44 186.018 336.137V312.85C186.018 312.547 186.32 312.245 186.623 312.245C186.925 312.245 187.228 312.547 187.228 312.85V336.137C187.228 336.44 186.925 336.742 186.623 336.742Z" fill="#144F33"/>
<path d="M186.623 329.937C186.32 329.937 186.018 329.635 186.018 329.332C186.018 329.03 186.32 328.728 186.623 328.728C190.102 328.728 193.127 325.854 193.127 322.225C193.127 321.923 193.429 321.62 193.732 321.62C194.034 321.62 194.337 321.923 194.337 322.225C194.186 326.459 190.707 329.937 186.623 329.937Z" fill="#144F33"/>
<path d="M186.623 319.05C183.144 319.05 180.421 316.328 180.421 312.85C180.421 312.547 180.723 312.245 181.026 312.245C181.329 312.245 181.631 312.547 181.631 312.85C181.631 315.723 183.9 317.991 186.774 317.991C187.076 317.991 187.379 318.294 187.379 318.596C187.228 318.747 186.925 319.05 186.623 319.05Z" fill="#144F33"/>
<path d="M225.345 350.805C221.11 350.805 217.782 347.479 217.782 343.244V332.357C217.782 332.054 218.085 331.752 218.387 331.752C218.69 331.752 218.992 332.054 218.992 332.357V343.244C218.992 346.722 221.866 349.747 225.496 349.747C225.799 349.747 226.101 350.049 226.101 350.352C225.95 350.654 225.648 350.805 225.345 350.805Z" fill="#144F33"/>
<path d="M225.345 353.225C225.042 353.225 224.74 352.922 224.74 352.62C224.74 352.317 225.042 352.015 225.345 352.015C228.824 352.015 231.849 349.142 231.849 345.513V334.625C231.849 334.323 232.152 334.02 232.454 334.02C232.757 334.02 233.059 334.323 233.059 334.625V345.513C232.908 349.898 229.429 353.225 225.345 353.225Z" fill="#144F33"/>
<path d="M225.345 366.532C225.042 366.532 224.74 366.229 224.74 365.927V335.381C224.74 335.079 225.042 334.776 225.345 334.776C225.647 334.776 225.95 335.079 225.95 335.381V365.927C225.95 366.381 225.647 366.532 225.345 366.532Z" fill="#144F33"/>
<path d="M250.908 321.62C250.908 335.835 239.412 347.327 225.194 347.327C210.975 347.327 199.48 335.835 199.48 321.62C199.48 307.406 210.975 269.45 225.194 269.45C239.412 269.45 250.908 307.406 250.908 321.62Z" fill="#039B41"/>
<path d="M225.345 336.742C225.042 336.742 224.74 336.44 224.74 336.137V285.782C224.74 285.48 225.042 285.177 225.345 285.177C225.647 285.177 225.95 285.48 225.95 285.782V336.137C225.95 336.44 225.647 336.742 225.345 336.742Z" fill="#144F33"/>
<path d="M225.345 329.937C225.042 329.937 224.74 329.635 224.74 329.332C224.74 329.03 225.042 328.728 225.345 328.728C230.942 328.728 235.631 324.191 235.631 318.445C235.631 318.142 235.933 317.84 236.236 317.84C236.538 317.84 236.841 318.142 236.841 318.445C236.689 324.796 231.547 329.937 225.345 329.937Z" fill="#144F33"/>
<path d="M225.345 301.206C221.866 301.206 219.144 298.484 219.144 295.006C219.144 294.704 219.446 294.401 219.749 294.401C220.051 294.401 220.354 294.704 220.354 295.006C220.354 297.879 222.622 300.148 225.496 300.148C225.799 300.148 226.101 300.45 226.101 300.752C226.101 301.055 225.648 301.206 225.345 301.206Z" fill="#144F33"/>
<path d="M968.327 353.981C968.024 353.981 967.722 353.678 967.722 353.376C967.722 353.074 968.024 352.771 968.327 352.771C971.201 352.771 973.469 350.503 973.469 347.63V338.859C973.469 338.557 973.772 338.254 974.074 338.254C974.377 338.254 974.679 338.557 974.679 338.859V347.63C974.528 351.108 971.654 353.981 968.327 353.981Z" fill="#144F33"/>
<path d="M968.327 355.947C964.848 355.947 962.125 353.225 962.125 349.747V340.976C962.125 340.674 962.428 340.371 962.73 340.371C963.033 340.371 963.335 340.674 963.335 340.976V349.747C963.335 352.62 965.604 354.888 968.478 354.888C968.781 354.888 969.083 355.191 969.083 355.493C969.083 355.795 968.629 355.947 968.327 355.947Z" fill="#144F33"/>
<path d="M968.327 366.532C968.024 366.532 967.722 366.229 967.722 365.927V341.279C967.722 340.976 968.024 340.674 968.327 340.674C968.629 340.674 968.932 340.976 968.932 341.279V365.927C968.78 366.381 968.629 366.532 968.327 366.532Z" fill="#144F33"/>
<path d="M947.604 330.24C947.604 341.581 956.831 350.956 968.327 350.956C979.671 350.956 989.049 341.732 989.049 330.24C989.049 318.747 979.822 288.201 968.327 288.201C956.831 288.201 947.604 318.747 947.604 330.24Z" fill="#039B41"/>
<path d="M968.327 342.488C968.024 342.488 967.722 342.186 967.722 341.883V301.206C967.722 300.904 968.024 300.601 968.327 300.601C968.629 300.601 968.932 300.904 968.932 301.206V341.883C968.78 342.186 968.629 342.488 968.327 342.488Z" fill="#144F33"/>
<path d="M968.327 337.044C963.184 337.044 958.949 332.81 958.949 327.669C958.949 327.367 959.251 327.064 959.554 327.064C959.856 327.064 960.159 327.367 960.159 327.669C960.159 332.206 963.789 335.835 968.327 335.835C968.629 335.835 968.932 336.137 968.932 336.44C968.781 336.742 968.629 337.044 968.327 337.044Z" fill="#144F33"/>
<path d="M968.327 313.908C968.024 313.908 967.722 313.606 967.722 313.303C967.722 313.001 968.024 312.698 968.327 312.698C970.595 312.698 972.259 310.884 972.259 308.767C972.259 308.464 972.562 308.162 972.864 308.162C973.167 308.162 973.469 308.464 973.469 308.767C973.469 311.64 971.049 313.908 968.327 313.908Z" fill="#144F33"/>
<path d="M400.049 342.639C399.746 342.639 399.444 342.337 399.444 342.035C399.444 341.732 399.746 341.43 400.049 341.43C402.469 341.43 404.435 339.464 404.435 337.044V329.484C404.435 329.181 404.738 328.879 405.04 328.879C405.343 328.879 405.645 329.181 405.645 329.484V337.044C405.494 340.22 403.074 342.639 400.049 342.639Z" fill="#144F33"/>
<path d="M400.049 344.303C397.023 344.303 394.603 341.883 394.603 338.859V331.298C394.603 330.996 394.906 330.693 395.208 330.693C395.511 330.693 395.813 330.996 395.813 331.298V338.859C395.813 341.279 397.78 343.244 400.2 343.244C400.502 343.244 400.805 343.547 400.805 343.849C400.502 344 400.351 344.303 400.049 344.303Z" fill="#144F33"/>
<path d="M400.049 353.527C399.746 353.527 399.444 353.225 399.444 352.922V331.752C399.444 331.449 399.746 331.147 400.049 331.147C400.351 331.147 400.654 331.449 400.654 331.752V353.073C400.502 353.376 400.351 353.527 400.049 353.527Z" fill="#144F33"/>
<path d="M382.049 321.923C382.049 331.752 390.065 339.766 399.897 339.766C409.729 339.766 417.746 331.752 417.746 321.923C417.746 312.094 409.729 285.479 399.897 285.479C390.065 285.631 382.049 312.094 382.049 321.923Z" fill="#039B41"/>
<path d="M400.049 332.659C399.746 332.659 399.444 332.357 399.444 332.054V296.972C399.444 296.669 399.746 296.367 400.049 296.367C400.351 296.367 400.654 296.669 400.654 296.972V332.205C400.502 332.508 400.351 332.659 400.049 332.659Z" fill="#144F33"/>
<path d="M400.049 327.971C395.511 327.971 391.881 324.342 391.881 319.806C391.881 319.503 392.183 319.201 392.486 319.201C392.788 319.201 393.091 319.503 393.091 319.806C393.091 323.737 396.267 326.762 400.049 326.762C400.351 326.762 400.654 327.064 400.654 327.367C400.654 327.669 400.351 327.971 400.049 327.971Z" fill="#144F33"/>
<path d="M400.049 308.011C399.746 308.011 399.444 307.708 399.444 307.406C399.444 307.103 399.746 306.801 400.049 306.801C401.864 306.801 403.376 305.289 403.376 303.474C403.376 303.172 403.679 302.869 403.981 302.869C404.284 302.869 404.586 303.172 404.586 303.474C404.435 305.894 402.469 308.011 400.049 308.011Z" fill="#144F33"/>
<path d="M585.794 352.317C585.491 352.317 585.189 352.015 585.189 351.713C585.189 351.41 585.491 351.108 585.794 351.108C587.609 351.108 589.122 349.596 589.122 347.781V341.883C589.122 341.581 589.424 341.279 589.727 341.279C590.029 341.279 590.332 341.581 590.332 341.883V347.781C590.18 350.352 588.214 352.317 585.794 352.317Z" fill="#144F33"/>
<path d="M585.794 353.678C583.374 353.678 581.407 351.713 581.407 349.293V343.396C581.407 343.093 581.71 342.791 582.012 342.791C582.315 342.791 582.618 343.093 582.618 343.396V349.293C582.618 351.108 584.13 352.62 585.945 352.62C586.248 352.62 586.55 352.922 586.55 353.225C586.399 353.376 586.096 353.678 585.794 353.678Z" fill="#144F33"/>
<path d="M585.794 360.937C585.491 360.937 585.189 360.634 585.189 360.332V343.698C585.189 343.396 585.491 343.093 585.794 343.093C586.096 343.093 586.399 343.396 586.399 343.698V360.332C586.399 360.634 586.096 360.937 585.794 360.937Z" fill="#144F33"/>
<path d="M571.878 335.986C571.878 343.698 578.231 350.049 585.945 350.049C593.659 350.049 600.012 343.698 600.012 335.986C600.012 328.274 593.659 307.557 585.945 307.557C578.08 307.557 571.878 328.274 571.878 335.986Z" fill="#039B41"/>
<path d="M585.794 344.605C585.491 344.605 585.189 344.303 585.189 344V316.479C585.189 316.177 585.491 315.874 585.794 315.874C586.096 315.874 586.399 316.177 586.399 316.479V344C586.399 344.303 586.096 344.605 585.794 344.605Z" fill="#144F33"/>
<path d="M585.794 340.825C582.164 340.825 579.29 337.952 579.29 334.323C579.29 334.02 579.592 333.718 579.895 333.718C580.197 333.718 580.5 334.02 580.5 334.323C580.5 337.347 582.92 339.615 585.794 339.615C586.096 339.615 586.399 339.918 586.399 340.22C586.399 340.674 586.096 340.825 585.794 340.825Z" fill="#144F33"/>
<path d="M585.794 325.25C585.491 325.25 585.189 324.947 585.189 324.645C585.189 324.342 585.491 324.04 585.794 324.04C587.155 324.04 588.365 322.981 588.365 321.469C588.365 321.167 588.668 320.864 588.97 320.864C589.273 320.864 589.575 321.167 589.575 321.469C589.424 323.586 587.911 325.25 585.794 325.25Z" fill="#144F33"/>
<path d="M997.217 359.727C996.915 359.727 996.612 359.425 996.612 359.122C996.612 358.82 996.915 358.517 997.217 358.517C1000.09 358.517 1002.36 356.249 1002.36 353.376V344.605C1002.36 344.303 1002.66 344 1002.96 344C1003.27 344 1003.57 344.303 1003.57 344.605V353.376C1003.42 357.005 1000.7 359.727 997.217 359.727Z" fill="#144F33"/>
<path d="M997.217 355.493C993.738 355.493 991.015 352.771 991.015 349.293V340.523C991.015 340.22 991.318 339.918 991.62 339.918C991.923 339.918 992.225 340.22 992.225 340.523V349.293C992.225 352.166 994.494 354.435 997.368 354.435C997.671 354.435 997.973 354.737 997.973 355.039C997.973 355.342 997.519 355.493 997.217 355.493Z" fill="#144F33"/>
<path d="M997.217 366.532C996.915 366.532 996.612 366.229 996.612 365.927V341.279C996.612 340.976 996.915 340.674 997.217 340.674C997.52 340.674 997.822 340.976 997.822 341.279V365.927C997.822 366.381 997.52 366.532 997.217 366.532Z" fill="#144F33"/>
<path d="M997.217 350.956C1008.66 350.956 1017.94 341.681 1017.94 330.24C1017.94 318.798 1008.66 309.523 997.217 309.523C985.772 309.523 976.494 318.798 976.494 330.24C976.494 341.681 985.772 350.956 997.217 350.956Z" fill="#00B149"/>
<path d="M997.217 342.488C996.915 342.488 996.612 342.186 996.612 341.883V323.133C996.612 322.83 996.915 322.528 997.217 322.528C997.52 322.528 997.822 322.83 997.822 323.133V341.883C997.822 342.186 997.52 342.488 997.217 342.488Z" fill="#144F33"/>
<path d="M997.217 337.045C993.738 337.045 991.015 334.323 991.015 330.845C991.015 330.542 991.318 330.24 991.62 330.24C991.923 330.24 992.225 330.542 992.225 330.845C992.225 333.718 994.494 335.986 997.368 335.986C997.671 335.986 997.973 336.288 997.973 336.591C997.822 336.742 997.519 337.045 997.217 337.045Z" fill="#144F33"/>
<path d="M997.217 328.274C996.915 328.274 996.612 327.972 996.612 327.669C996.612 327.367 996.915 327.064 997.217 327.064C999.486 327.064 1001.15 325.25 1001.15 323.133C1001.15 322.83 1001.45 322.528 1001.75 322.528C1002.06 322.528 1002.36 322.83 1002.36 323.133C1002.36 326.006 1000.09 328.274 997.217 328.274Z" fill="#144F33"/>
<path d="M943.672 361.542C941.1 361.542 939.134 359.425 939.134 357.005V350.805C939.134 350.503 939.436 350.2 939.739 350.2C940.041 350.2 940.344 350.503 940.344 350.805V357.005C940.344 358.971 941.857 360.483 943.823 360.483C944.125 360.483 944.428 360.786 944.428 361.088C944.428 361.39 943.974 361.542 943.672 361.542Z" fill="#144F33"/>
<path d="M943.672 358.366C943.369 358.366 943.067 358.064 943.067 357.761C943.067 357.459 943.369 357.156 943.672 357.156C945.638 357.156 947.151 355.644 947.151 353.678V347.478C947.151 347.176 947.453 346.874 947.756 346.874C948.058 346.874 948.361 347.176 948.361 347.478V353.678C948.21 356.4 946.243 358.366 943.672 358.366Z" fill="#144F33"/>
<path d="M943.672 366.381C943.369 366.381 943.067 366.078 943.067 365.776V348.235C943.067 347.932 943.369 347.63 943.672 347.63C943.974 347.63 944.277 347.932 944.277 348.235V365.776C944.277 366.229 943.974 366.381 943.672 366.381Z" fill="#144F33"/>
<path d="M954.142 350.677C959.931 344.89 959.931 335.507 954.142 329.72C948.354 323.933 938.968 323.933 933.179 329.72C927.391 335.507 927.39 344.89 933.179 350.677C938.968 356.465 948.354 356.464 954.142 350.677Z" fill="#00C853"/>
<path d="M943.672 349.142C943.369 349.142 943.067 348.839 943.067 348.537V335.079C943.067 334.776 943.369 334.474 943.672 334.474C943.974 334.474 944.277 334.776 944.277 335.079V348.537C944.277 348.991 943.974 349.142 943.672 349.142Z" fill="#144F33"/>
<path d="M943.672 345.21C943.369 345.21 943.067 344.908 943.067 344.605C943.067 344.303 943.369 344.001 943.672 344.001C945.638 344.001 947.151 342.488 947.151 340.523C947.151 340.22 947.453 339.918 947.756 339.918C948.058 339.918 948.361 340.22 948.361 340.523C948.21 343.244 946.243 345.21 943.672 345.21Z" fill="#144F33"/>
<path d="M943.672 339.01C941.554 339.01 939.89 337.347 939.89 335.23C939.89 334.927 940.193 334.625 940.495 334.625C940.798 334.625 941.1 334.927 941.1 335.23C941.1 336.742 942.31 337.952 943.823 337.952C944.126 337.952 944.428 338.254 944.428 338.557C944.277 338.708 943.974 339.01 943.672 339.01Z" fill="#144F33"/>
<path d="M613.323 355.493C610.601 355.493 608.332 353.225 608.332 350.503V343.698C608.332 343.396 608.634 343.093 608.937 343.093C609.239 343.093 609.542 343.396 609.542 343.698V350.503C609.542 352.62 611.206 354.283 613.323 354.283C613.626 354.283 613.928 354.586 613.928 354.888C613.928 355.191 613.626 355.493 613.323 355.493Z" fill="#144F33"/>
<path d="M613.323 352.166C613.02 352.166 612.718 351.864 612.718 351.561C612.718 351.259 613.02 350.956 613.323 350.956C615.441 350.956 617.104 349.293 617.104 347.025V340.22C617.104 339.918 617.407 339.615 617.709 339.615C618.012 339.615 618.314 339.918 618.314 340.22V347.025C618.314 349.898 616.197 352.166 613.323 352.166Z" fill="#144F33"/>
<path d="M613.323 360.937C613.02 360.937 612.718 360.634 612.718 360.332V341.127C612.718 340.825 613.02 340.523 613.323 340.523C613.625 340.523 613.928 340.825 613.928 341.127V360.332C613.928 360.634 613.625 360.937 613.323 360.937Z" fill="#144F33"/>
<path d="M629.359 334.857C630.791 326.036 624.799 317.725 615.976 316.294C607.153 314.862 598.839 320.852 597.407 329.673C595.975 338.494 601.967 346.805 610.79 348.237C619.614 349.668 627.927 343.678 629.359 334.857Z" fill="#00C853"/>
<path d="M613.323 342.035C613.02 342.035 612.718 341.732 612.718 341.43V326.762C612.718 326.459 613.02 326.157 613.323 326.157C613.625 326.157 613.928 326.459 613.928 326.762V341.43C613.928 341.732 613.625 342.035 613.323 342.035Z" fill="#144F33"/>
<path d="M613.323 337.649C613.02 337.649 612.718 337.347 612.718 337.045C612.718 336.742 613.02 336.44 613.323 336.44C615.441 336.44 617.104 334.776 617.104 332.508C617.104 332.206 617.407 331.903 617.709 331.903C618.012 331.903 618.314 332.206 618.314 332.508C618.314 335.381 616.197 337.649 613.323 337.649Z" fill="#144F33"/>
<path d="M613.323 330.845C611.054 330.845 609.239 329.03 609.239 326.762C609.239 326.459 609.542 326.157 609.844 326.157C610.147 326.157 610.449 326.459 610.449 326.762C610.449 328.425 611.811 329.786 613.475 329.786C613.777 329.786 614.08 330.089 614.08 330.391C614.08 330.693 613.626 330.845 613.323 330.845Z" fill="#144F33"/>
<path d="M751.809 354.487H749.238V365.829H751.809V354.487Z" fill="#363B9D"/>
<path d="M727.456 359.175H767.994C769.355 359.175 770.716 358.117 771.019 356.756L778.43 327.42C778.733 326.059 777.977 325 776.615 325H735.473C734.112 325 732.75 326.059 732.448 327.42L725.49 356.756C725.339 358.117 726.095 359.175 727.456 359.175Z" fill="#363B9D"/>
<path d="M725.944 359.175H766.481C767.842 359.175 769.204 358.117 769.506 356.756L776.918 327.419C777.22 326.059 776.464 325 775.103 325H733.96C732.599 325 731.238 326.059 730.935 327.419L723.977 356.756C723.826 358.117 724.582 359.175 725.944 359.175Z" fill="white"/>
<path d="M760.128 336.191H754.229C753.926 336.191 753.624 336.04 753.473 335.737C753.473 335.586 753.321 335.586 753.321 335.586C753.17 335.435 753.019 335.132 753.17 334.83L754.834 328.328C754.985 328.025 755.288 327.723 755.59 327.723H762.548C763.153 327.723 763.456 328.176 763.304 328.781L761.792 335.132C761.792 335.284 761.641 335.586 761.338 335.586C761.187 335.737 760.884 335.888 760.733 336.04C760.582 336.191 760.279 336.191 760.128 336.191Z" fill="#19185E"/>
<path d="M749.843 336.191H743.792C743.49 336.191 743.187 336.04 743.036 335.737L742.885 335.586C742.733 335.435 742.582 335.132 742.733 334.83L744.397 328.176C744.549 327.874 744.851 327.571 745.154 327.571H752.111C752.716 327.571 753.019 328.025 752.868 328.63L751.355 334.981C751.355 335.132 751.204 335.435 750.901 335.435C750.75 335.586 750.448 335.737 750.296 335.888C750.296 336.191 749.994 336.191 749.843 336.191Z" fill="#19185E"/>
<path d="M770.414 336.191H764.515C764.212 336.191 763.91 336.04 763.758 335.737C763.758 335.586 763.607 335.586 763.607 335.586C763.456 335.435 763.305 335.132 763.456 334.83L765.12 328.328C765.271 328.025 765.574 327.723 765.876 327.723H772.834C773.439 327.723 773.742 328.176 773.59 328.781L772.078 335.132C772.078 335.284 771.926 335.586 771.624 335.586C771.473 335.737 771.17 335.888 771.019 336.04C770.868 336.191 770.565 336.191 770.414 336.191Z" fill="#19185E"/>
<path d="M764.061 337.853H769.658C769.96 337.853 770.263 338.005 770.414 338.307C770.414 338.458 770.565 338.458 770.565 338.61C770.716 338.761 770.868 339.063 770.868 339.366L769.506 345.112C769.506 345.414 769.355 345.566 769.053 345.717C768.901 345.868 768.599 346.019 768.447 346.17C768.296 346.322 767.994 346.473 767.842 346.473H761.943C761.641 346.473 761.338 346.322 761.187 346.019C761.187 345.868 761.036 345.868 761.036 345.717C760.885 345.566 760.733 345.263 760.885 344.961L762.246 339.214C762.246 338.912 762.397 338.761 762.7 338.61C763.002 338.458 763.153 338.307 763.305 338.156C763.456 338.005 763.758 337.853 764.061 337.853Z" fill="#19185E"/>
<path d="M743.339 337.853H749.086C749.389 337.853 749.691 338.005 749.843 338.307C749.843 338.458 749.994 338.458 749.994 338.61C750.145 338.761 750.296 339.063 750.296 339.366L748.935 345.112C748.935 345.414 748.784 345.566 748.481 345.717C748.33 345.868 748.028 346.019 747.876 346.17C747.725 346.322 747.422 346.473 747.271 346.473H741.372C741.07 346.473 740.767 346.322 740.616 346.019C740.616 345.868 740.465 345.868 740.465 345.717C740.313 345.566 740.162 345.263 740.313 344.961L741.675 339.214C741.675 338.912 741.826 338.761 742.128 338.61C742.28 338.458 742.582 338.307 742.733 338.156C742.885 338.005 743.187 337.853 743.339 337.853Z" fill="#19185E"/>
<path d="M753.775 337.853H759.523C759.826 337.853 760.128 338.005 760.279 338.307C760.279 338.458 760.431 338.458 760.431 338.61C760.582 338.761 760.733 339.063 760.733 339.366L759.372 345.112C759.372 345.414 759.221 345.566 758.918 345.717C758.767 345.868 758.464 346.019 758.313 346.17C758.162 346.322 757.859 346.473 757.708 346.473H751.96C751.658 346.473 751.355 346.322 751.204 346.019C751.204 345.868 751.053 345.868 751.053 345.717C750.901 345.566 750.75 345.263 750.901 344.961L752.263 339.214C752.263 338.912 752.414 338.761 752.717 338.61C753.019 338.458 753.17 338.307 753.322 338.156C753.322 338.005 753.473 337.853 753.775 337.853Z" fill="#19185E"/>
<path d="M737.591 349.648L736.078 356C735.927 356.302 735.624 356.604 735.322 356.604H728.515C727.91 356.604 727.608 356.151 727.759 355.546L729.423 348.741C729.574 348.439 729.876 348.136 730.179 348.136H736.532C736.834 348.136 737.137 348.287 737.288 348.59C737.288 348.741 737.439 348.892 737.591 348.892C737.591 349.044 737.591 349.346 737.591 349.648Z" fill="#19185E"/>
<path d="M742.582 328.63L741.07 334.981C741.07 335.284 740.919 335.435 740.616 335.435C740.465 335.586 740.162 335.737 740.011 335.888C739.86 336.04 739.557 336.191 739.406 336.191H733.204C732.599 336.191 732.297 335.737 732.448 335.132L734.112 328.176C734.263 327.874 734.566 327.571 734.868 327.571H741.826C742.28 327.723 742.734 328.176 742.582 328.63Z" fill="#19185E"/>
<path d="M740.918 348.136H746.817C747.12 348.136 747.423 348.287 747.574 348.59C747.574 348.741 747.725 348.741 747.725 348.892C747.876 349.044 748.028 349.346 747.876 349.648L746.364 356C746.212 356.302 745.91 356.604 745.607 356.604H738.801C738.196 356.604 737.893 356.151 738.044 355.546L739.557 349.346C739.557 349.195 739.708 348.892 740.011 348.892C740.162 348.741 740.465 348.59 740.616 348.439C740.465 348.287 740.616 348.136 740.918 348.136Z" fill="#19185E"/>
<path d="M740.011 339.517L738.649 345.112C738.649 345.414 738.347 345.566 738.195 345.717C737.893 345.868 737.742 346.019 737.59 346.17C737.439 346.322 737.137 346.473 736.985 346.473H730.784C730.179 346.473 729.876 346.019 730.027 345.414L731.691 338.458C731.843 338.156 732.145 337.853 732.448 337.853H738.801C739.103 337.853 739.406 338.005 739.557 338.307C739.557 338.458 739.708 338.458 739.708 338.61C740.011 338.912 740.162 339.214 740.011 339.517Z" fill="#19185E"/>
<path d="M751.204 348.136H756.952C757.254 348.136 757.557 348.287 757.708 348.59C757.708 348.741 757.859 348.741 757.859 348.892C758.01 349.044 758.162 349.346 758.01 349.648L756.498 356C756.347 356.302 756.044 356.604 755.742 356.604H748.935C748.33 356.604 748.027 356.151 748.179 355.546L749.691 349.346C749.691 349.044 749.842 348.892 750.145 348.741C750.296 348.59 750.599 348.439 750.75 348.287C750.75 348.287 750.901 348.136 751.204 348.136Z" fill="#19185E"/>
<path d="M761.489 348.136H767.237C767.54 348.136 767.842 348.287 767.993 348.59C767.993 348.741 768.145 348.741 768.145 348.892C768.296 349.044 768.447 349.346 768.296 349.648L766.632 356C766.481 356.302 766.178 356.604 765.876 356.604H759.069C758.464 356.604 758.162 356.151 758.313 355.546L759.826 349.346C759.826 349.044 759.977 348.892 760.279 348.741C760.431 348.59 760.733 348.439 760.884 348.287C761.036 348.287 761.187 348.136 761.489 348.136Z" fill="#19185E"/>
<path d="M762.851 364.619H738.196V365.829H762.851V364.619Z" fill="#363B9D"/>
<path d="M630.264 357.611H569.76V358.972H630.264V357.611Z" fill="#F9E6CD"/>
<path d="M630.264 362.751H569.76V364.113H630.264V362.751Z" fill="#F9E6CD"/>
<path d="M572.634 365.625H570.971C570.668 365.625 570.366 365.473 570.366 365.171V356.249C570.366 356.098 570.366 356.098 570.517 355.947L571.424 354.737C571.576 354.435 572.181 354.435 572.332 354.737L573.239 355.947C573.239 355.947 573.391 356.098 573.391 356.249V365.171C573.239 365.473 572.937 365.625 572.634 365.625Z" fill="white"/>
<path d="M577.323 365.625H575.659C575.357 365.625 575.054 365.473 575.054 365.171V356.249C575.054 356.098 575.054 356.098 575.206 355.947L576.113 354.737C576.264 354.435 576.87 354.435 577.021 354.737L577.928 355.947C577.928 355.947 578.08 356.098 578.08 356.249V365.171C577.928 365.473 577.626 365.625 577.323 365.625Z" fill="white"/>
<path d="M582.012 365.625H580.348C580.046 365.625 579.743 365.473 579.743 365.171V356.249C579.743 356.098 579.743 356.098 579.895 355.947L580.802 354.737C580.953 354.435 581.559 354.435 581.71 354.737L582.617 355.947C582.617 355.947 582.769 356.098 582.769 356.249V365.171C582.617 365.473 582.315 365.625 582.012 365.625Z" fill="white"/>
<path d="M586.701 365.625H585.038C584.735 365.625 584.433 365.473 584.433 365.171V356.249C584.433 356.098 584.433 356.098 584.584 355.947L585.491 354.737C585.643 354.435 586.248 354.435 586.399 354.737L587.306 355.947C587.306 355.947 587.458 356.098 587.458 356.249V365.171C587.306 365.473 587.004 365.625 586.701 365.625Z" fill="white"/>
<path d="M591.391 365.625H589.727C589.424 365.625 589.122 365.473 589.122 365.171V356.249C589.122 356.098 589.122 356.098 589.273 355.947L590.181 354.737C590.332 354.435 590.937 354.435 591.088 354.737L591.996 355.947C591.996 355.947 592.147 356.098 592.147 356.249V365.171C591.844 365.473 591.693 365.625 591.391 365.625Z" fill="white"/>
<path d="M596.079 365.625H594.415C594.113 365.625 593.81 365.473 593.81 365.171V356.249C593.81 356.098 593.81 356.098 593.962 355.947L594.869 354.737C595.02 354.435 595.626 354.435 595.777 354.737L596.684 355.947C596.684 355.947 596.836 356.098 596.836 356.249V365.171C596.533 365.473 596.382 365.625 596.079 365.625Z" fill="white"/>
<path d="M600.769 365.625H598.953C598.651 365.625 598.348 365.473 598.348 365.171V356.249C598.348 356.098 598.348 356.098 598.5 355.947L599.407 354.737C599.558 354.435 600.163 354.435 600.315 354.737L601.222 355.947C601.222 355.947 601.374 356.098 601.374 356.249V365.171C601.222 365.473 601.071 365.625 600.769 365.625Z" fill="white"/>
<path d="M605.457 365.625H603.794C603.491 365.625 603.188 365.473 603.188 365.171V356.249C603.188 356.098 603.188 356.098 603.34 355.947L604.247 354.737C604.399 354.435 605.004 354.435 605.155 354.737L606.062 355.947C606.062 355.947 606.214 356.098 606.214 356.249V365.171C605.911 365.473 605.76 365.625 605.457 365.625Z" fill="white"/>
<path d="M610.146 365.625H608.482C608.18 365.625 607.877 365.473 607.877 365.171V356.249C607.877 356.098 607.877 356.098 608.029 355.947L608.936 354.737C609.087 354.435 609.693 354.435 609.844 354.737L610.751 355.947C610.751 355.947 610.903 356.098 610.903 356.249V365.171C610.6 365.473 610.449 365.625 610.146 365.625Z" fill="white"/>
<path d="M614.835 365.625H613.172C612.869 365.625 612.567 365.473 612.567 365.171V356.249C612.567 356.098 612.567 356.098 612.718 355.947L613.625 354.737C613.777 354.435 614.382 354.435 614.533 354.737L615.44 355.947C615.44 355.947 615.592 356.098 615.592 356.249V365.171C615.289 365.473 615.138 365.625 614.835 365.625Z" fill="white"/>
<path d="M619.524 365.625H617.861C617.558 365.625 617.255 365.473 617.255 365.171V356.249C617.255 356.098 617.256 356.098 617.407 355.947L618.314 354.737C618.466 354.435 619.071 354.435 619.222 354.737L620.129 355.947C620.129 355.947 620.281 356.098 620.281 356.249V365.171C619.978 365.473 619.827 365.625 619.524 365.625Z" fill="white"/>
<path d="M624.214 365.625H622.55C622.247 365.625 621.945 365.473 621.945 365.171V356.249C621.945 356.098 621.945 356.098 622.096 355.947L623.003 354.737C623.155 354.435 623.76 354.435 623.911 354.737L624.819 355.947C624.819 355.947 624.97 356.098 624.97 356.249V365.171C624.667 365.473 624.365 365.625 624.214 365.625Z" fill="white"/>
<path d="M628.751 365.625H627.087C626.785 365.625 626.482 365.473 626.482 365.171V356.249C626.482 356.098 626.482 356.098 626.634 355.947L627.541 354.737C627.692 354.435 628.298 354.435 628.449 354.737L629.356 355.947C629.356 355.947 629.508 356.098 629.508 356.249V365.171C629.356 365.473 629.054 365.625 628.751 365.625Z" fill="white"/>
<path d="M522.265 288.201H492.619C492.165 288.201 492.014 288.806 492.316 289.109L507.896 302.567C508.35 302.869 508.803 303.172 509.257 303.172H537.845C538.45 303.172 538.753 302.416 538.299 301.962L523.022 288.806C522.87 288.353 522.719 288.201 522.265 288.201Z" fill="#19185E"/>
<path d="M537.24 365.776H506.534V303.021L521.812 289.865L537.24 303.021V365.776Z" fill="white"/>
<path d="M506.686 303.021H477.644V365.625H506.686V303.021Z" fill="#DFDFDF"/>
<path d="M493.224 288.201H522.417C522.87 288.201 523.022 288.806 522.719 289.109L507.139 302.567C506.686 302.869 506.232 303.172 505.778 303.172H477.19C476.585 303.172 476.283 302.416 476.736 301.962L492.014 288.806C492.316 288.353 492.77 288.201 493.224 288.201Z" fill="#19185E"/>
<path d="M529.223 339.615H515.459V365.624H529.223V339.615Z" fill="#363B9D"/>
<path d="M488.384 308.011H482.636V317.537H488.384V308.011Z" fill="#363B9D"/>
<path d="M500.03 308.011H494.283V317.537H500.03V308.011Z" fill="#363B9D"/>
<path d="M518.484 308.011H511.829V317.537H518.484V308.011Z" fill="#363B9D"/>
<path d="M531.946 308.011H525.29V317.537H531.946V308.011Z" fill="#363B9D"/>
<path d="M518.484 325.098H511.829V334.625H518.484V325.098Z" fill="#363B9D"/>
<path d="M531.946 325.098H525.29V334.625H531.946V325.098Z" fill="#363B9D"/>
<path d="M488.384 325.098H482.636V334.625H488.384V325.098Z" fill="#363B9D"/>
<path d="M500.03 325.098H494.283V334.625H500.03V325.098Z" fill="#363B9D"/>
<path d="M488.384 342.186H482.636V351.712H488.384V342.186Z" fill="#363B9D"/>
<path d="M500.03 342.186H494.283V351.712H500.03V342.186Z" fill="#363B9D"/>
<path d="M525.744 301.056C525.593 298.938 523.929 297.274 521.811 297.274C519.694 297.274 518.03 298.938 517.879 301.056H525.744Z" fill="#363B9D"/>
<path d="M511.375 365.776C487.778 357.61 466.148 361.844 440.586 356.551C416.535 351.259 402.015 347.327 380.687 347.327C348.015 347.327 333.646 353.981 306.873 365.776C306.873 365.776 504.87 365.927 511.375 365.776Z" fill="#00C853"/>
<path d="M462.972 356.4H460.855V365.776H462.972V356.4Z" fill="#363B9D"/>
<path d="M480.972 360.332H447.392C446.334 360.332 445.123 359.425 444.972 358.366L438.771 334.171C438.468 333.113 439.224 332.206 440.283 332.206H474.316C475.375 332.206 476.585 333.113 476.736 334.171L482.484 358.366C482.787 359.425 482.031 360.332 480.972 360.332Z" fill="#363B9D"/>
<path d="M482.182 360.332H448.603C447.544 360.332 446.334 359.425 446.183 358.366L439.981 334.171C439.678 333.113 440.435 332.206 441.494 332.206H475.375C476.434 332.206 477.644 333.113 477.796 334.171L483.543 358.366C483.997 359.425 483.241 360.332 482.182 360.332Z" fill="white"/>
<path d="M454.048 341.279H458.888C459.191 341.279 459.342 341.128 459.493 340.977L459.645 340.825C459.796 340.674 459.947 340.372 459.796 340.221L458.435 334.777C458.435 334.474 458.132 334.323 457.83 334.323H452.082C451.628 334.323 451.326 334.777 451.477 335.23L452.838 340.523C452.838 340.674 452.989 340.825 453.141 340.977C453.292 341.128 453.443 341.128 453.594 341.279C453.594 341.279 453.746 341.279 454.048 341.279Z" fill="#19185E"/>
<path d="M462.518 341.279H467.51C467.812 341.279 467.964 341.128 468.115 340.977C468.115 340.977 468.115 340.825 468.266 340.825C468.417 340.674 468.417 340.372 468.417 340.221L467.056 334.777C467.056 334.474 466.754 334.323 466.451 334.323H460.703C460.25 334.323 459.947 334.777 460.098 335.23L461.308 340.523C461.308 340.674 461.46 340.825 461.611 340.977C461.762 341.128 461.913 341.128 462.065 341.279C462.065 341.279 462.216 341.279 462.518 341.279Z" fill="#19185E"/>
<path d="M445.426 341.28H450.266C450.569 341.28 450.72 341.128 450.872 340.977L451.023 340.826C451.174 340.675 451.325 340.372 451.174 340.221L449.813 334.777C449.661 334.475 449.51 334.324 449.208 334.324H443.46C443.006 334.324 442.704 334.777 442.855 335.231L444.216 340.524C444.216 340.675 444.367 340.826 444.519 340.977C444.67 341.128 444.821 341.128 444.972 341.28C445.124 341.28 445.275 341.28 445.426 341.28Z" fill="#19185E"/>
<path d="M450.72 342.639H446.031C445.729 342.639 445.577 342.791 445.426 343.093C445.426 343.244 445.275 343.244 445.275 343.244C445.124 343.396 444.972 343.698 445.124 343.849L446.334 348.537C446.334 348.688 446.485 348.839 446.636 348.991C446.788 349.142 446.939 349.293 447.09 349.444C447.241 349.595 447.393 349.747 447.544 349.747H452.233C452.535 349.747 452.687 349.595 452.838 349.444C452.838 349.293 452.989 349.293 452.989 349.293C453.14 349.142 453.292 348.839 453.14 348.688L452.233 343.849C452.233 343.698 452.082 343.547 451.93 343.395C451.779 343.244 451.628 343.093 451.477 342.942C451.174 342.791 451.023 342.639 450.72 342.639Z" fill="#19185E"/>
<path d="M467.813 342.639H463.124C462.821 342.639 462.67 342.791 462.519 343.093L462.367 343.244C462.216 343.396 462.065 343.698 462.216 343.849L463.426 348.537C463.426 348.688 463.577 348.839 463.729 348.991C463.88 349.142 464.031 349.293 464.182 349.444C464.334 349.595 464.485 349.747 464.636 349.747H469.476C469.779 349.747 469.93 349.595 470.081 349.444L470.233 349.293C470.384 349.142 470.384 348.839 470.384 348.688L469.174 343.849C469.174 343.698 469.023 343.547 468.871 343.395C468.72 343.244 468.569 343.093 468.418 342.942C468.115 342.791 467.964 342.639 467.813 342.639Z" fill="#19185E"/>
<path d="M459.191 342.639H454.502C454.199 342.639 454.048 342.791 453.897 343.093L453.745 343.244C453.594 343.396 453.443 343.698 453.594 343.849L454.804 348.537C454.804 348.688 454.955 348.839 455.107 348.991C455.258 349.142 455.409 349.293 455.56 349.444C455.712 349.595 455.863 349.747 456.014 349.747H460.854C461.157 349.747 461.308 349.595 461.46 349.444C461.46 349.293 461.611 349.293 461.611 349.142C461.762 348.991 461.913 348.688 461.762 348.537L460.552 343.849C460.552 343.698 460.401 343.547 460.249 343.395C460.098 343.244 459.947 343.093 459.796 342.942C459.644 342.791 459.493 342.639 459.191 342.639Z" fill="#19185E"/>
<path d="M472.653 352.317L473.863 357.61C473.863 357.912 474.165 358.215 474.468 358.215H480.064C480.518 358.215 480.821 357.761 480.67 357.307L479.308 351.712C479.308 351.41 479.006 351.108 478.703 351.108H473.409C473.107 351.108 472.955 351.259 472.804 351.41C472.804 351.561 472.653 351.561 472.653 351.712C472.653 351.864 472.502 352.166 472.653 352.317Z" fill="#19185E"/>
<path d="M468.417 335.079L469.628 340.221C469.628 340.372 469.779 340.523 469.93 340.674C470.081 340.825 470.233 340.977 470.384 341.128C470.535 341.279 470.686 341.43 470.838 341.43H475.98C476.434 341.43 476.737 340.977 476.585 340.523L475.224 334.777C475.224 334.474 474.922 334.172 474.619 334.172H468.871C468.569 334.172 468.266 334.625 468.417 335.079Z" fill="#19185E"/>
<path d="M469.93 351.108H465.09C464.787 351.108 464.636 351.259 464.485 351.41C464.485 351.561 464.333 351.561 464.333 351.561C464.182 351.712 464.031 352.015 464.182 352.166L465.544 357.459C465.544 357.761 465.846 357.912 466.149 357.912H471.745C472.199 357.912 472.501 357.459 472.35 357.005L471.14 351.864C471.14 351.712 470.989 351.561 470.838 351.41C470.686 351.259 470.535 351.108 470.384 351.108C470.233 351.259 470.081 351.108 469.93 351.108Z" fill="#19185E"/>
<path d="M470.535 344L471.594 348.688C471.594 348.839 471.745 348.991 471.896 349.142C472.048 349.293 472.199 349.444 472.35 349.595C472.501 349.747 472.653 349.898 472.955 349.898H478.098C478.552 349.898 478.854 349.444 478.703 348.991L477.342 343.244C477.342 342.942 477.039 342.639 476.737 342.639H471.443C471.14 342.639 470.989 342.791 470.838 343.093C470.838 343.244 470.686 343.244 470.686 343.395C470.535 343.547 470.535 343.698 470.535 344Z" fill="#19185E"/>
<path d="M461.308 351.108H456.468C456.165 351.108 456.014 351.259 455.863 351.41C455.863 351.561 455.712 351.561 455.712 351.561C455.56 351.713 455.409 352.015 455.56 352.166L456.922 357.459C457.073 357.761 457.224 357.912 457.527 357.912H463.123C463.577 357.912 463.88 357.459 463.728 357.005L462.518 351.864C462.518 351.713 462.367 351.561 462.216 351.41C462.065 351.259 461.913 351.108 461.762 350.956C461.762 351.259 461.611 351.108 461.308 351.108Z" fill="#19185E"/>
<path d="M452.838 351.108H448.149C447.846 351.108 447.695 351.259 447.544 351.41C447.544 351.561 447.392 351.561 447.392 351.712C447.241 351.864 447.09 352.166 447.241 352.317L448.602 357.61C448.754 357.912 448.905 358.064 449.207 358.064H454.804C455.258 358.064 455.56 357.61 455.409 357.156L454.199 352.015C454.199 351.864 454.048 351.712 453.896 351.561C453.745 351.41 453.594 351.259 453.443 351.108C453.291 351.259 453.14 351.108 452.838 351.108Z" fill="#19185E"/>
<path d="M472.048 364.717H451.779V365.625H472.048V364.717Z" fill="#363B9D"/>
<path d="M807.085 355.948H774.716V357.46H807.085V355.948Z" fill="#F9E6CD"/>
<path d="M807.085 362.147H774.716V363.659H807.085V362.147Z" fill="#F9E6CD"/>
<path d="M777.59 365.625H775.926C775.623 365.625 775.321 365.322 775.321 365.02V354.132C775.321 353.981 775.321 353.981 775.472 353.83L776.379 352.469C776.531 352.166 777.136 352.166 777.287 352.469L778.195 353.83C778.195 353.981 778.346 353.981 778.346 354.132V365.02C778.195 365.322 777.892 365.625 777.59 365.625Z" fill="white"/>
<path d="M782.279 365.625H780.615C780.312 365.625 780.01 365.322 780.01 365.02V354.132C780.01 353.981 780.01 353.981 780.161 353.83L781.069 352.469C781.22 352.166 781.825 352.166 781.976 352.469L782.884 353.83C782.884 353.981 783.035 353.981 783.035 354.132V365.02C782.884 365.322 782.581 365.625 782.279 365.625Z" fill="white"/>
<path d="M786.968 365.625H785.304C785.001 365.625 784.699 365.322 784.699 365.02V354.132C784.699 353.981 784.699 353.981 784.85 353.83L785.758 352.469C785.909 352.166 786.514 352.166 786.665 352.469L787.573 353.83C787.573 353.981 787.724 353.981 787.724 354.132V365.02C787.573 365.322 787.27 365.625 786.968 365.625Z" fill="white"/>
<path d="M791.657 365.625H789.993C789.69 365.625 789.388 365.322 789.388 365.02V354.132C789.388 353.981 789.388 353.981 789.539 353.83L790.447 352.469C790.598 352.166 791.203 352.166 791.354 352.469L792.262 353.83C792.262 353.981 792.413 353.981 792.413 354.132V365.02C792.262 365.322 791.959 365.625 791.657 365.625Z" fill="white"/>
<path d="M796.346 365.625H794.682C794.379 365.625 794.077 365.322 794.077 365.02V354.132C794.077 353.981 794.077 353.981 794.228 353.83L795.136 352.469C795.287 352.166 795.892 352.166 796.043 352.469L796.951 353.83C796.951 353.981 797.102 353.981 797.102 354.132V365.02C796.951 365.322 796.648 365.625 796.346 365.625Z" fill="white"/>
<path d="M801.035 365.625H799.371C799.068 365.625 798.766 365.322 798.766 365.02V354.132C798.766 353.981 798.766 353.981 798.917 353.83L799.824 352.469C799.976 352.166 800.581 352.166 800.732 352.469L801.64 353.83C801.64 353.981 801.791 353.981 801.791 354.132V365.02C801.488 365.322 801.337 365.625 801.035 365.625Z" fill="white"/>
<path d="M805.724 365.625H804.06C803.757 365.625 803.455 365.322 803.455 365.02V354.132C803.455 353.981 803.455 353.981 803.606 353.83L804.514 352.469C804.665 352.166 805.27 352.166 805.421 352.469L806.329 353.83C806.329 353.981 806.48 353.981 806.48 354.132V365.02C806.177 365.322 806.026 365.625 805.724 365.625Z" fill="white"/>
<path d="M812.833 312.094H890.428C890.882 312.094 891.034 312.699 890.731 313.001L875.151 326.308C874.698 326.611 874.244 326.762 873.79 326.762H797.102C796.497 326.762 796.194 326.006 796.648 325.552L811.925 312.547C812.228 312.245 812.228 312.094 812.833 312.094Z" fill="#19185E"/>
<path d="M797.858 366.23H828.564V326.762L813.286 313.606L797.858 326.762V366.23Z" fill="white"/>
<path d="M828.491 366.182H905.482V326.714H828.491V366.182Z" fill="#DFDFDF"/>
<path d="M889.823 312.094H812.682C812.228 312.094 812.077 312.699 812.379 313.001L827.959 326.308C828.413 326.611 828.866 326.762 829.32 326.762H906.008C906.613 326.762 906.916 326.006 906.462 325.552L891.185 312.547C890.882 312.245 890.277 312.094 889.823 312.094Z" fill="#19185E"/>
<path d="M870.462 314.514C869.857 314.06 869.101 313.758 868.345 313.758H866.227H841.118C840.664 313.758 840.513 314.362 840.816 314.665L851.706 324.192C852.311 324.645 853.068 324.948 853.824 324.948H880.748C881.353 324.948 881.656 324.192 881.202 323.889L870.462 314.514Z" fill="white"/>
<path d="M849.437 316.935L846.866 314.817C846.715 314.666 846.563 314.666 846.412 314.666H845.958H842.631C842.479 314.666 842.479 314.817 842.631 314.817L845.202 317.086C845.353 317.237 845.505 317.237 845.656 317.237H846.11H849.437C849.437 317.086 849.437 316.935 849.437 316.935Z" fill="#19185E"/>
<path d="M850.647 316.934C850.798 317.085 850.95 317.085 851.101 317.085H851.555H854.882C855.034 317.085 855.034 316.934 855.034 316.783L852.462 314.665C852.311 314.514 852.16 314.514 852.009 314.514H851.555H848.227C848.076 314.514 848.076 314.665 848.227 314.665L850.647 316.934Z" fill="#19185E"/>
<path d="M856.244 316.934C856.395 317.085 856.546 317.085 856.698 317.085H857.151H860.479C860.63 317.085 860.63 316.934 860.63 316.783L858.059 314.665C857.908 314.514 857.756 314.514 857.605 314.514H857.151H853.824C853.673 314.514 853.673 314.665 853.824 314.665L856.244 316.934Z" fill="#19185E"/>
<path d="M861.84 316.934C861.992 317.085 862.143 317.085 862.294 317.085H862.748H866.076C866.227 317.085 866.227 316.934 866.227 316.783L863.656 314.665C863.504 314.514 863.353 314.514 863.202 314.514H862.748H859.42C859.269 314.514 859.269 314.665 859.42 314.665L861.84 316.934Z" fill="#19185E"/>
<path d="M867.437 316.934C867.588 317.085 867.74 317.085 867.891 317.085H868.345H871.672C871.824 317.085 871.824 316.934 871.824 316.783L869.252 314.665C869.101 314.514 868.95 314.514 868.798 314.514H868.345H865.017C864.866 314.514 864.866 314.665 865.017 314.665L867.437 316.934Z" fill="#19185E"/>
<path d="M853.37 320.26L850.799 318.143C850.647 317.991 850.496 317.991 850.345 317.991H849.891H846.563C846.412 317.991 846.412 318.143 846.563 318.143L849.135 320.411C849.286 320.563 849.437 320.563 849.589 320.563H850.042H853.37C853.37 320.411 853.521 320.26 853.37 320.26Z" fill="#19185E"/>
<path d="M855.941 317.991H855.488H852.16C852.009 317.991 852.009 318.143 852.16 318.143L854.731 320.411C854.883 320.563 855.034 320.563 855.185 320.563H855.639H858.967C859.118 320.563 859.118 320.411 859.118 320.26L856.546 318.143C856.244 317.991 856.093 317.991 855.941 317.991Z" fill="#19185E"/>
<path d="M860.63 320.411H861.084H864.412C864.563 320.411 864.563 320.26 864.563 320.109L861.992 317.991C861.841 317.84 861.689 317.84 861.538 317.84H861.084H857.757C857.605 317.84 857.605 317.991 857.757 317.991L860.328 320.26C860.328 320.411 860.479 320.411 860.63 320.411Z" fill="#19185E"/>
<path d="M866.227 320.411H866.681H870.008C870.16 320.411 870.16 320.26 870.16 320.109L867.588 317.991C867.437 317.84 867.286 317.84 867.134 317.84H866.681H863.353C863.202 317.84 863.202 317.991 863.353 317.991L865.924 320.26C865.924 320.411 866.076 320.411 866.227 320.411Z" fill="#19185E"/>
<path d="M868.798 318.143L871.37 320.411C871.521 320.563 871.672 320.563 871.823 320.563H872.277H875.605C875.756 320.563 875.756 320.411 875.756 320.26L873.185 318.143C873.033 317.991 872.882 317.991 872.731 317.991H872.277H868.949C868.798 317.991 868.798 317.991 868.798 318.143Z" fill="#19185E"/>
<path d="M854.731 321.469C854.58 321.318 854.429 321.318 854.277 321.318H853.824H850.496C850.345 321.318 850.345 321.469 850.496 321.469L853.067 323.738C853.219 323.889 853.37 323.889 853.521 323.889H853.975H857.303C857.454 323.889 857.454 323.738 857.454 323.587L854.731 321.469Z" fill="#19185E"/>
<path d="M860.328 321.469C860.177 321.318 860.025 321.318 859.874 321.318H859.42H856.093C855.941 321.318 855.941 321.469 856.093 321.469L858.664 323.738C858.815 323.889 858.966 323.889 859.118 323.889H859.572H862.899C863.05 323.889 863.05 323.738 863.05 323.587L860.328 321.469Z" fill="#19185E"/>
<path d="M865.925 321.469C865.773 321.318 865.622 321.318 865.471 321.318H865.017H861.689C861.538 321.318 861.538 321.469 861.689 321.469L864.261 323.738C864.412 323.889 864.563 323.889 864.715 323.889H865.168H868.496C868.647 323.889 868.647 323.738 868.647 323.587L865.925 321.469Z" fill="#19185E"/>
<path d="M871.521 321.469C871.37 321.318 871.218 321.318 871.067 321.318H870.613H867.286C867.134 321.318 867.134 321.469 867.286 321.469L869.857 323.738C870.008 323.889 870.16 323.889 870.311 323.889H870.765H874.092C874.244 323.889 874.244 323.738 874.244 323.587L871.521 321.469Z" fill="#19185E"/>
<path d="M879.689 323.587L877.118 321.469C876.966 321.318 876.815 321.318 876.664 321.318H876.21H872.882C872.731 321.318 872.731 321.469 872.882 321.469L875.454 323.738C875.605 323.889 875.756 323.889 875.907 323.889H876.361H879.689C879.689 323.889 879.689 323.738 879.689 323.587Z" fill="#19185E"/>
<path d="M820.093 339.918H806.329V365.625H820.093V339.918Z" fill="#363B9D"/>
<path d="M842.631 333.567H834.16V337.649H842.631V333.567Z" fill="#363B9D"/>
<path d="M857 333.567H848.53V337.649H857V333.567Z" fill="#363B9D"/>
<path d="M871.218 333.567H862.748V337.649H871.218V333.567Z" fill="#363B9D"/>
<path d="M885.588 333.567H877.118V337.649H885.588V333.567Z" fill="#363B9D"/>
<path d="M899.958 333.567H891.487V337.649H899.958V333.567Z" fill="#363B9D"/>
<path d="M926.579 355.948H838.093V357.46H926.579V355.948Z" fill="#F9E6CD"/>
<path d="M926.579 362.147H838.093V363.659H926.579V362.147Z" fill="#F9E6CD"/>
<path d="M840.967 365.625H839.303C839.001 365.625 838.698 365.322 838.698 365.02V354.132C838.698 353.981 838.698 353.981 838.849 353.83L839.757 352.469C839.908 352.166 840.513 352.166 840.665 352.469L841.572 353.83C841.572 353.981 841.723 353.981 841.723 354.132V365.02C841.572 365.322 841.27 365.625 840.967 365.625Z" fill="white"/>
<path d="M845.656 365.625H843.992C843.69 365.625 843.387 365.322 843.387 365.02V354.132C843.387 353.981 843.387 353.981 843.539 353.83L844.446 352.469C844.597 352.166 845.202 352.166 845.354 352.469L846.261 353.83C846.261 353.981 846.412 353.981 846.412 354.132V365.02C846.261 365.322 845.959 365.625 845.656 365.625Z" fill="white"/>
<path d="M850.345 365.625H848.681C848.379 365.625 848.076 365.322 848.076 365.02V354.132C848.076 353.981 848.076 353.981 848.228 353.83L849.135 352.469C849.286 352.166 849.891 352.166 850.043 352.469L850.95 353.83C850.95 353.981 851.101 353.981 851.101 354.132V365.02C850.95 365.322 850.648 365.625 850.345 365.625Z" fill="white"/>
<path d="M855.034 365.625H853.37C853.068 365.625 852.765 365.322 852.765 365.02V354.132C852.765 353.981 852.765 353.981 852.916 353.83L853.824 352.469C853.975 352.166 854.58 352.166 854.732 352.469L855.639 353.83C855.639 353.981 855.79 353.981 855.79 354.132V365.02C855.639 365.322 855.337 365.625 855.034 365.625Z" fill="white"/>
<path d="M859.723 365.625H858.059C857.757 365.625 857.454 365.322 857.454 365.02V354.132C857.454 353.981 857.454 353.981 857.606 353.83L858.513 352.469C858.664 352.166 859.27 352.166 859.421 352.469L860.328 353.83C860.328 353.981 860.48 353.981 860.48 354.132V365.02C860.177 365.322 860.026 365.625 859.723 365.625Z" fill="white"/>
<path d="M864.412 365.625H862.748C862.446 365.625 862.143 365.322 862.143 365.02V354.132C862.143 353.981 862.143 353.981 862.294 353.83L863.202 352.469C863.353 352.166 863.958 352.166 864.109 352.469L865.017 353.83C865.017 353.981 865.168 353.981 865.168 354.132V365.02C864.866 365.322 864.714 365.625 864.412 365.625Z" fill="white"/>
<path d="M869.101 365.625H867.437C867.135 365.625 866.832 365.322 866.832 365.02V354.132C866.832 353.981 866.832 353.981 866.984 353.83L867.891 352.469C868.042 352.166 868.647 352.166 868.799 352.469L869.706 353.83C869.706 353.981 869.857 353.981 869.857 354.132V365.02C869.555 365.322 869.404 365.625 869.101 365.625Z" fill="white"/>
<path d="M873.79 365.625H872.126C871.824 365.625 871.521 365.322 871.521 365.02V354.132C871.521 353.981 871.521 353.981 871.673 353.83L872.58 352.469C872.731 352.166 873.336 352.166 873.488 352.469L874.395 353.83C874.395 353.981 874.547 353.981 874.547 354.132V365.02C874.244 365.322 874.093 365.625 873.79 365.625Z" fill="white"/>
<path d="M878.479 365.625H876.815C876.513 365.625 876.21 365.322 876.21 365.02V354.132C876.21 353.981 876.21 353.981 876.362 353.83L877.269 352.469C877.42 352.166 878.025 352.166 878.177 352.469L879.084 353.83C879.084 353.981 879.236 353.981 879.236 354.132V365.02C878.933 365.322 878.782 365.625 878.479 365.625Z" fill="white"/>
<path d="M883.168 365.625H881.504C881.202 365.625 880.899 365.322 880.899 365.02V354.132C880.899 353.981 880.899 353.981 881.05 353.83L881.958 352.469C882.109 352.166 882.714 352.166 882.866 352.469L883.773 353.83C883.773 353.981 883.924 353.981 883.924 354.132V365.02C883.622 365.322 883.471 365.625 883.168 365.625Z" fill="white"/>
<path d="M887.857 365.625H886.193C885.891 365.625 885.588 365.322 885.588 365.02V354.132C885.588 353.981 885.588 353.981 885.739 353.83L886.647 352.469C886.798 352.166 887.403 352.166 887.555 352.469L888.462 353.83C888.462 353.981 888.613 353.981 888.613 354.132V365.02C888.311 365.322 888.16 365.625 887.857 365.625Z" fill="white"/>
<path d="M892.546 365.625H890.882C890.58 365.625 890.277 365.322 890.277 365.02V354.132C890.277 353.981 890.277 353.981 890.429 353.83L891.336 352.469C891.487 352.166 892.093 352.166 892.244 352.469L893.151 353.83C893.151 353.981 893.302 353.981 893.302 354.132V365.02C893 365.322 892.697 365.625 892.546 365.625Z" fill="white"/>
<path d="M897.084 365.625H895.42C895.118 365.625 894.815 365.322 894.815 365.02V354.132C894.815 353.981 894.815 353.981 894.966 353.83L895.874 352.469C896.025 352.166 896.63 352.166 896.782 352.469L897.689 353.83C897.689 353.981 897.84 353.981 897.84 354.132V365.02C897.689 365.322 897.387 365.625 897.084 365.625Z" fill="white"/>
<path d="M901.773 365.625H900.109C899.807 365.625 899.504 365.322 899.504 365.02V354.132C899.504 353.981 899.504 353.981 899.655 353.83L900.563 352.469C900.714 352.166 901.319 352.166 901.471 352.469L902.378 353.83C902.378 353.981 902.529 353.981 902.529 354.132V365.02C902.378 365.322 902.076 365.625 901.773 365.625Z" fill="white"/>
<path d="M906.462 365.625H904.798C904.495 365.625 904.193 365.322 904.193 365.02V354.132C904.193 353.981 904.193 353.981 904.344 353.83L905.252 352.469C905.403 352.166 906.008 352.166 906.159 352.469L907.067 353.83C907.067 353.981 907.218 353.981 907.218 354.132V365.02C907.067 365.322 906.764 365.625 906.462 365.625Z" fill="white"/>
<path d="M911.151 365.625H909.487C909.185 365.625 908.882 365.322 908.882 365.02V354.132C908.882 353.981 908.882 353.981 909.033 353.83L909.941 352.469C910.092 352.166 910.697 352.166 910.848 352.469L911.756 353.83C911.756 353.981 911.907 353.981 911.907 354.132V365.02C911.756 365.322 911.453 365.625 911.151 365.625Z" fill="white"/>
<path d="M911.151 365.625H909.487C909.185 365.625 908.882 365.322 908.882 365.02V354.132C908.882 353.981 908.882 353.981 909.033 353.83L909.941 352.469C910.092 352.166 910.697 352.166 910.848 352.469L911.756 353.83C911.756 353.981 911.907 353.981 911.907 354.132V365.02C911.756 365.322 911.453 365.625 911.151 365.625Z" fill="white"/>
<path d="M915.84 365.625H914.176C913.874 365.625 913.571 365.322 913.571 365.02V354.132C913.571 353.981 913.571 353.981 913.722 353.83L914.63 352.469C914.781 352.166 915.386 352.166 915.537 352.469L916.445 353.83C916.445 353.981 916.596 353.981 916.596 354.132V365.02C916.445 365.322 916.142 365.625 915.84 365.625Z" fill="white"/>
<path d="M920.529 365.625H918.865C918.563 365.625 918.26 365.322 918.26 365.02V354.132C918.26 353.981 918.26 353.981 918.412 353.83L919.319 352.469C919.47 352.166 920.075 352.166 920.227 352.469L921.134 353.83C921.134 353.981 921.285 353.981 921.285 354.132V365.02C921.134 365.322 920.832 365.625 920.529 365.625Z" fill="white"/>
<path d="M925.218 365.625H923.554C923.252 365.625 922.949 365.322 922.949 365.02V354.132C922.949 353.981 922.949 353.981 923.1 353.83L924.008 352.469C924.159 352.166 924.764 352.166 924.915 352.469L925.823 353.83C925.823 353.981 925.974 353.981 925.974 354.132V365.02C925.823 365.322 925.521 365.625 925.218 365.625Z" fill="white"/>
<path d="M1057.34 375H67.5016C64.7588 375 62.5 372.883 62.5 370.312C62.5 367.742 64.7588 365.624 67.5016 365.624H1057.5C1060.24 365.624 1062.5 367.742 1062.5 370.312C1062.34 372.883 1060.08 375 1057.34 375Z" fill="#00A056"/>
<path d="M367.528 186.735C367.528 186.432 367.528 186.13 367.528 185.827C367.528 180.686 371.763 176.452 376.906 176.452C379.931 176.452 382.654 177.964 384.318 180.232C384.318 180.081 384.318 179.93 384.318 179.779C384.318 171.311 391.275 164.355 399.746 164.355C404.132 164.355 408.216 166.169 410.939 169.194C412.754 158.76 421.83 150.896 432.72 150.896C444.821 150.896 454.653 160.574 454.804 172.672C457.224 170.101 460.703 168.437 464.636 168.437C472.048 168.437 478.098 174.486 478.098 181.896C478.098 182.198 478.098 182.501 478.098 182.803C479.459 180.988 481.728 179.93 484.148 179.93C488.232 179.93 491.56 182.954 491.862 187.037H367.528V186.735Z" fill="#E4F8EE"/>
<path d="M195.365 139.518C197.181 139.518 198.844 140.123 200.206 141.182C201.567 136.343 205.954 132.865 211.096 132.865C211.853 132.865 212.609 133.016 213.365 133.167C213.97 121.977 223.197 113.055 234.693 113.055C240.289 113.055 245.281 115.172 249.062 118.65C252.39 106.099 263.886 96.875 277.499 96.875C293.835 96.875 306.994 110.031 306.994 126.362C306.994 126.816 306.994 127.27 306.994 127.723C309.868 125.304 313.498 123.792 317.431 123.792C326.204 123.792 333.464 130.899 333.464 139.821C333.464 139.972 333.464 139.972 333.464 140.123C334.069 139.972 334.826 139.821 335.582 139.821C339.817 139.821 343.145 142.996 343.599 147.079H187.5C187.803 142.845 191.281 139.518 195.365 139.518Z" fill="#E4F8EE"/>
<path d="M444.324 113.697C446.895 113.697 449.315 115.058 450.677 117.024C451.887 111.428 456.727 107.346 462.626 107.346C468.676 107.346 473.819 111.882 474.575 117.628C475.937 116.57 477.601 115.965 479.416 115.965C482.895 115.965 485.92 118.233 486.827 121.409H452.038H450.525H436.458C436.61 117.175 440.089 113.697 444.324 113.697Z" fill="#E4F8EE"/>
<path d="M897.449 178.226C900.02 178.226 902.44 179.587 903.802 181.553C905.012 175.958 909.852 171.875 915.751 171.875C921.801 171.875 926.944 176.412 927.7 182.158C929.062 181.099 930.726 180.494 932.541 180.494C936.02 180.494 939.045 182.763 939.952 185.938H905.163H903.65H889.583C889.735 181.704 893.214 178.226 897.449 178.226Z" fill="#E4F8EE"/>
<path d="M937.294 117.137C943.356 117.137 949.062 120.363 952.271 125.022C955.124 111.761 966.535 102.083 980.443 102.083C994.707 102.083 1006.83 112.836 1008.61 126.456C1011.82 123.947 1015.75 122.513 1020.03 122.513C1028.23 122.513 1035.36 127.89 1037.5 135.417H955.48H951.914H918.75C919.107 125.381 927.309 117.137 937.294 117.137Z" fill="#E4F8EE"/>
<path d="M323.49 159.476C326.062 159.476 328.482 160.837 329.843 162.803C331.053 157.208 335.894 153.125 341.793 153.125C347.843 153.125 352.986 157.662 353.742 163.408C355.103 162.349 356.767 161.744 358.582 161.744C362.061 161.744 365.087 164.013 365.994 167.188H331.205H329.692H315.625C315.776 162.954 319.255 159.476 323.49 159.476Z" fill="#E4F8EE"/>
<path d="M835.99 199.059C838.562 199.059 840.982 200.42 842.343 202.386C843.553 196.791 848.394 192.708 854.293 192.708C860.343 192.708 865.486 197.245 866.242 202.991C867.603 201.933 869.267 201.328 871.082 201.328C874.561 201.328 877.587 203.596 878.494 206.772H843.705H842.192H828.125C828.276 202.537 831.755 199.059 835.99 199.059Z" fill="#E4F8EE"/>
<path d="M652.197 154.828C650.987 151.199 647.659 148.628 643.575 148.628C641.457 148.628 639.491 149.384 637.978 150.594C636.919 143.94 631.172 138.799 624.214 138.799C616.5 138.799 610.298 144.999 610.298 152.711C610.298 153.467 610.298 154.223 610.449 154.979H652.197V154.828Z" fill="#E4F8EE"/>
<path d="M580.5 154.828C582.164 150.291 586.399 146.965 591.542 146.965C596.685 146.965 600.92 150.291 602.584 154.828H580.5Z" fill="#E4F8EE"/>
<path d="M895.028 132.816C894.423 128.279 890.49 124.801 885.801 124.801C883.683 124.801 881.868 125.406 880.356 126.616C879.902 118.299 872.944 111.797 864.625 111.797C860.843 111.797 857.364 113.158 854.642 115.426C854.037 101.06 842.238 89.5679 827.718 89.5679C821.819 89.5679 816.222 91.5337 811.835 94.7093C808.054 76.2608 791.718 62.5 772.206 62.5C749.819 62.5 731.668 80.6461 731.668 103.026C731.668 103.329 731.668 103.48 731.668 103.782C727.887 100.909 723.198 99.2458 718.206 99.2458C705.955 99.2458 695.971 109.226 695.971 121.475C695.971 121.777 695.971 122.231 695.971 122.533C693.854 120.567 690.98 119.509 687.955 119.509C684.778 119.509 681.753 120.719 679.636 122.836C677.972 115.124 671.165 109.377 662.997 109.377C653.619 109.377 646.056 116.938 645.905 126.162C644.544 125.406 643.182 124.953 641.518 124.953C636.829 124.953 633.048 128.431 632.292 132.967H895.028V132.816Z" fill="#E4F8EE"/>
<path d="M369.809 125C387.068 125 401.055 111.009 401.05 93.75C401.045 76.4911 387.051 62.5 369.792 62.5C352.533 62.5 338.545 76.4911 338.55 93.75C338.555 111.009 352.55 125 369.809 125Z" fill="#F4B856"/>
</svg>
