<svg width="375" height="188" viewBox="0 0 375 188" fill="none" xmlns="http://www.w3.org/2000/svg">
<g clip-path="url(#clip0_29_641)">
<g opacity="0.32" clip-path="url(#clip1_29_641)">
<path d="M374.97 136.179C365.613 145.823 354.33 151.031 340.786 150.169C325.345 149.182 311.489 137.585 309.323 120.949C308.177 112.177 310.123 104.231 315.989 97.5117C321.012 91.7485 327.373 88.3547 335.063 87.6563C342.858 86.9531 349.765 89.1 355.591 94.3406C362.081 100.174 365.372 110.027 361.852 118.179C359.212 124.284 354.389 127.624 347.918 128.681C344.372 129.26 340.887 129.04 337.669 127.275C333.661 125.079 331.523 121.589 331.027 117.122C330.698 114.173 333.08 111.302 336.103 110.733C339.127 110.163 342.272 111.921 343.085 114.891C343.495 116.391 343.746 116.667 345.626 116.442C349.594 115.973 351.422 113.36 350.613 109.441C349.622 104.658 344.934 100.73 339.778 100.071C330.825 98.925 322.495 105.666 321.637 114.054C320.824 122.023 323.585 128.585 330.056 133.378C337.467 138.855 345.548 138.975 353.869 135.802C359.074 133.816 363.656 130.788 366.949 126.263C372.755 118.277 373.87 109.598 369.867 100.481C366.633 93.1078 361.12 87.6305 354.736 82.9594C347.855 77.9227 341.325 72.4781 335.358 66.3844C327.83 58.6969 321.312 50.2571 316.523 40.5656C312.445 32.3156 310.109 23.5875 309.326 14.4211C308.916 9.63049 308.688 4.84456 309.122 0.0469055L321.544 0.0469055C321.209 4.50003 321.359 8.92034 321.722 13.3641C322.587 23.8711 326.072 33.436 331.784 42.2414C338.618 52.7883 347.43 61.4602 357.216 69.1946C361.498 72.5836 366.084 75.593 369.938 79.5071C371.653 81.2438 373.294 83.0719 374.97 84.8625V136.179Z" fill="#00CD85" fill-opacity="0.64"/>
<path d="M107.822 0.037529C108.759 0.696123 109.856 0.991432 110.869 1.46253C117.302 4.42971 123.075 8.39768 128.393 13.0453C130.343 14.7492 131.205 16.8891 130.535 19.4508C129.919 21.8344 128.386 23.4071 125.963 23.9907C125.013 24.2453 124.015 24.2586 123.06 24.0294C122.104 23.8002 121.22 23.3357 120.49 22.6781C116.4 19.1438 112.052 15.9891 107.215 13.5375C98.4797 9.11487 89.3367 8.23831 79.7625 9.92581C67.3406 12.1149 57.9961 18.8883 50.6813 28.8211C44.7844 36.8321 41.0906 45.7922 38.8922 55.4953C35.6625 69.7477 29.6508 82.7367 20.2031 94.0055C14.7867 100.465 8.14222 105.401 0.775818 109.413C0.529404 109.528 0.274797 109.624 0.0140991 109.702L0.0140991 95.1703C0.391443 95.1492 0.651585 94.8938 0.937523 94.7016C5.52177 91.5709 9.55467 87.7011 12.8719 83.25C19.5896 74.2789 24.2985 63.9675 26.6789 53.0156C29.386 40.7696 34.2727 29.611 41.9602 19.6922C46.9149 13.3008 52.8117 7.97347 59.843 3.93519C62.5242 2.393 65.3742 1.23752 68.2078 0.0328369L107.822 0.037529Z" fill="#00CD85" fill-opacity="0.64"/>
<path d="M230.381 0.0375214C232.676 15.5742 228.382 29.2805 218.798 41.4914C216.9 43.9306 214.694 46.1143 212.236 47.9883C209.562 50.0156 205.751 49.4227 203.653 46.7602C201.67 44.2406 201.989 40.3852 204.462 38.2969C211.109 32.6719 215.201 25.5164 217.371 17.1797C218.857 11.5756 218.975 5.69677 217.716 0.0375214L230.381 0.0375214Z" fill="#00CD85" fill-opacity="0.64"/>
<path d="M374.97 45.4969C371.885 43.2727 369.209 40.5938 366.734 37.7438C361.324 31.5238 357.122 24.3496 354.342 16.5891C352.42 11.2524 351.516 5.74221 352.233 0.0492401L364.655 0.0492401C364.42 2.57346 364.284 5.09299 364.793 7.61018C366.356 15.3703 370.207 21.9914 374.965 28.1672L374.97 45.4969Z" fill="#00CD85" fill-opacity="0.64"/>
<path d="M25.9781 188.006C17.1281 187.973 10.5961 182.494 9.28829 173.838C8.70469 169.978 9.89532 166.502 12.1008 163.352C14.4211 160.038 17.5195 157.545 20.7727 155.229C25.1438 152.126 29.8945 149.646 34.4508 146.843C44.0016 140.967 52.8492 134.201 60.607 126.068C67.8961 118.425 73.9664 109.882 79.1531 100.702C80.9813 97.4649 84.6211 96.3797 87.7898 98.1235C90.7875 99.7641 91.807 103.598 90.0352 106.772C83.1375 119.126 74.6625 130.261 64.2914 139.931C55.4461 148.177 45.5766 155.002 35.0812 160.957C31.5141 162.98 28.0219 165.129 24.8766 167.789C23.9661 168.532 23.1463 169.38 22.4344 170.316C21.0422 172.207 21.8742 174.621 24.1547 175.277C26.1609 175.856 28.118 175.39 30.0398 174.879C35.1515 173.524 39.743 171.019 44.2172 168.279C51.2484 163.966 57.757 158.904 64.139 153.705C67.2633 151.16 71.5781 151.952 73.5399 155.327C74.9977 157.838 74.5945 161.147 72.3352 163.034C63.1195 170.73 53.5711 177.966 42.743 183.307C38.1727 185.562 33.4195 187.322 28.2914 187.838C27.5344 187.917 26.7539 187.95 25.9781 188.006Z" fill="#00CD85" fill-opacity="0.64"/>
<path d="M304.877 158.107C304.925 160.02 304.793 161.933 304.484 163.821C303.921 166.999 301.001 169.228 297.921 168.933C294.595 168.614 292.076 165.977 292.266 162.628C292.566 157.294 292.308 152.03 291.07 146.827C289.589 140.595 286.901 134.979 282.445 130.315C279.233 126.929 275.302 124.306 270.942 122.641C268.111 121.559 266.562 119.705 266.133 116.641C264.12 102.326 255.682 92.6391 243.539 85.7039C240.411 83.9329 237.113 82.4804 233.695 81.368C230.43 80.2899 228.736 76.9664 229.666 73.6899C230.091 72.1651 231.093 70.8661 232.461 70.069C233.828 69.272 235.452 69.0398 236.988 69.4219C240.832 70.3734 244.409 72.0656 247.903 73.9008C257.044 78.6961 264.778 85.1109 270.567 93.743C273.942 98.7814 276.335 104.412 277.62 110.339C277.896 111.6 278.437 112.329 279.598 112.934C291.422 119.072 298.84 128.787 302.534 141.471C304.113 146.902 304.77 152.466 304.877 158.107Z" fill="#00CD85" fill-opacity="0.64"/>
<path d="M0.0233765 119.543C6.65881 117.083 12.8672 113.597 18.4218 109.212C25.6476 103.46 31.0523 96.2063 35.5125 88.1883C40.7062 78.8461 44.3297 68.8969 46.9617 58.568C48.3679 53.0766 49.8234 47.6133 52.3125 42.4899C56.7961 33.2532 63.0515 25.6641 72.4851 21.1219C77.2523 18.825 82.3031 17.7305 87.6328 17.5664C98.2078 17.2407 107.187 21.0821 115.027 27.818C121.162 33.0914 125.74 39.5602 127.758 47.4774C130.526 58.3266 128.887 68.5125 122.016 77.5336C116.599 84.6422 109.387 88.9969 100.481 90.1641C92.0812 91.2633 84.6961 88.7016 78.2461 83.3039C73.7297 79.5235 70.814 74.7281 69.3164 69.061C66.5039 58.4344 70.4156 46.7953 80.3554 41.1188C89.9953 35.6133 101.522 39.2813 106.137 50.4094C107.838 54.518 107.869 58.5469 105.644 62.461C104.386 64.6735 102.677 66.6024 100.315 67.5469C97.3758 68.7188 94.35 68.0391 92.5195 65.1469C90.8789 62.5336 91.439 58.9149 93.9257 57.0188C94.9312 56.2524 94.8773 55.6125 94.425 54.661C92.5218 50.6414 88.3101 49.8774 84.9586 53.0203C81.4429 56.3016 80.3765 60.368 81.1711 65.0672C82.357 72.0656 89.8007 77.7867 96.6211 77.9156C105.361 78.0821 114.122 70.6899 115.973 61.8071C117.602 53.9906 115.566 47.1539 110.557 41.0696C106.98 36.7242 102.644 33.3352 97.3382 31.5211C88.5773 28.5141 80.3179 29.6461 72.9632 35.4938C67.671 39.6961 64.3968 45.3164 62.0132 51.5414C60.0375 56.6977 59.0883 62.1469 57.4804 67.4063C54.7312 76.3852 51.3867 85.1063 46.8914 93.375C43.86 99.0179 40.2609 104.337 36.15 109.249C30.7065 115.715 24.158 121.163 16.8093 125.339C12.196 127.967 7.37523 130.213 2.39528 132.054C1.62887 132.338 0.878852 132.696 0.0304146 132.673L0.0233765 119.543Z" fill="#00CD85" fill-opacity="0.16"/>
<path d="M0.0233765 82.9875L0.0233765 62.8313C0.703064 62.7047 0.918689 62.1024 1.19525 61.6102C2.94772 58.3834 4.36604 54.9861 5.42808 51.4711C6.97026 46.5164 8.16792 41.4633 9.79448 36.5274C12.2578 29.0555 15.1851 21.7969 18.8836 14.8477C20.8733 11.0859 23.1727 7.49615 25.7578 4.11565C26.7961 2.76331 28.0804 1.58909 28.8492 0.0328369L46.4273 0.0328369C46.3669 0.299527 46.2162 0.537162 46.0008 0.705499C44.1258 2.44925 42.2203 4.16956 40.4531 6.05393C35.6078 11.2019 31.5691 17.0533 28.4742 23.4094C24.3281 31.9219 21.1922 40.8094 18.8156 49.9735C17.5523 54.8485 16.0031 59.6344 13.8562 64.2024C11.2172 69.8274 7.60074 74.8125 3.56246 79.486C2.48668 80.7281 1.62181 82.2539 0.0233765 82.9875Z" fill="#00CD85" fill-opacity="0.48"/>
<path d="M300.919 0.0375295C300.506 4.59144 300.595 9.14768 300.86 13.7039C301.126 17.985 301.766 22.2347 302.77 26.4047C304.792 35.0074 308.235 43.2124 312.959 50.6813C314.747 53.5196 314.737 56.2172 313.01 58.5211C310.554 61.8024 305.302 61.7203 303.063 58.2867C296.815 48.7695 292.435 38.1502 290.156 26.9953C288.984 21.293 288.415 15.5391 288.183 9.71721C288.054 6.47112 288.509 3.2555 288.265 0.0281525L300.919 0.0375295Z" fill="#00CD85" fill-opacity="0.48"/>
<path d="M138.286 0.0375366C136.992 3.61644 131.597 4.8516 128.653 2.1891C127.92 1.52582 127.013 0.991443 126.567 0.0375366L138.286 0.0375366Z" fill="#00CD85" fill-opacity="0.48"/>
<path d="M217.962 281.227C217.7 274.744 216.395 268.347 214.097 262.28C211.538 255.472 207.882 249.128 203.273 243.502C199.364 238.718 194.566 235.045 189.211 232.038C181.43 227.674 173.086 224.948 164.33 223.427C159.141 222.494 153.861 222.165 148.596 222.448C141.483 222.867 134.67 224.693 128.095 227.4C119.379 230.991 111.405 235.866 103.924 241.57C99.9844 244.577 96.2625 247.835 92.5547 251.121C85.275 257.578 77.1797 262.631 67.5398 264.752C55.6336 267.37 44.8242 264.902 35.3016 257.295C26.9953 250.662 22.5844 241.751 20.9016 231.415C19.5609 223.188 20.3766 215.177 24.2906 207.729C28.9219 198.919 35.9906 192.797 45.6914 190.273C55.9219 187.608 65.6133 189.052 73.9781 195.858C79.943 200.712 83.2617 207.199 84.1735 214.875C84.9305 221.236 83.6484 227.161 80.257 232.573C76.1602 239.114 70.3336 243.148 62.6016 244.195C56.2172 245.063 50.5711 243.469 46.0524 238.746C43.1438 235.699 41.6227 232.003 41.4961 227.754C41.4117 224.885 41.6086 222.084 42.6305 219.347C44.5735 214.134 50.5641 210.441 56.0531 211.195C59.1211 211.615 61.5235 214.441 61.4086 217.498C61.2914 220.702 58.7039 223.388 55.5492 223.577C55.0055 223.61 54.4734 223.561 54.1617 224.196C52.882 226.812 54.3961 230.585 57.1172 231.56C59.2266 232.315 61.3219 232.059 63.3023 231.284C68.2242 229.352 70.8141 225.513 71.7188 220.444C73.0547 212.944 68.0953 203.238 57.5742 201.783C48.9305 200.588 40.5609 204.595 36.0445 212.236C32.6203 218.032 32.1727 224.255 33.4031 230.686C34.3406 235.589 36.1922 240.159 39.4477 243.975C43.8609 249.148 49.3969 252.413 56.2992 253.116C63.9492 253.891 70.636 251.271 76.9664 247.355C80.6039 245.105 83.7844 242.283 86.9344 239.423C90.9916 235.768 95.254 232.347 99.7008 229.177C105.735 224.79 112.17 220.983 118.92 217.807C126.858 214.118 135.091 211.416 143.841 210.424C151.256 209.585 158.625 209.897 165.977 211.095C175.209 212.557 184.158 215.442 192.504 219.649C199.488 223.191 205.842 227.618 211.083 233.477C217.51 240.696 222.519 249.06 225.848 258.134C227.978 263.883 229.394 269.871 230.067 275.965C230.264 277.702 230.494 279.452 230.372 281.215L217.962 281.227Z" fill="#00CD85" fill-opacity="0.16"/>
<path d="M253.816 0.0375443C254.119 3.68442 254.613 7.32426 254.505 10.9922C254.215 20.836 252.345 30.3282 248.245 39.3516C244.891 46.7344 240.42 53.2946 234.363 58.6993C229.605 62.9438 224.152 66.1032 218.208 68.4211C214.352 69.9235 210.347 70.8305 206.222 70.7649C198.033 70.6383 191.491 67.1883 186.722 60.4969C183.373 55.7977 181.289 50.5688 180.762 44.8172C180.213 38.8407 181.669 33.2954 184.812 28.1766C186.703 25.0969 189.159 22.486 191.524 19.793C194.496 16.4133 196.491 12.6118 196.397 7.96879C196.37 5.65247 195.693 3.39024 194.445 1.4391C194.149 0.970352 193.875 0.501602 193.589 0.0328522L207.652 0.0328522C207.686 0.380312 207.741 0.725444 207.816 1.06645C210.021 8.76801 208.68 15.9586 204.748 22.7954C202.781 26.2125 199.957 28.9289 197.459 31.9149C194.96 34.9008 193.095 38.243 193.139 42.2766C193.195 47.4024 195.202 51.7688 198.738 55.4016C200.934 57.6539 203.829 58.4039 206.885 58.2985C209.941 58.193 212.78 57.2555 215.557 56.0321C222.94 52.7789 228.851 47.8172 233.212 41.011C237.295 34.643 239.822 27.6938 241.151 20.2711C241.784 16.7402 242.078 13.1566 242.027 9.56957C241.98 6.3891 241.793 3.18286 241.167 0.0375443L253.816 0.0375443Z" fill="#00CD85" fill-opacity="0.16"/>
<path d="M374.97 56.0414V72.2133C372.877 70.5914 371.023 68.6836 368.834 67.1742C364.177 63.9656 359.693 60.525 355.573 56.6461C349.331 50.768 343.854 44.25 339.495 36.8297C337.095 32.7492 335.011 28.5164 333.586 24.0047C331.114 16.2656 329.972 8.16312 330.211 0.0422211L342.867 0.0422211C342.701 0.684242 342.623 1.34563 342.633 2.00863C342.61 4.46523 342.766 6.92023 343.102 9.35394C343.866 15.3563 345.377 21.1524 348.089 26.5828C351.408 33.2344 355.852 39.0938 360.959 44.4657C363.476 47.0714 366.16 49.5109 368.993 51.7688C370.896 53.3086 372.769 54.9094 374.97 56.0414Z" fill="#00CD85" fill-opacity="0.16"/>
<path d="M167.344 0.0375333C166.448 1.31019 165.255 2.318 164.215 3.45706C158.318 9.90941 154.092 17.2641 151.835 25.7227C151.423 27.2672 150.952 28.7953 150.509 30.3328C149.827 32.7 147.738 34.3172 144.933 34.6219C142.866 34.8563 140.355 33.4336 139.259 31.5469C138.284 29.8664 138.279 28.0828 138.712 26.3321C140.993 17.1305 144.398 8.42581 150.26 0.836753C150.429 0.579901 150.578 0.310345 150.705 0.0305023L167.344 0.0375333Z" fill="#00CD85" fill-opacity="0.16"/>
<path d="M374.97 161.487C373.312 162.512 371.576 163.405 369.778 164.159C367.02 165.347 363.551 164.02 362.135 161.346C360.612 158.468 361.373 155.018 364.041 153.263C365.447 152.348 366.968 151.622 368.449 150.846C370.732 149.639 372.83 148.141 374.977 146.723L374.97 161.487Z" fill="#00CD85" fill-opacity="0.16"/>
<path d="M146.805 67.0594C143.855 67.0594 141.755 65.6883 140.824 63.0328C138.963 57.7289 138.012 52.2516 138.302 46.6266C138.457 43.5235 141.227 41.107 144.347 41.0719C147.326 41.0391 150.059 43.35 150.478 46.3031C150.865 49.036 150.757 51.8203 151.376 54.5367C151.716 56.0203 152.098 57.4852 152.548 58.936C152.997 60.2998 152.966 61.7762 152.461 63.1203C151.956 64.4644 151.007 65.5955 149.77 66.3258C148.886 66.8814 147.847 67.1386 146.805 67.0594V67.0594Z" fill="#00CD85" fill-opacity="0.16"/>
<path d="M0.0234337 140.398C0.382027 140.513 0.712526 140.384 1.05003 140.283C16.4953 135.755 30.1969 128.227 41.5828 116.716C49.8633 108.347 56.1375 98.6274 60.9141 87.9117C61.7953 85.936 63.1243 84.5133 65.2453 83.9719C67.7485 83.3344 69.9188 84.0164 71.5735 85.9664C73.2282 87.9164 73.5422 90.1852 72.525 92.5406C70.4141 97.4116 67.9587 102.126 65.1774 106.648C54.9 123.405 41.0227 136.242 23.3883 144.977C15.9221 148.643 8.08858 151.506 0.0187988 153.52L0.0234337 140.398Z" fill="#00CD85" fill-opacity="0.32"/>
<path d="M274.437 0.0375295C274.573 2.72347 274.748 5.40706 274.838 8.09534C275.271 21.3235 272.569 33.9094 267.15 45.9586C264.841 51.0914 262.402 56.1446 259.388 60.886C258.698 62.0109 257.665 62.8848 256.442 63.3788C255.218 63.8729 253.868 63.9611 252.591 63.6305C251.308 63.3224 250.158 62.6124 249.308 61.6042C248.458 60.596 247.953 59.3425 247.866 58.0266C247.734 56.5266 248.222 55.1977 249.005 53.9321C253.884 46.05 257.513 37.5961 260.112 28.725C262.16 21.736 262.54 14.5149 262.287 7.268C262.205 4.85159 261.966 2.43987 261.797 0.0281525L274.437 0.0375295Z" fill="#00CD85" fill-opacity="0.32"/>
<path d="M17.5992 0.0375366C15.8302 2.65217 14.2044 5.36083 12.7289 8.1516C11.0273 11.3461 7.33824 12.5602 4.26559 10.9641C1.19293 9.368 0.025746 5.68832 1.63121 2.44223C2.02731 1.64066 2.43275 0.843789 2.83588 0.0469136L17.5992 0.0375366Z" fill="#00CD85" fill-opacity="0.32"/>
<path d="M267.591 69.7406C267.663 67.2985 268.762 65.3766 271.017 64.2328C273.272 63.0891 275.489 63.3352 277.547 64.7742C280.74 67.0262 283.687 69.6076 286.341 72.4758C289.828 76.2207 292.842 80.3809 295.312 84.8625C295.805 85.7508 296.053 85.9055 296.803 85.0383C302.955 77.8431 310.974 72.4861 319.976 69.5578C322.957 68.5758 326.084 69.811 327.502 72.4711C328.21 73.7706 328.434 75.2793 328.133 76.7284C327.833 78.1775 327.027 79.4729 325.861 80.3836C324.987 81.0867 323.93 81.3774 322.905 81.7571C314.749 84.7922 308.137 89.7703 303.384 97.1203C302.401 98.673 301.578 100.322 300.93 102.042C299.89 104.73 297.457 106.42 294.82 106.298C292.008 106.17 289.845 104.358 288.961 101.557C285.499 90.7195 279.544 81.6399 270.234 74.9156C268.498 73.6617 267.645 71.9438 267.591 69.7406Z" fill="#00CD85" fill-opacity="0.32"/>
<path d="M159.359 41.7375C159.302 30.1899 163.624 20.175 170.723 11.1703C172.37 9.08793 174.125 7.09302 175.98 5.19378C178.559 2.53597 182.435 2.39535 184.997 4.85863C187.512 7.27738 187.556 11.1422 185.039 13.7836C181.055 17.9625 177.499 22.4297 175.01 27.6797C171.37 35.3602 171.098 43.3149 173.004 51.4617C173.719 54.3804 174.592 57.2581 175.62 60.0821C176.487 62.543 176.039 64.8188 174.195 66.6821C172.42 68.4797 170.21 68.9321 167.822 68.1985C166.969 67.9606 166.185 67.5242 165.533 66.9249C164.881 66.3257 164.38 65.5807 164.072 64.7508C161.245 57.3703 159.347 49.8024 159.359 41.7375Z" fill="#00CD85" fill-opacity="0.32"/>
</g>
</g>
<defs>
<clipPath id="clip0_29_641">
<rect width="375" height="188" fill="white"/>
</clipPath>
<clipPath id="clip1_29_641">
<rect width="375" height="281.25" fill="white"/>
</clipPath>
</defs>
</svg>
