<svg width="260" height="253" viewBox="0 0 260 253" fill="none" xmlns="http://www.w3.org/2000/svg">
<path d="M3.14965 117.352H2.05336V116.254C2.05336 116.08 1.90835 115.935 1.73434 115.935C1.56032 115.935 1.41531 116.08 1.41531 116.254V117.352H0.319026C0.139211 117.352 0 117.497 0 117.671C0 117.846 0.145012 117.991 0.319026 117.991H1.41531V119.088C1.41531 119.263 1.56032 119.408 1.73434 119.408C1.91415 119.408 2.05336 119.263 2.05336 119.088V117.991H3.14965C3.32367 117.991 3.46868 117.846 3.46868 117.671C3.46868 117.497 3.32947 117.352 3.14965 117.352Z" fill="white"/>
<path d="M88.255 225.534H87.1587V224.437C87.1587 224.263 87.0137 224.117 86.8397 224.117C86.6656 224.117 86.5206 224.263 86.5206 224.437V225.534H85.4243C85.2445 225.534 85.1053 225.68 85.1053 225.854C85.1053 226.028 85.2503 226.173 85.4243 226.173H86.5206V227.271C86.5206 227.445 86.6656 227.59 86.8397 227.59C87.0195 227.59 87.1587 227.445 87.1587 227.271V226.173H88.255C88.4348 226.173 88.574 226.028 88.574 225.854C88.5798 225.68 88.4348 225.534 88.255 225.534Z" fill="white"/>
<path d="M213.899 15.3781H212.802V14.2805C212.802 14.1062 212.657 13.9611 212.483 13.9611C212.309 13.9611 212.164 14.1062 212.164 14.2805V15.3781H211.068C210.888 15.3781 210.749 15.5233 210.749 15.6975C210.749 15.8717 210.894 16.0169 211.068 16.0169H212.164V17.1145C212.164 17.2888 212.309 17.4339 212.483 17.4339C212.663 17.4339 212.802 17.2888 212.802 17.1145V16.0169H213.899C214.073 16.0169 214.218 15.8717 214.218 15.6975C214.218 15.5233 214.078 15.3781 213.899 15.3781Z" fill="white"/>
<path d="M241.467 172.46H240.37V171.362C240.37 171.188 240.225 171.043 240.051 171.043C239.877 171.043 239.732 171.188 239.732 171.362V172.46H238.636C238.456 172.46 238.317 172.605 238.317 172.779C238.317 172.953 238.462 173.098 238.636 173.098H239.732V174.196C239.732 174.37 239.877 174.515 240.051 174.515C240.231 174.515 240.37 174.37 240.37 174.196V173.098H241.467C241.641 173.098 241.786 172.953 241.786 172.779C241.786 172.605 241.641 172.46 241.467 172.46Z" fill="white"/>
<path d="M21.6354 26.1338H20.5391V25.0362C20.5391 24.862 20.3941 24.7168 20.2201 24.7168C20.046 24.7168 19.901 24.862 19.901 25.0362V26.1338H18.8047C18.6249 26.1338 18.4857 26.279 18.4857 26.4532C18.4857 26.6275 18.6307 26.7727 18.8047 26.7727H19.901V27.8703C19.901 28.0445 20.046 28.1897 20.2201 28.1897C20.3941 28.1897 20.5391 28.0445 20.5391 27.8703V26.7727H21.6354C21.8094 26.7727 21.9544 26.6275 21.9544 26.4532C21.9544 26.279 21.8094 26.1338 21.6354 26.1338Z" fill="white"/>
<path d="M123.295 2.88052C122.5 2.88052 121.856 2.23589 121.856 1.44026C121.856 0.644633 122.5 0 123.295 0C124.089 0 124.733 0.644633 124.733 1.44026C124.733 2.23589 124.084 2.88052 123.295 2.88052ZM123.295 0.609788C122.836 0.609788 122.465 0.981468 122.465 1.44026C122.465 1.89905 122.836 2.27073 123.295 2.27073C123.753 2.27073 124.124 1.89905 124.124 1.44026C124.124 0.981468 123.747 0.609788 123.295 0.609788Z" fill="white"/>
<path d="M6.49091 191.282C5.69625 191.282 5.0524 190.637 5.0524 189.842C5.0524 189.046 5.69625 188.401 6.49091 188.401C7.28558 188.401 7.92943 189.046 7.92943 189.842C7.92943 190.637 7.28558 191.282 6.49091 191.282ZM6.49091 189.017C6.03268 189.017 5.66145 189.389 5.66145 189.847C5.66145 190.306 6.03268 190.678 6.49091 190.678C6.94915 190.678 7.32038 190.306 7.32038 189.847C7.32038 189.389 6.94915 189.017 6.49091 189.017Z" fill="white"/>
<path d="M258.561 79.5452C257.766 79.5452 257.122 78.9006 257.122 78.1049C257.122 77.3093 257.766 76.6647 258.561 76.6647C259.356 76.6647 259.999 77.3093 259.999 78.1049C259.999 78.9006 259.35 79.5452 258.561 79.5452ZM258.561 77.2803C258.103 77.2803 257.731 77.652 257.731 78.1107C257.731 78.5695 258.103 78.9412 258.561 78.9412C259.019 78.9412 259.39 78.5695 259.39 78.1107C259.39 77.652 259.013 77.2803 258.561 77.2803Z" fill="white"/>
<path d="M175.075 209.581C174.28 209.581 173.637 208.937 173.637 208.141C173.637 207.345 174.28 206.701 175.075 206.701C175.87 206.701 176.514 207.345 176.514 208.141C176.514 208.937 175.87 209.581 175.075 209.581ZM175.075 207.316C174.617 207.316 174.246 207.688 174.246 208.147C174.246 208.606 174.617 208.977 175.075 208.977C175.533 208.977 175.905 208.606 175.905 208.147C175.905 207.688 175.528 207.316 175.075 207.316Z" fill="white"/>
<g opacity="0.16">
<path d="M182.814 227.051C194.083 225.611 200.998 223.671 200.998 221.529C200.998 217.101 171.425 213.515 134.941 213.515C109.941 213.515 88.1805 215.2 76.9619 217.688C75.8235 217.648 74.635 217.623 73.4163 217.623C69.2188 217.623 65.4023 217.883 62.5538 218.305C62.3382 216.84 54.9912 215.662 45.9591 215.662C36.7917 215.657 29.3544 216.87 29.3544 218.37C29.3544 219.869 36.7917 221.083 45.9591 221.083C50.4476 221.083 54.5147 220.792 57.5037 220.321C57.9149 221.444 62.8898 222.372 69.5096 222.638C70.1516 223.199 71.2699 223.746 72.8195 224.262C64.2388 225.381 58.5117 227.392 58.5117 229.694C58.5117 233.209 71.9118 236.058 88.4363 236.058C95.7582 236.058 102.458 235.496 107.659 234.568C113.316 237.572 131.214 239.769 152.423 239.769C178.175 239.769 199.053 236.529 199.053 232.537C199.047 230.346 192.754 228.38 182.814 227.051Z" fill="#042633"/>
<path d="M217.176 236.333C225.768 236.333 232.733 234.537 232.733 232.321C232.733 230.106 225.768 228.309 217.176 228.309C208.584 228.309 201.62 230.106 201.62 232.321C201.62 234.537 208.584 236.333 217.176 236.333Z" fill="#042633"/>
</g>
<path d="M88.8648 62.4481C88.8648 62.4481 89.0604 61.2094 89.0504 60.6528C89.0353 60.0961 89.4516 57.5786 89.8378 57.724C90.2239 57.8694 89.918 59.4893 90.3092 59.6347C90.7003 59.7802 91.5729 58.6217 91.934 57.6538C92.2951 56.6859 92.265 55.4773 92.8518 56.3198C93.4385 57.1673 93.0975 59.7099 92.8718 60.3168C92.6462 60.9236 91.0012 61.6307 90.7956 62.1874C90.59 62.744 90.3342 63.722 90.3342 63.722L88.8648 62.4481Z" fill="#DD9C89"/>
<path d="M68.0973 72.1825C68.0973 72.1825 80.2587 72.699 82.4352 71.701C84.6117 70.7081 88.6037 61.7362 88.6037 61.7362L91.071 63.4313C91.071 63.4313 88.9497 72.5787 85.9557 75.0761C82.9618 77.5736 70.7251 78.371 69.6118 77.373C68.4934 76.3801 68.0973 72.1825 68.0973 72.1825Z" fill="#DF922F"/>
<path d="M84.8474 53.3211C83.9447 52.7895 83.4733 51.5458 83.9648 50.623C83.0671 50.8437 82.0491 50.2218 81.8334 49.3191C80.5395 50.4725 78.4683 50.0062 77.0039 49.0734C75.9608 48.4064 75.018 47.4936 74.6168 46.3201C73.9799 44.4495 75.0581 42.1727 76.9087 41.4806C76.2667 41.1346 76.3871 39.9811 77.0892 39.7755C75.9057 38.1055 75.5195 35.7886 76.4623 33.9731C77.4102 32.1577 79.8475 31.1547 81.6629 32.0925C81.7381 31.5609 82.3399 31.1647 82.8565 31.3102C82.686 29.5248 83.9096 27.6994 85.6348 27.1878C87.3549 26.6763 89.381 27.5339 90.2135 29.1236C91.5224 27.5589 93.9647 27.0875 95.7601 28.0454C97.5555 29.0083 98.5184 31.3001 97.9467 33.256C98.8092 33.4917 99.4461 34.3844 99.3809 35.2821C101.016 35.3774 102.636 36.0845 103.704 37.3232C104.772 38.5619 105.228 40.3472 104.747 41.9069C104.266 43.4716 102.796 44.7203 101.161 44.8056C101.623 45.3422 101.041 46.3452 100.344 46.2098C100.875 46.8367 100.489 47.8046 99.9777 48.4465C99.1904 49.4445 97.9115 50.277 96.7029 49.8858C96.723 51.5458 94.737 52.8697 93.2125 52.2178C93.2727 52.6039 92.9367 52.9299 92.6307 53.1756C91.7882 53.8577 90.8655 54.5548 89.7872 54.6651C88.6588 54.7754 88.2978 53.9129 87.38 53.627C86.5275 53.3612 85.715 53.8326 84.8474 53.3211Z" fill="#ABDB53"/>
<path d="M87.069 77.4491L86.9742 77.504C86.9742 77.504 87.0091 77.489 87.069 77.4491Z" fill="#BD6C1B"/>
<path d="M89.933 43.9034L93.7695 37.7651L92.7665 38.6427L89.6622 41.9977C89.3613 39.7861 88.7746 38.412 88.7746 38.412L88.1226 37.6246C88.1226 37.6246 88.4085 41.9877 88.9952 46.6065C88.574 46.1502 88.1577 45.6938 87.7365 45.2324C87.0895 44.5253 86.4376 43.8182 85.7906 43.1111C85.5449 42.8403 85.2641 42.3939 84.9581 42.2033C84.7876 42.093 84.6673 42.1983 84.6974 42.3989C84.7224 42.5594 84.8528 42.6948 84.918 42.8403C84.9983 43.0258 85.0785 43.2063 85.1587 43.3919C85.1738 43.427 85.1939 43.4621 85.2139 43.4922L89.3112 49.1491C90.2841 57.2283 91.2721 67.5342 90.4596 70.8642C89.236 75.8792 87.4907 77.2031 87.0645 77.4589L92.1647 75.2724C92.1647 75.2724 94.7374 79.2292 94.607 78.3115C94.4766 77.3937 95.585 74.7057 95.585 74.7057L99.0203 75.0718C99.0203 75.0718 96.9591 72.4589 94.9982 66.9675C93.4536 62.6446 92.2149 57.1581 91.2821 52.1481L93.8397 48.447L94.2861 47.2234L91.0012 50.5985C90.57 48.1261 90.2139 45.8242 89.933 43.9034Z" fill="#BD6C1B"/>
<path d="M79.9449 143.516C79.9449 143.516 79.7944 144.023 80.3611 144.589C80.9278 145.156 85.3009 146.314 85.3009 147.092C85.3009 147.864 76.9058 147.568 76.4294 147.092C75.9529 146.615 76.6651 143.521 76.6651 143.521H79.9449V143.516Z" fill="#17242A"/>
<path d="M63.8606 142.222C63.8606 142.222 63.8606 143.02 63.8606 143.546C63.8606 144.068 65.0492 145.281 66.0923 145.748C67.2658 146.279 68.1033 146.741 67.6068 147.237C67.1104 147.734 64.4022 147.613 63.2187 147.227C62.0352 146.841 60.1696 145.557 59.5076 145.196C58.8456 144.84 60.8316 141.37 60.8316 141.37L63.8606 142.222Z" fill="#17242A"/>
<path d="M76.9757 101.37C76.9757 101.37 77.0309 101.545 77.1262 101.866C77.9185 104.474 81.5293 116.626 81.5293 121.204C81.5293 126.345 80.2054 143.827 80.2054 143.827H76.2385C76.2385 143.827 76.3839 125.903 75.065 121.936C73.741 117.97 70.9527 109.304 70.9527 109.304C70.9527 109.304 69.062 117.624 68.3098 123.556C67.7731 127.784 64.1974 143.065 64.1974 143.065L59.9597 142.312C59.9597 142.312 62.8735 128.26 62.8735 123.556C62.8735 118.857 61.2185 104.62 62.1914 101.375H76.9757V101.37Z" fill="#1D2C36"/>
<path d="M76.2679 115.944C77.7725 120.412 77.8928 138.21 77.8928 143.827H76.2379C76.2379 143.827 76.3833 125.904 75.0643 121.937C73.7404 117.97 70.952 109.304 70.952 109.304C70.952 109.304 74.4726 110.618 76.2679 115.944Z" fill="#19282F"/>
<path d="M59.9545 142.312C59.9545 142.312 62.8682 128.26 62.8682 123.556C62.8682 118.857 61.2132 104.62 62.1862 101.375H76.9704C76.9704 101.375 77.0256 101.55 77.1209 101.871C77.3716 102.694 77.9032 104.474 78.51 106.661C75.4057 105.994 68.9965 104.946 66.8702 107.067C64.0267 109.91 66.0678 120.828 65.476 124.971C65.0096 128.225 62.6225 138.396 61.6245 142.608L59.9545 142.312Z" fill="#19282F"/>
<path d="M66.7946 73.8074C66.7946 73.8074 67.3863 71.4353 67.1907 70.5476C66.9952 69.66 64.3723 66.8616 65.1898 62.8747C66.0072 58.8877 71.4786 59.5397 72.7223 61.5457C73.9711 63.5517 75.5408 69.329 73.6501 69.7502C71.7544 70.1715 70.9871 69.7452 71.0774 70.1514C71.1677 70.5526 71.3783 74.2788 71.288 74.4192C71.1977 74.5596 66.7946 73.8074 66.7946 73.8074Z" fill="#F4AF9F"/>
<path d="M90.2597 69.8859C90.2597 69.8859 90.7913 69.0734 90.6007 68.1958C90.4152 67.3182 89.9689 65.3623 90.355 65.4075C90.7412 65.4476 91.1775 66.3352 91.3329 66.8066C91.4884 67.273 92.7622 66.2851 93.1985 65.3072C93.6298 64.3292 93.6599 62.4335 94.0812 62.9551C94.5024 63.4817 95.2497 65.6933 94.6428 67.1025C94.041 68.5117 93.3189 69.0383 92.9879 69.9159C92.6519 70.7936 92.5666 71.5508 92.5666 71.5508L90.2597 69.8859Z" fill="#F4AF9F"/>
<path d="M78.7302 101.866C78.7302 101.866 63.8005 104.835 61.8597 103.02C59.9189 101.204 63.4946 73.2156 66.8747 71.6359C70.2549 70.0561 78.2388 79.9106 82.8125 79.9106C84.1464 79.9106 89.9087 69.7653 89.9087 69.7653L93.1735 71.1444C93.1735 71.1444 86.9448 84.4342 84.006 84.5295C81.0672 84.6247 75.0091 81.8364 74.9188 82.8093C73.7353 96.074 78.7302 101.866 78.7302 101.866Z" fill="#E7AD4B"/>
<path opacity="0.5" d="M91.9842 70.6428C90.5248 74.2586 86.3272 83.4411 81.4276 83.1904C75.3293 82.8795 72.2601 79.2937 70.9512 80.6026C69.6423 81.9116 74.6523 93.0148 72.6463 95.0158C70.6403 97.0218 70.7305 97.0268 70.7305 99.1983C70.7305 101.37 70.7305 99.5795 70.7305 101.37C70.7305 101.957 69.6323 102.669 68.4286 103.416C73.1979 102.965 78.7345 101.866 78.7345 101.866C78.7345 101.866 73.7396 96.074 74.9281 82.8143C75.0134 81.8363 81.0765 84.6297 84.0153 84.5344C86.9541 84.4391 93.1828 71.1493 93.1828 71.1493L91.9842 70.6428Z" fill="#E7AD4B"/>
<path d="M73.6756 61.335C73.7358 61.7161 73.6556 62.1324 73.3396 62.338C73.2644 62.3882 73.1791 62.4233 73.1089 62.4784C73.0187 62.5486 72.9635 62.6539 72.8933 62.7442C72.5021 63.2307 71.4941 63.4714 71.0227 63.01C71.1882 63.1203 71.1882 63.3861 71.0628 63.5466C70.9374 63.7021 70.7318 63.7723 70.5362 63.8074C70.3908 63.8325 70.2353 63.8475 70.135 63.9528C70.3256 64.0632 70.4159 64.2989 70.4008 64.5195C70.3657 65.0561 69.804 65.7833 69.9796 66.335C69.9796 66.335 69.2373 64.0281 68.5603 65.0862C68.2644 65.5526 68.2795 66.019 68.5854 66.4704C68.8261 66.8264 69.2674 67.2126 68.6807 67.5486C68.4901 67.6589 68.2594 67.684 68.0387 67.7091C68.1039 68.0551 67.9685 68.4312 67.6927 68.6519C67.4169 68.8726 67.0207 68.9277 66.6997 68.7873C66.6897 68.9428 66.5693 69.0782 66.4289 69.1384C66.2885 69.2036 66.123 69.2086 65.9675 69.1985C65.6315 69.1785 65.2855 69.0832 65.0247 68.8676C64.6486 68.5566 64.4881 67.7693 64.8141 67.3681C64.4129 67.2527 63.9966 67.1223 63.6907 66.8365C63.3848 66.5556 63.2143 66.0742 63.4049 65.7081C63.46 65.6028 63.5453 65.4975 63.5403 65.3771C63.5353 65.2267 63.3898 65.1213 63.2695 65.0311C62.9435 64.7803 62.6827 64.4343 62.5924 64.0331C62.4971 63.6319 62.5824 63.1855 62.8482 62.8746C62.9284 62.7843 63.0237 62.6991 63.0538 62.5787C63.0889 62.4483 63.0287 62.3129 62.9836 62.1876C62.8632 61.8415 62.8632 61.4453 63.0338 61.1194C63.2043 60.7984 63.5653 60.5677 63.9314 60.6028C63.9816 60.3922 64.0317 60.1815 64.0819 59.9709C64.1621 59.6199 64.2925 59.2187 64.6285 59.0983C64.9294 58.993 65.2504 59.1685 65.5262 59.339C65.7368 59.013 65.9575 58.677 66.2735 58.4463C66.5894 58.2207 67.0307 58.1254 67.3717 58.3109C67.5072 58.3862 67.6375 58.5065 67.788 58.4764C67.8732 58.4614 67.9384 58.4012 68.0036 58.346C68.6205 57.8496 69.6034 57.7743 70.1651 58.331C70.6215 58.1404 71.123 57.985 71.6094 58.0803C72.0959 58.1755 72.5472 58.6068 72.5021 59.1033C73.1591 59.0782 73.7408 59.7703 73.6054 60.4173C73.5854 60.5226 73.5452 60.6229 73.5402 60.7282C73.5352 60.8636 73.5854 60.989 73.6255 61.1194C73.6505 61.1946 73.6656 61.2648 73.6756 61.335Z" fill="#19282F"/>
<path d="M113.26 63.6573C112.689 62.7846 112.814 61.4557 113.662 60.8438C112.759 60.6432 112.122 59.6352 112.328 58.7325C110.658 59.1939 109.003 57.8599 108.105 56.3755C107.463 55.3173 107.022 54.0786 107.182 52.8499C107.438 50.894 109.414 49.3294 111.38 49.5249C110.958 48.9282 111.575 47.9502 112.297 48.0756C111.976 46.0546 112.654 43.8028 114.303 42.5942C115.953 41.3856 118.586 41.5611 119.8 43.211C120.106 42.7647 120.818 42.6794 121.219 43.0405C121.856 41.3605 123.762 40.2722 125.532 40.5731C127.302 40.874 128.737 42.539 128.782 44.3344C130.647 43.5119 133.045 44.1689 134.233 45.8239C135.422 47.4788 135.266 49.9613 133.887 51.4658C134.559 52.0575 134.73 53.1408 134.273 53.9131C135.698 54.7205 136.836 56.0695 137.242 57.6543C137.648 59.239 137.272 61.0394 136.149 62.228C135.026 63.4165 133.155 63.888 131.65 63.241C131.826 63.9281 130.863 64.57 130.296 64.1387C130.497 64.9361 129.72 65.6332 128.982 65.9842C127.834 66.5309 126.319 66.7114 125.412 65.8237C124.695 67.3182 122.327 67.6292 121.249 66.3704C121.129 66.7415 120.688 66.8869 120.306 66.9722C119.248 67.2129 118.115 67.4286 117.097 67.0474C116.039 66.6462 116.094 65.7134 115.402 65.0514C114.75 64.4396 113.817 64.4998 113.26 63.6573Z" fill="#ABDB53"/>
<path d="M104.575 86.2742L104.465 86.2792C104.465 86.2792 104.505 86.2842 104.575 86.2742Z" fill="#BD6C1B"/>
<path d="M121.992 57.4628L128.151 53.6564L126.867 54.0025L122.599 55.6374C123.306 53.521 123.392 52.0266 123.392 52.0266L123.156 51.0286C123.156 51.0286 121.481 55.0707 119.961 59.4688C119.786 58.872 119.615 58.2753 119.44 57.6835C119.169 56.7607 118.903 55.838 118.632 54.9202C118.532 54.5692 118.477 54.0476 118.286 53.7367C118.181 53.5611 118.026 53.6013 117.965 53.7969C117.915 53.9523 117.975 54.1329 117.965 54.2883C117.955 54.4889 117.95 54.6895 117.94 54.8901C117.94 54.9302 117.94 54.9653 117.945 55.0055L119.124 61.8811C116.421 69.554 112.745 79.233 110.543 81.8609C107.223 85.8127 105.077 86.234 104.58 86.2741L110.122 86.57C110.122 86.57 110.674 91.259 110.964 90.3764C111.255 89.4937 113.437 87.578 113.437 87.578L116.356 89.4285C116.356 89.4285 115.663 86.1738 116.341 80.3815C116.872 75.8228 118.186 70.3514 119.565 65.4467L123.497 63.2552L124.44 62.3525L120.001 63.9272C120.699 61.53 121.391 59.3084 121.992 57.4628Z" fill="#BD6C1B"/>
<path d="M40.8648 217.558H39.4606L60.1876 147.468H61.5969L40.8648 217.558Z" fill="#19282F"/>
<path d="M54.6605 217.558H53.2513L73.9783 147.468H75.3876L54.6605 217.558Z" fill="#19282F"/>
<path d="M72.9033 153.496H59.112L59.5032 152.167H73.2945L72.9033 153.496Z" fill="#19282F"/>
<path d="M70.3554 162.107H56.5641L56.9553 160.778H70.7516L70.3554 162.107Z" fill="#19282F"/>
<path d="M67.8139 170.718H54.0176L54.4087 169.394H68.2051L67.8139 170.718Z" fill="#19282F"/>
<path d="M65.266 179.329H51.4697L51.8659 178.005H65.6571L65.266 179.329Z" fill="#19282F"/>
<path d="M62.7184 187.939H48.9271L49.3183 186.615H63.1096L62.7184 187.939Z" fill="#19282F"/>
<path d="M60.1705 196.55H46.3792L46.7704 195.226H60.5616L60.1705 196.55Z" fill="#19282F"/>
<path d="M57.6226 205.161H43.8313L44.2225 203.837H58.0138L57.6226 205.161Z" fill="#19282F"/>
<path d="M55.0747 213.772H41.2834L41.6746 212.448H55.4659L55.0747 213.772Z" fill="#19282F"/>
<path d="M96.1166 217.558H97.5258L76.7987 147.468H75.3895L96.1166 217.558Z" fill="#19282F"/>
<path d="M82.3258 217.558H83.7351L63.003 147.468H61.5988L82.3258 217.558Z" fill="#19282F"/>
<path d="M64.1774 153.496H77.9687L77.5776 152.167H63.7812L64.1774 153.496Z" fill="#19282F"/>
<path d="M66.7203 162.107H80.5166L80.1254 160.778H66.3291L66.7203 162.107Z" fill="#19282F"/>
<path d="M69.2682 170.718H83.0645L82.6683 169.394H68.877L69.2682 170.718Z" fill="#19282F"/>
<path d="M71.8161 179.329H85.6074L85.2162 178.005H71.4249L71.8161 179.329Z" fill="#19282F"/>
<path d="M74.3627 187.939H88.154L87.7628 186.615H73.9715L74.3627 187.939Z" fill="#19282F"/>
<path d="M76.9105 196.55H90.7018L90.3107 195.226H76.5194L76.9105 196.55Z" fill="#19282F"/>
<path d="M79.4582 205.161H93.2495L92.8583 203.837H79.062L79.4582 205.161Z" fill="#19282F"/>
<path d="M82.001 213.772H95.7973L95.4062 212.448H81.6099L82.001 213.772Z" fill="#19282F"/>
<path d="M79.7883 145.593H57.4263V147.468H79.7883V145.593Z" fill="#19282F"/>
<path d="M182.415 200.43C211.244 171.601 211.244 124.861 182.415 96.0323C153.586 67.2037 106.846 67.2037 78.0174 96.0323C49.1888 124.861 49.1888 171.601 78.0174 200.43C106.846 229.259 153.586 229.259 182.415 200.43Z" fill="#8AD3F3"/>
<path d="M139.892 215.347C142.515 215.236 145.273 214.755 147.279 213.06C150.594 210.266 151.016 204.95 154.546 202.438C158.814 199.399 166.081 201.575 168.909 197.162C170.218 195.121 169.872 192.358 168.683 190.246C167.495 188.135 165.594 186.525 163.739 184.971C159.852 181.711 155.965 178.451 152.074 175.191C148.272 172.007 144.426 168.767 141.627 164.67C138.829 160.578 137.169 155.447 138.257 150.608C138.689 148.687 139.621 146.776 141.286 145.723C142.605 144.891 144.27 144.665 145.469 143.667C149.185 140.583 145.193 134.414 146.562 129.78C147.289 127.318 149.471 125.608 150.925 123.492C153.252 120.101 153.623 115.457 151.858 111.741C150.233 108.326 146.873 105.127 147.831 101.466C148.754 97.93 153.087 96.6511 155.514 93.9179C157.841 91.3001 158.147 87.3784 155.705 84.6051C155.424 84.2841 155.103 83.9932 154.732 83.7776C154.15 83.4416 153.473 83.3262 152.826 83.1407C148.995 82.0624 146.181 78.7525 142.495 77.243C138.463 75.5931 130.9 76.5509 128.418 80.7435C126.046 84.7505 130.549 90.2219 126.748 94.0132C125.89 94.8658 124.762 95.3773 123.779 96.0844C114.928 102.479 126.678 109.118 122.641 115.999C120.519 119.615 114.677 118.592 111.618 121.46C107.46 125.352 110.9 133.647 106.487 137.248C104.496 138.873 101.467 138.913 99.717 140.793C97.8313 142.819 98.3429 146.285 100.213 148.326C102.079 150.367 104.903 151.245 107.641 151.651C113.423 152.508 119.346 151.651 125.153 152.318C126.432 152.463 127.771 152.714 128.749 153.557C130.86 155.367 130.223 158.732 130.986 161.405C132.58 167.022 139.952 168.782 143.012 173.752C144.747 176.565 144.872 180.056 144.797 183.361C144.732 186.32 144.506 189.399 143.042 191.972C141.046 195.477 137.174 197.368 133.934 199.77C130.695 202.172 127.741 206.074 128.914 209.93C130.198 214.143 135.494 215.532 139.892 215.347Z" fill="#73B5F3"/>
<path d="M123.544 166.455C121.092 164.635 120.154 161.219 117.581 159.569C113.98 157.257 108.569 159.258 105.35 156.445C104.367 155.587 103.715 154.359 102.591 153.702C100.555 152.513 98.0226 153.662 95.8059 154.469C93.5893 155.277 90.47 155.362 89.5372 153.195C89.2914 152.629 89.2413 151.957 88.8351 151.49C88.0176 150.542 86.3326 151.009 85.3847 150.191C84.3366 149.294 84.7729 147.393 83.7549 146.46C83.1079 145.868 82.135 145.898 81.2875 145.678C78.6195 144.991 77.3457 141.52 78.4239 138.983C79.5021 136.445 82.3055 134.961 85.0537 134.775C86.5332 134.675 88.2533 135.041 88.9354 136.355C89.4118 137.273 89.2363 138.396 89.5021 139.399C89.7679 140.402 90.9664 141.34 91.7739 140.693C91.1169 137.473 90.5953 133.722 92.7668 131.255C93.5592 130.357 94.6324 129.745 95.4449 128.862C96.9694 127.212 97.4609 124.745 99.171 123.286C100.455 122.192 102.2 121.856 103.745 121.174C105.289 120.497 106.819 119.138 106.678 117.458C106.523 115.583 104.336 113.898 105.159 112.208C108.745 111.38 112.33 110.553 115.916 109.725C116.693 108.025 116.092 105.949 114.923 104.489C113.75 103.03 112.095 102.062 110.475 101.124C109.437 100.523 108.343 99.9057 107.15 99.8857C102.942 99.8104 100.445 106.761 96.4479 105.447C94.9183 104.946 94.0056 103.196 94.2212 101.601C94.4368 100.006 95.6154 98.647 97.0597 97.9398C98.1028 97.4333 99.3114 97.2026 100.169 96.4203C100.706 95.9288 101.052 95.2719 101.433 94.655C102.692 92.639 105.36 89.2538 108.188 90.2418C111.001 91.2247 110.565 95.5076 111.759 97.8797C113.308 98.7322 115.008 96.8466 115.37 95.1214C115.731 93.3912 115.635 91.3652 116.939 90.1716C117.521 89.635 118.343 89.319 118.72 88.6219C119.497 87.1676 117.757 85.643 116.212 85.0663C113.93 84.2188 111.478 83.8276 109.046 83.9279C109.286 81.947 109.101 79.9159 108.509 78.0102C108.474 77.9049 108.439 77.7945 108.399 77.6892C87.802 84.0583 71.0618 99.1986 62.5363 118.752C62.5815 120.217 62.7319 121.686 63.0127 123.145C63.6196 126.33 64.768 129.384 65.9114 132.418C66.9897 135.277 68.0679 138.14 69.1511 140.999C69.778 142.664 70.45 144.399 71.7589 145.608C74.0006 147.679 77.5212 147.719 79.9434 149.574C82.145 151.265 83.1179 154.213 85.3597 155.848C87.0246 157.062 89.2313 157.423 90.7759 158.792C95.2041 162.714 90.9664 171.034 94.7929 175.547C96.7036 177.799 100.104 178.356 101.964 180.653C104.352 183.596 103.233 187.964 104.201 191.63C105.841 197.844 113.208 201.234 114.828 207.453C115.375 209.539 115.209 211.776 115.906 213.817C116.603 215.858 118.71 217.734 120.751 217.036C119.868 213.456 120.59 209.509 122.686 206.475C124.186 204.303 126.398 202.478 126.994 199.91C127.35 198.381 127.075 196.781 127.205 195.216C127.576 190.602 131.232 187.062 133.88 183.26C136.528 179.459 138.042 173.712 134.622 170.592C131.663 167.914 126.744 168.832 123.544 166.455Z" fill="#6FAE4B"/>
<path opacity="0.5" d="M66.088 128.467C68.0438 126.471 71.4941 127.428 74.0167 126.23C75.9976 125.292 77.1611 123.146 79.0869 122.098C81.7148 120.668 85.4409 121.446 87.4319 119.214C88.9966 117.459 88.6104 114.68 87.5472 112.579C86.484 110.483 84.8592 108.672 84.0618 106.461C82.7328 102.8 84.1069 98.3364 87.2614 96.0546C89.5733 94.3795 92.5121 93.8981 95.2152 92.9703C97.9183 92.0425 100.702 90.3174 101.369 87.5391C101.905 85.2923 100.907 83.0255 99.824 80.9543C83.1892 88.4869 69.8392 102.002 62.5323 118.758C62.5775 120.222 62.7279 121.691 63.0087 123.151C63.4651 125.558 64.2374 127.885 65.0749 130.192C65.3006 129.55 65.6065 128.958 66.088 128.467Z" fill="#6FAE4B"/>
<path d="M204.038 148.231C204.038 122.042 190.402 99.0433 169.846 85.9391C169.565 86.7615 169.48 87.6342 169.655 88.5218C170.162 91.0644 172.534 92.9752 172.855 95.5479C170.809 97.0624 167.474 96.5057 165.999 98.5769C164.761 100.317 165.753 102.825 167.303 104.289C168.853 105.753 170.884 106.656 172.378 108.176C173.873 109.7 174.675 112.323 173.256 113.918C172.203 115.101 170.407 115.207 168.833 115.041C167.258 114.876 165.613 114.53 164.139 115.101C162.664 115.673 161.621 117.659 162.639 118.873C163.111 119.434 163.898 119.695 164.254 120.337C165.362 122.323 161.41 123.401 160.653 125.548C159.961 127.519 162.509 129.284 164.58 128.988C166.651 128.697 168.371 127.278 170.327 126.541C175.999 124.404 183.005 129.7 182.504 135.738C182.353 137.559 181.671 139.504 182.514 141.124C182.895 141.867 183.572 142.453 183.808 143.256C184.454 145.427 181.195 147.032 179.214 145.929C177.233 144.82 176.451 142.428 175.789 140.257C175.127 138.085 174.234 135.698 172.178 134.74C170.738 134.068 169.058 134.274 167.484 134.494C161.967 135.262 156.451 136.034 150.939 136.801C149.555 139.444 153.055 142.072 153.492 145.021C153.878 147.604 151.857 149.85 150.884 152.278C149.354 156.074 150.653 160.818 153.903 163.311C155.307 164.384 157.073 165.136 157.92 166.691C158.783 168.271 158.432 170.206 158.707 171.982C159.214 175.211 161.927 177.839 165.061 178.767C168.196 179.695 171.641 179.108 174.595 177.699C175.979 177.042 177.574 176.194 178.938 176.891C179.856 177.358 180.327 178.381 180.643 179.359C182.193 184.143 181.516 189.599 178.838 193.857C178.09 195.046 177.178 196.184 176.842 197.553C176.31 199.73 177.443 202.062 179.229 203.431C194.444 189.91 204.038 170.191 204.038 148.231Z" fill="#6FAE4B"/>
<path opacity="0.5" d="M179.844 93.5917C179.121 94.5646 178.56 95.6428 178.229 96.8264C177.622 98.9979 177.888 101.51 179.347 103.226C179.934 103.913 180.701 104.469 181.127 105.267C182.948 108.687 177.386 111.896 177.451 115.768C177.507 118.928 181.158 120.663 184.272 121.169C187.391 121.676 191.007 121.937 192.858 124.494C195.159 127.674 193.174 132.032 192.883 135.949C192.642 139.143 193.61 142.303 193.7 145.502C193.79 148.702 192.637 152.348 189.683 153.586C186.494 154.93 183.008 152.894 179.668 152.002C177.818 151.505 175.776 151.385 174.056 152.222C172.336 153.06 171.097 155.066 171.609 156.911C172.251 159.228 175.074 160.131 177.482 160.171C179.884 160.216 182.461 159.815 184.563 160.983C187.216 162.458 188.053 165.803 189.793 168.29C192.005 171.45 195.576 173.105 199.402 174.033C202.401 165.998 204.046 157.307 204.046 148.23C204.041 126.57 194.703 107.097 179.844 93.5917Z" fill="#6FAE4B"/>
<path d="M75.0905 149.549C75.0905 149.549 77.257 146.836 77.6633 145.873C78.0695 144.91 81.9711 136.5 81.9711 135.287C81.9711 134.073 81.0584 130.979 81.6652 130.979C82.2721 130.979 82.2721 132.548 82.6281 132.548C82.9842 132.548 84.0474 130.878 84.2981 129.915C84.5539 128.953 85.2159 128.085 85.5368 129.69C85.7475 130.728 85.6121 131.841 85.3112 132.754C85.0052 133.667 83.9421 135.086 83.9421 135.086C83.9421 135.086 81.1036 144.965 80.1908 146.992C79.2781 149.018 77.7585 151.094 77.7585 151.094L75.0905 149.549Z" fill="#E59D8F"/>
<path d="M73.4995 217.974C73.4995 217.974 72.7623 220.742 73.1033 221.078C73.4393 221.414 80.4654 222.192 80.6258 221.515C80.7863 220.838 76.3681 219.047 76.3681 218.726C76.3681 218.405 76.3681 217.969 76.3681 217.969H73.4995V217.974Z" fill="#32190A"/>
<path d="M52.4718 208.837C52.4718 208.837 50.0245 210.321 50.0345 210.798C50.0446 211.274 54.5731 216.705 55.1549 216.324C55.7366 215.948 53.7958 211.595 54.0165 211.364C54.2371 211.134 54.543 210.818 54.543 210.818L52.4718 208.837Z" fill="#32190A"/>
<path d="M68.1039 174.058C68.1039 174.058 78.4399 173.471 79.0317 174.058C79.6184 174.645 81.3887 187.984 81.3887 192.483C81.3887 196.981 76.7849 218.19 76.7849 218.19H73.144C73.144 218.19 75.3958 197.944 75.3958 195.266C75.3958 192.588 72.7178 184.98 72.7178 184.98C72.7178 184.98 71.0026 194.409 69.0769 197.192C67.1511 199.975 54.4029 211.224 54.4029 211.224L52.0057 208.962C52.0057 208.962 64.1521 197.297 64.794 194.509C65.436 191.726 65.6516 186.691 65.6516 183.371C65.6416 180.056 68.1039 174.058 68.1039 174.058Z" fill="#3474D1"/>
<path opacity="0.5" d="M72.7137 184.985C72.7137 184.985 75.3917 192.593 75.3917 195.271C75.3917 197.949 73.1399 218.195 73.1399 218.195H74.7899C74.9504 215.667 75.4218 209.113 76.2342 203.857C77.2673 197.192 76.51 192.057 75.7528 189.038C75.0005 186.014 72.7137 184.985 72.7137 184.985Z" fill="#3474D1"/>
<path opacity="0.5" d="M69.7433 179.7C71.8446 177.598 77.1956 177.598 79.8485 177.739C79.5226 175.698 79.2167 174.243 79.0311 174.058C78.4443 173.471 68.1034 174.058 68.1034 174.058C68.1034 174.058 65.641 180.056 65.641 183.376C65.641 186.696 65.4254 191.731 64.7834 194.514C64.1415 197.297 51.9951 208.967 51.9951 208.967L52.9229 209.84C55.7063 206.831 63.961 197.919 65.8918 195.993C68.2187 193.661 66.8998 182.543 69.7433 179.7Z" fill="#3474D1"/>
<path d="M75.9625 148.165C75.9625 148.165 78.5101 149.118 78.3848 149.644C78.2594 150.171 76.7098 154.9 75.4259 155.211C74.1421 155.517 72.5724 155.998 71.8602 154.845C71.1481 153.686 75.9625 148.165 75.9625 148.165Z" fill="#DBB63F"/>
<path d="M72.4868 144.891C72.5821 144.921 73.3293 145.372 74.1969 146.746C74.9893 147.995 76.3333 151.199 75.4908 151.871C74.6483 152.543 73.2892 152.513 73.2892 152.513C73.0184 152.935 74.2671 154.043 74.2671 154.043C74.1969 153.973 70.5911 155.954 70.5911 155.954C70.5911 155.954 70.9923 154.885 70.3955 153.958C69.7988 153.03 68.9061 152.649 68.9061 152.649C68.9061 152.649 66.2531 150.868 66.7045 148.371C67.1508 145.873 69.5179 143.923 72.4868 144.891Z" fill="#F4AF9F"/>
<path d="M85.3253 135.056C85.3253 135.056 75.9472 133.827 76.7095 131.305C77.4718 128.787 79.9893 130.252 79.9893 130.252C79.9893 130.252 75.9773 127.117 77.7025 125.387C79.4326 123.657 81.3785 127.378 81.3785 127.378C81.3785 127.378 80.7466 121.811 82.7977 123.336C84.8488 124.86 84.7335 126.616 84.7335 126.616C84.7335 126.616 86.7245 120.578 88.1889 123.07C89.6532 125.563 88.7405 126.967 88.7405 126.967C88.7405 126.967 90.4757 123.155 91.8799 125.563C93.2841 127.965 90.7064 129.665 90.7064 129.665C90.7064 129.665 94.3974 127.729 94.1066 129.901C93.8157 132.067 90.7064 132.774 90.7064 132.774C90.7064 132.774 94.9742 132.458 92.6923 133.993C90.4255 135.527 85.3253 135.056 85.3253 135.056Z" fill="#ABDB53"/>
<path d="M78.0388 149.524C78.0388 149.524 80.2404 146.771 80.6516 145.793C81.0628 144.815 85.0197 136.28 85.0197 135.046C85.0197 133.812 84.0919 130.678 84.7088 130.678C85.3256 130.678 85.3256 132.273 85.6867 132.273C86.0478 132.273 87.126 130.577 87.3818 129.6C87.6375 128.622 88.3095 127.744 88.6405 129.369C88.8562 130.422 88.7158 131.555 88.4098 132.478C88.0989 133.406 87.0207 134.845 87.0207 134.845C87.0207 134.845 84.1421 144.87 83.2143 146.926C82.2865 148.983 80.7469 151.089 80.7469 151.089L78.0388 149.524Z" fill="#F4AF9F"/>
<path d="M78.3896 148.456L81.3886 150.708C81.3886 150.708 78.7106 153.922 79.2472 155.637C79.7838 157.353 81.4237 158.852 80.2853 161.209C79.1418 163.566 78.6052 164.208 78.6052 166.67C78.6052 169.133 80.6413 175.136 80.6413 175.136C80.6413 175.136 74.1268 177.859 70.6815 177.859C67.2312 177.859 65.8972 175.873 65.8972 175.873C65.8972 175.873 70.9122 168.681 70.9122 165.467C70.9122 162.252 69.8139 155.808 70.511 155.111C71.2081 154.414 73.515 154.263 74.177 153.596C74.8339 152.934 78.3896 148.456 78.3896 148.456Z" fill="#FF88CD"/>
<path opacity="0.5" d="M79.8534 149.554C78.9608 151.44 77.5014 154.71 77.5014 155.948C77.5014 157.734 78.705 158.937 77.5014 161.014C76.2978 163.09 76.8344 168.992 76.2376 171.941C75.8565 173.837 73.0631 176.314 71.1123 177.844C74.6428 177.638 80.6358 175.131 80.6358 175.131C80.6358 175.131 78.5997 169.128 78.5997 166.665C78.5997 164.203 79.1363 163.561 80.2797 161.204C81.4231 158.847 79.7782 157.348 79.2416 155.632C78.705 153.917 81.383 150.703 81.383 150.703L79.8534 149.554Z" fill="#FF88CD"/>
<path d="M69.1711 143.571C68.8953 143.702 67.1601 144.309 65.9515 146.179C64.7378 148.05 65.9715 150.327 65.9715 150.327C65.9715 150.327 63.5041 149.489 63.113 152.298C62.7218 155.106 63.0478 155.623 64.8833 156.811C66.7137 158 66.2574 160.357 66.2574 160.357C66.2574 160.357 69.136 159.619 68.8752 156.951C68.6144 154.283 67.0497 151.58 67.0497 151.58C67.0497 151.58 68.4991 153.441 69.3266 153.26C70.154 153.085 71.2273 151.43 71.0016 150.362C71.0016 150.362 69.6224 150.292 69.823 148.912C70.0236 147.533 71.1169 149.469 71.3576 149.419C71.5933 149.369 71.8942 148.125 71.7689 147.533C71.6435 146.942 72.5261 148.953 72.7819 148.556C73.0377 148.16 72.6816 146.35 72.6816 146.35C72.6816 146.35 73.9053 148.01 73.6997 147.062C73.4991 146.114 73.2082 144.75 73.2082 144.75C73.2082 144.75 74.2613 146.199 73.9805 144.895C73.6997 143.596 70.2644 143.055 69.1711 143.571Z" fill="#272C55"/>
<path d="M66.6956 123.05C66.6956 123.05 60.5672 117.925 62.9644 117.925C65.3616 117.925 67.5632 119.75 67.5632 119.75C67.5632 119.75 66.9213 109.946 69.9453 112.97C72.9694 115.994 71.7908 118.531 71.7908 118.531C71.7908 118.531 73.6965 114.113 75.0907 116.265C76.6704 118.707 75.0907 120.843 75.0907 120.843C75.0907 120.843 79.85 116.265 79.85 119.379C79.85 122.493 76.2542 124.143 76.2542 124.143C76.2542 124.143 75.8229 125.763 75.0907 125.763C73.4307 125.763 73.6414 124.324 73.6414 124.324C73.6414 124.324 70.4568 127.508 69.7598 126.811C69.0677 126.119 68.496 125.056 68.496 125.056C68.496 125.056 67.518 125.242 65.8932 125.242C64.2633 125.247 66.6956 123.05 66.6956 123.05Z" fill="#ABDB53"/>
<path d="M187.337 174.795C187.337 174.795 183.009 172.668 183.009 172.984C183.009 173.3 183.009 173.691 183.837 174.163C184.664 174.634 181.71 173.14 181.279 174.318C180.848 175.497 181.71 176.956 182.342 177.232C182.974 177.508 185.371 176.801 185.923 176.801C186.475 176.801 187.342 176.881 187.342 176.881V174.795H187.337Z" fill="#DD9C89"/>
<path d="M204.233 163.446C204.178 160.928 200.527 160.532 199.795 162.939C198.912 165.848 197.016 171.761 195.903 172.874C194.414 174.364 186.54 174.103 186.54 174.103C186.54 174.103 186.023 176.68 186.54 177.192C187.057 177.709 196.961 178.606 198.802 176.771C200.642 174.93 204.238 165.773 204.238 163.511C204.238 163.491 204.233 163.471 204.233 163.446Z" fill="#2D62D1"/>
<path d="M196.343 230.481C196.343 230.481 197.141 234.574 196.343 234.915C195.546 235.256 186.985 234.383 187.211 233.591C187.437 232.793 192.743 232.151 192.743 231.585C192.743 231.018 192.667 230.07 192.667 230.07L196.343 230.481Z" fill="#32190A"/>
<path d="M220.857 226.916C220.857 226.916 221.424 227.979 221.424 228.545C221.424 229.112 221.108 230.331 220.556 230.882C220.005 231.434 218.43 232.713 218.846 233.134C219.262 233.55 222.201 232.848 223.164 231.885C224.132 230.918 225.742 228.515 225.742 227.984C225.742 227.452 223.47 225.371 223.47 225.371L220.857 226.916Z" fill="#32190A"/>
<path d="M208.972 189.539H197.021C197.021 189.539 192.322 204.383 191.796 210.421C191.269 216.464 192.032 230.782 192.032 230.782L196.761 231.309C196.761 231.309 197.147 215.697 198.461 211.891C199.775 208.079 202.668 200.05 202.668 200.05C202.668 200.05 205.748 210.973 208.185 214.368C211.861 219.489 220.532 227.899 220.532 227.899L223.947 225.537C223.947 225.537 214.228 212.929 212.257 207.016C210.286 201.098 208.972 189.539 208.972 189.539Z" fill="#1D2C36"/>
<path d="M198.536 203.606C196.73 208.51 195.276 216.068 195.276 219.383C195.276 221.745 194.734 227.773 194.423 231.053L196.76 231.314C196.76 231.314 197.147 215.702 198.46 211.896C199.774 208.084 202.668 200.055 202.668 200.055C202.668 200.055 200.341 198.701 198.536 203.606Z" fill="#19282F"/>
<path d="M208.972 189.539H197.021C197.021 189.539 196.716 190.507 196.254 192.041C198.807 192.217 203.024 192.944 204.714 195.757C207.212 199.915 208.571 208.942 211.74 214.122C213.636 217.222 218.576 222.758 222.242 226.715L223.952 225.532C223.952 225.532 214.233 212.924 212.262 207.011C210.286 201.098 208.972 189.539 208.972 189.539Z" fill="#19282F"/>
<path d="M204.658 160.256C204.658 160.256 203.194 159.409 203.194 158.175C203.194 156.941 205.085 155.281 204.658 152.117C204.232 148.952 199.317 148.315 197.753 149.88C196.188 151.445 195.436 158.636 196.825 159.138C198.214 159.639 199.508 159.078 200.065 159.639C200.626 160.201 201.379 162.262 201.379 162.262L204.658 160.256Z" fill="#F4AF9F"/>
<path d="M197.718 148.842C196.956 149.063 196.569 149.945 196.981 150.627C197.181 150.963 197.477 151.249 197.908 151.344C199.142 151.615 199.955 151.344 199.955 151.344C199.955 151.344 199.222 151.846 199.955 152.578C200.687 153.31 201.228 153.27 201.228 153.656C201.228 154.042 200.998 154.699 201.228 154.699C201.459 154.699 201.459 153.155 202.307 153.581C203.154 154.007 202.497 155.01 202.307 155.512C202.116 156.013 203.405 157.382 203.771 157.016C204.137 156.65 205.431 155.201 205.892 153.506C206.354 151.811 205.12 150.998 205.12 150.998C205.12 150.998 205.005 148.145 202.186 148.145C200.491 148.14 198.801 148.531 197.718 148.842Z" fill="#19282F"/>
<path d="M203.877 159.624C203.877 159.624 200.326 159.504 199.604 163.105C198.882 166.706 199.399 171.334 198.882 176.069C198.365 180.803 196.104 189.343 196.415 189.649C196.726 189.96 202.588 192.428 205.572 192.428C208.556 192.428 210.406 191.5 210.406 191.5C210.406 191.5 211.209 171.084 210.191 167.503C209.173 163.927 207.994 159.624 203.877 159.624Z" fill="#3474D1"/>
<path opacity="0.5" d="M204.719 169.419C208.269 172.969 207.296 183.616 205.992 186.811C204.994 189.263 200.671 190.126 198.711 190.682C200.767 191.48 203.721 192.427 205.571 192.427C208.555 192.427 210.406 191.5 210.406 191.5C210.406 191.5 211.208 171.084 210.19 167.503C209.623 165.522 209.006 163.32 207.873 161.746C205.27 162.533 203.289 163.315 203.289 163.315C203.289 163.315 201.168 165.868 204.719 169.419Z" fill="#3474D1"/>
<path d="M206.886 176.008C206.52 173.877 204.178 172.307 202.066 172.779C202.372 171.816 201.409 170.702 200.411 170.863C200.817 169.394 200.772 167.703 199.865 166.48C198.957 165.251 197.036 164.75 195.843 165.697C195.125 163.812 193.731 162.192 191.971 161.209C191.149 160.753 190.191 160.422 189.278 160.627C188.526 160.798 187.899 161.299 187.317 161.806C185.828 163.095 184.288 164.895 184.805 166.796C183.937 166.6 182.974 167.162 182.713 168.009C180.341 166.359 176.68 167.006 175.02 169.373C173.36 171.741 173.992 175.402 176.354 177.072C175.542 177.062 174.87 177.999 175.151 178.762C173.987 178.486 173.009 179.735 172.748 180.903C172.357 182.648 172.829 184.564 173.977 185.928C175.131 187.297 176.936 188.079 178.721 187.989C178.907 189.765 181.269 190.878 182.753 189.89C183.781 191.896 185.782 193.506 188.034 193.596C190.286 193.691 192.603 191.951 192.733 189.699C193.425 190.156 194.504 189.785 194.769 188.997C195.973 189.845 197.633 190.116 198.952 189.464C200.271 188.812 201.078 187.147 200.562 185.768C201.775 186.073 202.708 184.745 203.215 183.822C203.365 183.551 204.363 180.537 203.42 180.652C205.572 180.402 207.252 178.135 206.886 176.008Z" fill="#ABDB53"/>
<path d="M221.629 199.519L221.619 199.629C221.619 199.629 221.629 199.594 221.629 199.519Z" fill="#BD6C1B"/>
<path d="M195.164 178.712L191.934 172.072L191.919 172.954L193.419 177.889C191.403 176.926 189.627 176.34 189.627 176.34C189.392 176.36 189.156 176.375 188.925 176.395C188.674 176.415 188.148 176.319 187.977 176.565C187.877 176.711 188.033 176.731 188.153 176.786C188.273 176.841 188.389 176.896 188.509 176.951C189.191 177.272 189.873 177.593 190.55 177.914C192.436 178.807 194.316 179.705 196.187 180.617C196.428 180.733 196.668 180.853 196.904 180.968C196.623 180.999 196.347 181.029 196.067 181.059C195.395 181.134 194.718 181.204 194.046 181.279C193.223 181.37 192.401 181.46 191.578 181.545C190.851 181.625 190.124 181.701 189.397 181.781C189.211 181.801 189.026 181.821 188.835 181.841C188.76 181.851 188.685 181.856 188.609 181.866C188.529 181.876 188.379 181.871 188.469 181.991C188.544 182.097 188.78 182.132 188.895 182.172C189.056 182.232 189.221 182.292 189.382 182.353C189.572 182.423 189.758 182.493 189.948 182.563L199.196 182.097C206.483 185.718 215.64 190.547 217.977 193.06C221.498 196.836 221.648 199.022 221.628 199.519L222.601 194.053C222.601 194.053 227.32 194.078 226.483 193.681C225.645 193.285 224.005 190.883 224.005 190.883L226.197 188.21C226.197 188.21 222.882 188.496 217.215 187.122C210.043 185.387 200.776 181.335 195.164 178.712Z" fill="#BD6C1B"/>
<path d="M213.415 186.219C213.415 186.219 213.385 187.101 212.889 187.768C212.116 188.806 211.499 190.125 211.835 190.125C212.392 190.125 213.089 189.007 213.089 189.243C213.089 189.473 212.277 190.336 212.859 190.918C213.44 191.499 215.17 191.535 215.567 191.138C215.963 190.742 215.602 188.029 215.602 187.568C215.602 187.106 215.557 186.499 215.557 186.499L213.415 186.219Z" fill="#F4AF9F"/>
<path d="M215.907 187.147L212.768 186.71C212.768 186.71 213.605 177.749 212.738 175.04C211.87 172.332 199.318 164.268 201.86 161.219C203.881 158.792 205.185 158.992 208.946 162.884C212.708 166.776 217.417 174.203 217.517 175.326C217.617 176.45 215.907 187.147 215.907 187.147Z" fill="#3474D1"/>
<path d="M118.279 190.662C118.139 189.885 118.415 189.097 119.011 188.576C119.874 187.824 121.318 186.861 123.294 186.56C126.694 186.033 129.142 188.882 128.996 190.306C128.851 191.73 128.018 196.795 128.319 198.776C128.319 198.776 124.633 202.207 123.53 202.879C122.427 203.551 122.527 200.757 121.664 200.607C120.802 200.456 120.852 201.876 119.633 201.62C118.415 201.364 118.971 198.691 119.127 197.237C119.247 196.164 118.62 192.518 118.279 190.662Z" fill="#FF88CD"/>
<path d="M118.591 186.445L117.823 186.264C117.803 186.259 117.788 186.244 117.788 186.229L117.608 185.462C117.598 185.412 117.523 185.412 117.513 185.462L117.332 186.229C117.327 186.249 117.312 186.264 117.297 186.264L116.53 186.445C116.479 186.455 116.479 186.53 116.53 186.54L117.297 186.721C117.317 186.726 117.332 186.741 117.332 186.756L117.513 187.523C117.523 187.573 117.598 187.573 117.608 187.523L117.788 186.756C117.793 186.736 117.808 186.721 117.823 186.721L118.591 186.54C118.641 186.53 118.641 186.455 118.591 186.445Z" fill="white"/>
<path d="M126.749 181.956L125.982 181.775C125.961 181.77 125.946 181.755 125.946 181.74L125.766 180.973C125.756 180.923 125.681 180.923 125.671 180.973L125.49 181.74C125.485 181.76 125.47 181.775 125.455 181.775L124.688 181.956C124.637 181.966 124.637 182.041 124.688 182.051L125.455 182.232C125.475 182.237 125.49 182.252 125.49 182.267L125.671 183.034C125.681 183.084 125.756 183.084 125.766 183.034L125.946 182.267C125.951 182.247 125.966 182.232 125.982 182.232L126.749 182.051C126.799 182.041 126.799 181.966 126.749 181.956Z" fill="white"/>
<path d="M121.343 181.936L120.861 181.826C120.851 181.821 120.841 181.816 120.836 181.801L120.726 181.319C120.716 181.289 120.671 181.289 120.666 181.319L120.555 181.801C120.55 181.811 120.545 181.821 120.53 181.826L120.049 181.936C120.019 181.946 120.019 181.991 120.049 181.996L120.53 182.107C120.54 182.112 120.55 182.117 120.555 182.132L120.666 182.613C120.671 182.643 120.721 182.643 120.726 182.613L120.836 182.132C120.841 182.122 120.846 182.112 120.861 182.107L121.343 181.996C121.373 181.986 121.373 181.941 121.343 181.936Z" fill="white"/>
<path d="M131.689 190.582L131.208 190.472C131.198 190.467 131.188 190.462 131.183 190.447L131.072 189.965C131.062 189.935 131.017 189.935 131.012 189.965L130.902 190.447C130.897 190.457 130.892 190.467 130.877 190.472L130.395 190.582C130.365 190.592 130.365 190.637 130.395 190.642L130.877 190.752C130.887 190.757 130.897 190.762 130.902 190.778L131.012 191.259C131.022 191.289 131.067 191.289 131.072 191.259L131.183 190.778C131.188 190.767 131.193 190.757 131.208 190.752L131.689 190.642C131.719 190.637 131.719 190.592 131.689 190.582Z" fill="white"/>
<path opacity="0.5" d="M124.639 194.118C126.154 193.38 126.023 190.171 126.023 190.171C126.023 190.171 120.507 191.535 119.283 191.996C119.002 192.102 118.787 192.352 118.626 192.668C118.787 193.641 118.947 194.684 119.043 195.557C119.71 195.742 120.672 196.44 120.753 198.074C120.823 199.464 120.798 200.587 120.773 201.154C121.023 200.848 121.229 200.517 121.665 200.597C121.886 200.637 122.042 200.848 122.172 201.134C122.197 200.356 122.237 198.681 122.157 197.628C122.062 196.219 123.13 194.855 124.639 194.118Z" fill="#FF88CD"/>
<path d="M76.5426 222.528C76.5426 222.528 73.8545 221.881 73.5787 222.157C73.3029 222.433 72.6158 227.227 72.9869 228.285C73.3581 229.343 77.0641 229.865 77.0641 229.123C77.0641 228.38 75.2086 228.009 75.2086 227.307C75.2086 226.605 75.675 225.903 75.8004 225.778C75.9257 225.652 76.6529 225.778 76.6529 225.778L76.5426 222.528Z" fill="#32190A"/>
<path d="M97.449 177.377C97.449 177.377 83.7781 182.989 83.0408 185.767C82.3036 188.551 88.2765 196.239 88.2765 196.239L90.5684 194.273C90.5684 194.273 85.6988 188.094 86.5614 187.237C87.9857 185.813 95.2775 183.596 96.0548 182.819C96.8271 182.046 97.449 177.377 97.449 177.377Z" fill="#F0F1F1"/>
<path d="M96.672 178.506C96.672 178.506 98.8636 177.127 98.8987 176.074C98.9338 175.02 97.4594 172.688 98.1916 170.397C98.9238 168.105 101.802 166.425 104.576 167.513C107.349 168.601 107.63 172.147 107.168 173.651C106.712 175.151 104.43 179.007 103.382 178.616C102.008 178.105 101.351 177.372 101.351 177.372C101.351 177.372 100.348 179.303 100.549 180.01C100.744 180.717 98.8435 180.592 97.7352 179.97C96.6269 179.338 96.672 178.506 96.672 178.506Z" fill="#F4AF9F"/>
<path d="M108.206 170.888C108.206 170.888 107.098 172.021 105.719 171.801C104.339 171.58 103.146 170.652 103.146 170.652C103.146 170.652 103.397 171.354 102.549 171.861C101.701 172.372 100.834 173.385 100.834 173.385C100.834 173.385 101.019 172.287 99.9512 172.588C98.883 172.889 99.9262 174.078 99.6353 174.599C99.3394 175.121 98.4768 175.361 98.4768 175.361C98.4768 175.361 97.208 172.588 97.4838 170.427C97.7597 168.265 99.4196 167.929 99.4196 167.929C99.4196 167.929 100.282 165.913 102.624 166.244C104.966 166.575 106.421 168.722 107.363 169.258C108.306 169.79 109.575 169.218 109.264 169.77C108.953 170.321 108.206 170.888 108.206 170.888Z" fill="#19282F"/>
<path d="M104.896 225.125C104.896 225.125 104.048 227.944 104.354 228.756C104.665 229.569 112.89 229.759 112.734 229.027C112.579 228.295 108.02 226.866 108.02 226.515C108.02 226.169 108.176 225.356 108.176 225.356L104.896 225.125Z" fill="#32190A"/>
<path d="M76.2353 222.076C76.2353 222.076 90.5482 223.841 90.7538 223.636C90.9594 223.43 85.5281 211.224 85.5281 208.44C85.5281 205.657 86.0697 204.574 86.2754 204.368C86.481 204.162 92.7197 202.673 93.1259 202.673C93.5321 202.673 110.628 204.574 112.188 206.133C113.748 207.693 108.728 225.872 108.728 225.872L104.585 225.466C104.585 225.466 107.504 211.494 106.892 210.883C106.28 210.271 93.9333 211.018 93.9333 211.018C93.9333 211.018 97.2231 225.842 95.3576 227.708C93.492 229.574 76.2303 226.349 76.2303 226.349V222.076H76.2353Z" fill="#27405F"/>
<path d="M102.008 208.862C97.2336 208.862 90.4031 209.193 91.05 209.84C91.697 210.487 93.9437 211.013 93.9437 211.013C93.9437 211.013 106.291 210.266 106.903 210.878C107.514 211.49 104.596 225.461 104.596 225.461L106.251 225.622C106.862 221.946 108.522 211.846 108.522 210.512C108.512 208.877 106.787 208.862 102.008 208.862Z" fill="#21384F"/>
<path d="M93.1262 202.673C92.72 202.673 86.4763 204.167 86.2757 204.368C86.07 204.574 85.5284 205.657 85.5284 208.44C85.5284 211.224 90.9547 223.43 90.7541 223.636C90.5485 223.841 76.2356 222.076 76.2356 222.076V223.024C79.1343 223.902 83.8684 225.125 87.6598 225.125C93.5625 225.125 93.0158 225.296 92.2485 221.785C91.4812 218.275 87.8454 209.96 88.9687 208.836C90.0971 207.708 95.7942 207.994 97.4441 206.339C98.3167 205.466 98.7831 204.333 99.1091 203.38C95.8794 202.949 93.2816 202.673 93.1262 202.673Z" fill="#21384F"/>
<path d="M118.296 191.715C118.296 191.715 119.534 191.033 119.83 190.853C120.126 190.672 121.204 189.213 121.846 188.817C122.488 188.425 123.461 187.799 123.712 188.21C123.963 188.621 123.241 188.877 123.125 189.358C123.01 189.84 125.613 189.388 125.964 189.965C126.315 190.537 125.302 192.503 123.857 192.819C122.413 193.135 121.666 192.743 120.904 192.909C119.996 193.104 118.562 194.203 118.562 194.203L118.296 191.715Z" fill="#F4AF9F"/>
<path d="M95.8692 177.944C96.8572 177.232 98.1761 177.167 99.2092 177.814C99.9915 178.305 100.834 179.093 101.285 180.341C102.293 183.115 107.268 193.762 108.342 194.83C109.415 195.903 118.733 190.973 118.733 190.973L120.433 194.143C120.433 194.143 110.232 200.627 107.083 199.489C103.933 198.355 100.408 189.534 99.7759 189.534C99.144 189.534 96.7518 196.59 97.3837 202.638C97.3837 202.638 93.8582 207.302 84.786 206.545C84.786 206.545 85.9194 193.696 89.5753 186.134C91.8522 181.415 94.3296 179.052 95.8692 177.944Z" fill="white"/>
<path d="M119.686 192.754C116.727 194.444 109.62 198.33 107.985 197.729C105.909 196.961 101.21 186.049 98.6977 186.806C96.1851 187.563 96.8772 199.068 94.3647 201.585C92.4941 203.456 87.3938 204.77 84.9114 205.321C84.8261 206.094 84.786 206.545 84.786 206.545C93.8582 207.302 97.3837 202.638 97.3837 202.638C96.7518 196.59 99.149 189.534 99.7759 189.534C100.408 189.534 103.933 198.355 107.083 199.489C110.232 200.622 120.433 194.143 120.433 194.143L119.686 192.754Z" fill="#F0F1F1"/>
<path d="M116.093 232.473H114.348L140.045 145.593H141.79L116.093 232.473Z" fill="#21384F"/>
<path d="M133.188 232.473H131.443L157.14 145.593H158.885L133.188 232.473Z" fill="#21384F"/>
<path d="M155.803 153.065H138.707L139.193 151.42H156.29L155.803 153.065Z" fill="#21384F"/>
<path d="M152.648 163.737H135.552L136.034 162.097H153.135L152.648 163.737Z" fill="#21384F"/>
<path d="M149.491 174.414H132.395L132.881 172.769H149.977L149.491 174.414Z" fill="#21384F"/>
<path d="M146.335 185.086H129.238L129.72 183.446H146.821L146.335 185.086Z" fill="#21384F"/>
<path d="M143.176 195.758H126.08L126.566 194.118H143.662L143.176 195.758Z" fill="#21384F"/>
<path d="M140.02 206.435H122.924L123.405 204.795H140.506L140.02 206.435Z" fill="#21384F"/>
<path d="M136.862 217.107H119.766L120.252 215.467H137.349L136.862 217.107Z" fill="#21384F"/>
<path d="M133.709 227.784H116.612L117.094 226.139H134.195L133.709 227.784Z" fill="#21384F"/>
<path d="M184.582 232.473H186.327L160.63 145.593H158.885L184.582 232.473Z" fill="#27405F"/>
<path d="M167.48 232.473H169.225L143.533 145.593H141.788L167.48 232.473Z" fill="#27405F"/>
<path d="M144.982 153.065H162.079L161.592 151.42H144.496L144.982 153.065Z" fill="#27405F"/>
<path d="M148.136 163.737H165.232L164.751 162.097H147.65L148.136 163.737Z" fill="#27405F"/>
<path d="M151.295 174.414H168.391L167.905 172.769H150.809L151.295 174.414Z" fill="#27405F"/>
<path d="M154.452 185.086H171.548L171.066 183.446H153.965L154.452 185.086Z" fill="#27405F"/>
<path d="M157.609 195.758H174.705L174.219 194.118H157.123L157.609 195.758Z" fill="#27405F"/>
<path d="M160.766 206.435H177.862L177.38 204.795H160.279L160.766 206.435Z" fill="#27405F"/>
<path d="M163.925 217.107H181.021L180.534 215.467H163.438L163.925 217.107Z" fill="#27405F"/>
<path d="M167.078 227.784H184.175L183.693 226.139H166.592L167.078 227.784Z" fill="#27405F"/>
<path d="M164.336 143.265H136.613V145.587H164.336V143.265Z" fill="#27405F"/>
<path d="M121.305 71.1998C121.305 71.1998 120.342 70.2319 119.996 69.7304C119.655 69.2289 117.679 67.268 117.428 67.6442C117.178 68.0203 118.482 69.254 118.231 69.6351C117.98 70.0112 116.466 69.5449 115.528 68.918C114.59 68.2911 113.848 67.2028 113.868 68.3262C113.888 69.4496 115.819 71.4806 116.4 71.8718C116.987 72.263 118.893 71.8417 119.429 72.2028C119.966 72.5639 120.819 73.266 120.819 73.266L121.305 71.1998Z" fill="#F4AF9F"/>
<path d="M145.889 66.5408C145.889 66.5408 135.468 74.7604 132.906 75.2719C130.343 75.7834 121.09 70.3973 121.09 70.3973L119.992 73.4715C119.992 73.4715 127.71 80.2067 131.953 80.5026C136.195 80.7985 147.524 73.6872 147.87 72.0974C148.216 70.5076 145.889 66.5408 145.889 66.5408Z" fill="#C34949"/>
<path d="M142.449 139.449C142.449 139.449 142.599 139.956 142.032 140.523C141.466 141.089 137.093 142.248 137.093 143.025C137.093 143.797 145.488 143.501 145.964 143.025C146.441 142.549 145.729 139.454 145.729 139.454H142.449V139.449Z" fill="#17242A"/>
<path d="M158.526 138.155C158.526 138.155 158.526 138.953 158.526 139.479C158.526 140.006 157.337 141.214 156.294 141.681C155.12 142.212 154.283 142.674 154.779 143.17C155.276 143.667 157.984 143.546 159.168 143.16C160.351 142.774 162.217 141.49 162.879 141.129C163.541 140.773 161.555 137.303 161.555 137.303L158.526 138.155Z" fill="#17242A"/>
<path d="M145.411 97.308C145.411 97.308 145.356 97.4835 145.261 97.8045C144.468 100.412 140.858 112.564 140.858 117.142C140.858 122.283 142.182 139.765 142.182 139.765H146.148C146.148 139.765 146.003 121.841 147.322 117.875C148.646 113.908 151.434 105.242 151.434 105.242C151.434 105.242 153.325 113.562 154.077 119.494C154.614 123.722 158.189 139.003 158.189 139.003L162.427 138.251C162.427 138.251 159.513 124.199 159.513 119.494C159.513 114.79 161.168 100.558 160.195 97.313H145.411V97.308Z" fill="#1D2C36"/>
<path d="M146.119 111.882C144.614 116.35 144.494 134.148 144.494 139.765H146.149C146.149 139.765 146.003 121.841 147.322 117.875C148.646 113.908 151.435 105.242 151.435 105.242C151.435 105.242 147.914 106.551 146.119 111.882Z" fill="#19282F"/>
<path d="M162.433 138.246C162.433 138.246 159.519 124.188 159.519 119.489C159.519 114.79 161.174 100.553 160.201 97.308H145.417C145.417 97.308 145.362 97.4835 145.267 97.8045C145.016 98.6269 144.484 100.407 143.877 102.594C146.982 101.927 153.391 100.879 155.517 103C158.361 105.844 156.32 116.761 156.911 120.904C157.378 124.158 159.765 134.329 160.763 138.541L162.433 138.246Z" fill="#19282F"/>
<path d="M147.832 67.4132C147.832 67.4132 146.197 65.3069 146.007 64.334C145.811 63.3611 147.2 59.4143 144.638 55.7984C142.07 52.1826 136.9 55.2317 136.533 57.7794C136.172 60.332 137.135 66.7914 139.211 66.3751C141.288 65.9639 141.869 65.2016 141.955 65.6429C142.045 66.0842 143.469 69.8957 143.62 69.9909C143.765 70.1013 147.832 67.4132 147.832 67.4132Z" fill="#F4AF9F"/>
<path d="M113.262 63.6573C112.69 62.7846 112.815 61.4557 113.663 60.8438C112.76 60.6432 112.123 59.6352 112.329 58.7325C110.659 59.1939 109.004 57.8599 108.106 56.3755C107.464 55.3173 107.023 54.0786 107.183 52.8499C107.439 50.894 109.415 49.3294 111.381 49.5249C110.96 48.9282 111.577 47.9502 112.299 48.0756C111.978 46.0546 112.655 43.8028 114.305 42.5942C115.955 41.3856 118.588 41.5611 119.801 43.211C120.107 42.7647 120.819 42.6794 121.22 43.0405C121.857 41.3605 123.763 40.2722 125.533 40.5731C127.304 40.874 128.738 42.539 128.783 44.3344C130.649 43.5119 133.046 44.1689 134.234 45.8239C135.423 47.4788 135.268 49.9613 133.888 51.4658C134.56 52.0575 134.731 53.1408 134.275 53.9131C135.699 54.7205 136.837 56.0695 137.243 57.6543C137.65 59.239 137.274 61.0394 136.15 62.228C135.027 63.4165 133.156 63.888 131.652 63.241C131.827 63.9281 130.864 64.57 130.298 64.1387C130.498 64.9361 129.721 65.6332 128.984 65.9842C127.835 66.5309 126.321 66.7114 125.413 65.8237C124.696 67.3182 122.329 67.6292 121.251 66.3704C121.13 66.7415 120.689 66.8869 120.308 66.9722C119.25 67.2129 118.116 67.4286 117.098 67.0474C116.04 66.6462 116.095 65.7134 115.403 65.0514C114.751 64.4396 113.818 64.4998 113.262 63.6573Z" fill="#ABDB53"/>
<path d="M104.576 86.2745L104.466 86.2795C104.466 86.2795 104.506 86.2845 104.576 86.2745Z" fill="#BD6C1B"/>
<path d="M121.993 57.4632L128.152 53.6568L126.868 54.0028L122.6 55.6377C123.307 53.5214 123.393 52.0269 123.393 52.0269L123.157 51.0289C123.157 51.0289 121.482 55.071 119.962 59.4692C119.787 58.8724 119.616 58.2756 119.441 57.6839C119.17 56.7611 118.904 55.8383 118.633 54.9206C118.533 54.5695 118.478 54.048 118.287 53.737C118.182 53.5615 118.027 53.6016 117.966 53.7972C117.916 53.9527 117.976 54.1332 117.966 54.2887C117.956 54.4893 117.951 54.6899 117.941 54.8905C117.941 54.9306 117.941 54.9657 117.946 55.0058L119.125 61.8814C116.422 69.5544 112.746 79.2334 110.544 81.8612C107.224 85.8131 105.078 86.2343 104.581 86.2745L110.123 86.5703C110.123 86.5703 110.675 91.2594 110.965 90.3767C111.256 89.4941 113.438 87.5784 113.438 87.5784L116.357 89.4289C116.357 89.4289 115.665 86.1742 116.342 80.3818C116.873 75.8232 118.187 70.3518 119.566 65.4471L123.498 63.2555L124.441 62.3528L120.003 63.9276C120.7 61.5304 121.392 59.3087 121.993 57.4632Z" fill="#BD6C1B"/>
<path d="M118.703 78.321C118.703 78.321 117.655 78.1957 117.048 77.4284C116.441 76.6611 115.122 74.9209 114.886 75.2719C114.651 75.623 115.087 76.6109 115.373 77.0673C115.654 77.5237 113.938 77.8998 112.815 77.5788C111.692 77.2579 110.087 75.954 110.232 76.6711C110.378 77.3933 111.707 79.5597 113.307 80.0412C114.911 80.5226 115.849 80.2919 116.822 80.6229C117.79 80.9539 118.487 81.4153 118.487 81.4153L118.703 78.321Z" fill="#F4AF9F"/>
<path d="M142.839 101.094C142.839 101.094 159.429 100.548 161.039 98.1355C162.648 95.7232 151.911 66.8919 147.929 66.0494C143.947 65.2069 136.881 78.0654 131.987 79.0383C127.092 80.0162 118.256 77.599 118.256 77.599L117.659 81.8968C117.659 81.8968 130.096 85.959 133.24 85.3321C136.385 84.7053 141.816 78.9079 142.152 79.9209C146.706 93.7022 142.839 101.094 142.839 101.094Z" fill="#D8534F"/>
<path d="M152.267 100.417C150.362 99.4795 147.628 98.0904 146.706 95.3071C145.236 90.8688 146.365 79.8056 143.882 77.3232C141.4 74.8408 135.893 81.8417 131.305 82.4335C127.749 82.8899 120.768 81.4857 117.804 80.8287L117.659 81.8919C117.659 81.8919 130.096 85.9541 133.24 85.3272C136.385 84.7003 141.816 78.9029 142.152 79.916C146.706 93.7023 142.834 101.094 142.834 101.094C142.834 101.094 147.598 100.934 152.267 100.417Z" fill="#C34949"/>
<path d="M134.645 58.2063C134.645 58.2063 135.763 59.4501 137.223 59.1592C138.677 58.8683 139.369 58.4119 139.369 58.4119C139.369 58.4119 138.983 58.9937 139.881 59.5955C140.779 60.1973 141.38 61.3608 141.38 61.3608C141.38 61.3608 141.109 58.7329 142.248 59.4902C143.386 60.2474 142.599 61.2555 142.679 61.6516C142.759 62.0478 143.687 62.6396 144.52 62.7098C145.337 62.775 145.894 62.5744 146.175 62.1481C146.456 61.7269 147.263 57.7098 146.114 55.6437C144.966 53.5775 142.99 54.0188 142.99 54.0188C142.99 54.0188 141.691 52.8102 140.412 53.0659C139.134 53.3217 138.808 54.44 137.79 54.415C136.777 54.3899 135.954 54.415 135.708 54.7861C135.463 55.1572 136.024 55.9145 135.317 56.0549C134.61 56.1953 133.773 57.6246 134.645 58.2063Z" fill="#272C55"/>
</svg>
